<?xml version="1.0" encoding="UTF-8"?>
<!DOCTYPE svg PUBLIC "-//W3C//DTD SVG 1.1//EN" "http://www.w3.org/Graphics/SVG/1.1/DTD/svg11.dtd">
<svg version="1.1" xmlns="http://www.w3.org/2000/svg" xmlns:xlink="http://www.w3.org/1999/xlink" x="0" y="0" width="595.3" height="391.1" viewBox="0, 0, 595.3, 391.1">
  <g id="Layer_1">
    <path d="M354.292,30.8 L215.308,30.8 C142.854,30.8 84.136,89.518 84.136,161.972 L84.136,217.728 C84.136,290.182 142.854,348.9 215.308,348.9 L354.292,348.9 C426.746,348.9 485.464,290.182 485.464,217.728 L485.464,161.972 C485.464,89.787 426.746,30.8 354.292,30.8 z M441.561,161.972 L441.561,217.728 C441.561,265.671 402.505,304.727 354.561,304.727 L215.308,304.727 C167.364,304.727 128.309,265.671 128.309,217.728 L128.309,161.972 C128.309,114.029 167.364,74.973 215.308,74.973 L354.292,74.973 C402.236,74.973 441.561,114.029 441.561,161.972 z" fill="#FFFFFF"/>
  </g>
</svg>
