<?xml version="1.0" encoding="utf-8"?>
<!-- Generator: Adobe Illustrator 21.1.0, SVG Export Plug-In . SVG Version: 6.00 Build 0)  -->
<svg version="1.1" id="Livello_1" xmlns="http://www.w3.org/2000/svg" xmlns:xlink="http://www.w3.org/1999/xlink" x="0px" y="0px"
	 viewBox="0 0 595.3 391.1" style="enable-background:new 0 0 595.3 391.1;" xml:space="preserve">
<style type="text/css">
	.st0{fill:#FFFFFF;}
</style>
<g>
	<g>
		<path class="st0" d="M209.7,277.8c0.9,1.1,1.4,2.7,1.4,4.7v7.8h-3.5v-7.5c0-1.3-0.2-2.3-0.6-2.9c-0.4-0.6-1.1-0.9-2-0.9
			c-0.9,0-1.6,0.3-2.1,0.9s-0.7,1.5-0.7,2.6v7.8h-3.5v-7.5c0-1.3-0.2-2.3-0.7-2.9c-0.4-0.6-1.1-0.9-2.1-0.9c-1.1,0-2,0.4-2.8,1.2
			v10.1h-3.5v-14h3l0.1,1.1c1.3-0.9,2.7-1.3,4.2-1.3c1.8,0,3.2,0.6,4.1,1.9c0.5-0.6,1.1-1.1,1.9-1.4c0.8-0.3,1.7-0.5,2.6-0.5
			C207.4,276.1,208.8,276.7,209.7,277.8z"/>
		<path class="st0" d="M215.9,270.7h3.5v3.5h-3.5V270.7z M215.9,276.3h3.5v14h-3.5V276.3z"/>
		<path class="st0" d="M226.9,289.6c-1.1-0.6-2-1.5-2.5-2.6c-0.6-1.1-0.9-2.3-0.9-3.7c0-1.4,0.3-2.6,0.9-3.7c0.6-1.1,1.4-2,2.6-2.6
			c1.1-0.6,2.5-1,4.1-1c1.5,0,2.7,0.3,3.8,0.9l-0.3,2.8c-1-0.5-2.1-0.8-3.2-0.8c-1.3,0-2.4,0.4-3.1,1.2s-1.1,1.9-1.1,3.2
			c0,1.3,0.4,2.3,1.2,3.1c0.8,0.8,1.8,1.2,3.1,1.2c1.1,0,2.2-0.3,3.2-0.9l0.3,2.9c-0.5,0.3-1.1,0.5-1.8,0.6
			c-0.7,0.1-1.4,0.2-2.2,0.2C229.4,290.6,228.1,290.2,226.9,289.6z"/>
		<path class="st0" d="M239,276.3h3.3l0.1,1.5c0.4-0.5,0.9-0.9,1.6-1.2c0.7-0.4,1.3-0.5,2.1-0.5c0.2,0,0.4,0,0.6,0.1l-0.3,3.4
			c-0.4-0.1-0.8-0.1-1.2-0.1c-0.6,0-1.1,0.1-1.6,0.4c-0.5,0.3-0.8,0.6-1,1v9.5H239V276.3z"/>
		<path class="st0" d="M252.4,289.6c-1.1-0.7-1.9-1.5-2.5-2.6c-0.6-1.1-0.9-2.3-0.9-3.6s0.3-2.5,0.9-3.7c0.6-1.1,1.4-2,2.5-2.7
			c1.1-0.7,2.4-1,3.9-1s2.8,0.3,3.9,1s1.9,1.5,2.5,2.7c0.6,1.1,0.9,2.3,0.9,3.7s-0.3,2.5-0.9,3.6c-0.6,1.1-1.4,2-2.5,2.6
			c-1.1,0.7-2.4,1-3.9,1S253.5,290.2,252.4,289.6z M258.9,286.5c0.7-0.8,1-1.9,1-3.2c0-1.3-0.3-2.4-1-3.2c-0.7-0.8-1.6-1.2-2.7-1.2
			c-1.2,0-2.1,0.4-2.7,1.2c-0.7,0.8-1,1.9-1,3.2c0,1.3,0.3,2.4,1,3.2c0.7,0.8,1.6,1.2,2.7,1.2C257.4,287.7,258.3,287.3,258.9,286.5z
			"/>
		<path class="st0" d="M287.8,277.8c0.9,1.1,1.4,2.7,1.4,4.7v7.8h-3.5v-7.5c0-1.3-0.2-2.3-0.6-2.9c-0.4-0.6-1.1-0.9-2-0.9
			c-0.9,0-1.6,0.3-2.1,0.9s-0.7,1.5-0.7,2.6v7.8h-3.5v-7.5c0-1.3-0.2-2.3-0.7-2.9c-0.4-0.6-1.1-0.9-2.1-0.9c-1.1,0-2,0.4-2.8,1.2
			v10.1h-3.5v-14h3l0.1,1.1c1.3-0.9,2.7-1.3,4.2-1.3c1.8,0,3.2,0.6,4.1,1.9c0.5-0.6,1.1-1.1,1.9-1.4c0.8-0.3,1.7-0.5,2.6-0.5
			C285.5,276.1,286.9,276.7,287.8,277.8z"/>
		<path class="st0" d="M306.2,276.3v14H303l-0.1-0.8c-0.4,0.3-0.9,0.6-1.5,0.8s-1.1,0.3-1.6,0.3c-2.1,0-3.6-0.6-4.6-1.8
			c-1-1.2-1.4-2.8-1.4-4.9v-7.5h3.5v7.5c0,1.3,0.2,2.3,0.7,2.9c0.4,0.6,1.2,0.9,2.1,0.9c1.1,0,2-0.4,2.7-1.2v-10.2H306.2z"/>
		<path class="st0" d="M312.8,290.3c-0.7-0.2-1.5-0.4-2.3-0.8l0.3-3c0.8,0.5,1.5,0.8,2.2,1c0.7,0.2,1.4,0.3,2.1,0.3
			c1.4,0,2.2-0.5,2.2-1.4c0-0.5-0.2-0.9-0.6-1.2c-0.4-0.3-1.1-0.6-2-1c-1.4-0.5-2.4-1.1-3.1-1.7s-1-1.5-1-2.6c0-1.2,0.5-2.2,1.4-2.9
			c0.9-0.8,2.2-1.1,3.8-1.1s3.1,0.4,4.4,1.1l-0.3,3c-0.7-0.5-1.4-0.9-2-1.1c-0.6-0.3-1.3-0.4-2-0.4c-0.6,0-1.1,0.1-1.4,0.4
			c-0.3,0.2-0.5,0.6-0.5,1c0,0.4,0.1,0.6,0.3,0.9c0.2,0.2,0.5,0.4,0.8,0.6c0.4,0.2,1,0.4,1.8,0.7c1.4,0.5,2.4,1.1,3,1.7
			c0.6,0.6,0.9,1.5,0.9,2.5c0,1.3-0.5,2.3-1.4,3.1c-1,0.7-2.3,1.1-4.1,1.1C314.4,290.6,313.5,290.5,312.8,290.3z"/>
		<path class="st0" d="M327.6,289.6c-1.2-0.7-2-1.5-2.6-2.7c-0.6-1.1-0.9-2.3-0.9-3.7c0-1.3,0.3-2.5,0.8-3.6
			c0.5-1.1,1.3-1.9,2.4-2.6c1-0.6,2.3-1,3.7-1c1.3,0,2.4,0.3,3.4,0.8c0.9,0.5,1.6,1.3,2.1,2.2s0.7,1.9,0.7,3.1
			c0,0.6-0.1,1.2-0.2,1.9h-9.2c0.2,1.2,0.7,2.1,1.5,2.8c0.8,0.6,1.7,0.9,2.9,0.9c1.5,0,2.9-0.4,4.3-1.1l0.2,2.9
			c-0.6,0.3-1.3,0.6-2.1,0.8c-0.8,0.2-1.7,0.3-2.6,0.3C330.1,290.6,328.7,290.2,327.6,289.6z M333.5,281.7c0-0.7-0.2-1.4-0.6-1.9
			c-0.4-0.6-1.1-0.8-1.9-0.8c-0.9,0-1.6,0.3-2.1,0.8s-0.9,1.2-1.1,2H333.5z"/>
		<path class="st0" d="M353.6,276.3v14h-3.3l-0.1-0.8c-0.4,0.3-0.9,0.6-1.5,0.8s-1.1,0.3-1.6,0.3c-2.1,0-3.6-0.6-4.6-1.8
			c-1-1.2-1.4-2.8-1.4-4.9v-7.5h3.5v7.5c0,1.3,0.2,2.3,0.7,2.9c0.4,0.6,1.2,0.9,2.1,0.9c1.1,0,2-0.4,2.7-1.2v-10.2H353.6z"/>
		<path class="st0" d="M378.7,277.8c0.9,1.1,1.4,2.7,1.4,4.7v7.8h-3.5v-7.5c0-1.3-0.2-2.3-0.6-2.9c-0.4-0.6-1.1-0.9-2-0.9
			c-0.9,0-1.6,0.3-2.1,0.9s-0.7,1.5-0.7,2.6v7.8h-3.5v-7.5c0-1.3-0.2-2.3-0.7-2.9c-0.4-0.6-1.1-0.9-2.1-0.9c-1.1,0-2,0.4-2.8,1.2
			v10.1h-3.5v-14h3l0.1,1.1c1.3-0.9,2.7-1.3,4.2-1.3c1.8,0,3.2,0.6,4.1,1.9c0.5-0.6,1.1-1.1,1.9-1.4c0.8-0.3,1.7-0.5,2.6-0.5
			C376.4,276.1,377.8,276.7,378.7,277.8z"/>
	</g>
</g>
<path class="st0" d="M310.6,99.5H259c-26.9,0-48.7,21.8-48.7,48.7v20.7c0,26.9,21.8,48.7,48.7,48.7h51.6c26.9,0,48.7-21.8,48.7-48.7
	v-20.7C359.3,121.4,337.5,99.5,310.6,99.5z M343,148.2v20.7c0,17.8-14.5,32.3-32.3,32.3H259c-17.8,0-32.3-14.5-32.3-32.3v-20.7
	c0-17.8,14.5-32.3,32.3-32.3h51.6C328.4,115.9,343,130.4,343,148.2z"/>
</svg>
