<svg id="Livello_1" data-name="Livello 1" xmlns="http://www.w3.org/2000/svg" viewBox="0 0 166 82"><defs><style>.cls-1{fill:#fff;}</style></defs><title>fabctory_logo_white</title><g id="Layer_2" data-name="Layer 2"><g id="Layer_1-2" data-name="Layer 1-2"><path class="cls-1" d="M143.45,32a2.35,2.35,0,0,0-1.18-.21,2.88,2.88,0,0,0-1.81.47,3,3,0,0,0-.9,1.58,44.22,44.22,0,0,1-1.81,5.5A15.87,15.87,0,0,1,136,42.65c-.54.73-1,1.1-1.37,1.1s-.77-.46-.77-1.39a14.06,14.06,0,0,1,.22-2.25c.14-.92.32-1.88.51-2.88.15-.74.34-1.55.59-2.46a14.44,14.44,0,0,0,.4-2,.94.94,0,0,0-.31-.77,1.83,1.83,0,0,0-1.12-.25,3.61,3.61,0,0,0-2.09.47,3.07,3.07,0,0,0-1,1.58,31.39,31.39,0,0,0-1.21,4.86c0,.07,0,.14,0,.22a2.8,2.8,0,0,1-1.57.68c-.62,0-.92-.43-.92-1.29a12.67,12.67,0,0,1,.29-1.83,18.31,18.31,0,0,0,.33-2.31,2.1,2.1,0,0,0-2.38-2.38,5.39,5.39,0,0,0-2.66.84,10.84,10.84,0,0,0-3,2.83,21.05,21.05,0,0,0-2.71,5.13c.08-.91.2-1.81.37-2.71.15-.73.34-1.59.59-2.57a14.2,14.2,0,0,0,.54-2.63.76.76,0,0,0-.29-.7,2,2,0,0,0-1-.18,3.8,3.8,0,0,0-2.11.5,2.76,2.76,0,0,0-1.08,1.56,27.83,27.83,0,0,0-1,4.13,19.26,19.26,0,0,1-2.92.45,8.25,8.25,0,0,0-2-4.75,5.77,5.77,0,0,0-4.49-1.93A7.45,7.45,0,0,0,99.68,33a8.41,8.41,0,0,0-2.93,3.41,11.17,11.17,0,0,0-1.06,5,9.15,9.15,0,0,0,.1,1.38,16.68,16.68,0,0,1-1.46,1.33,4.32,4.32,0,0,1-2.78.95,3,3,0,0,1-2.84-1.54c-.6-1-.9-2.81-.9-5.35,0-.68,0-1.64.07-2.86h4.47q4.16,0,4.15-2.53a1.33,1.33,0,0,0-.26-.95,1.2,1.2,0,0,0-.84-.26H91.29a12.83,12.83,0,0,0,4.76-9.89,6.11,6.11,0,0,0-.88-3.41,2.78,2.78,0,0,0-2.42-1.38,5.29,5.29,0,0,0-3.9,2,16.54,16.54,0,0,0-3.1,5.31,35.35,35.35,0,0,0-1.91,7.37H81.76c-1.1,0-1.65.68-1.65,2.05a1.85,1.85,0,0,0,.38,1.28,2.06,2.06,0,0,0,1.49.41h1.43c-.08,1.09-.11,2.18-.11,3.26,0,.77,0,1.49.09,2.18a1.41,1.41,0,0,0-.79.49,13.25,13.25,0,0,1-3.43,3,6.56,6.56,0,0,1-3.24,1q-3.71,0-3.7-4.26a8.75,8.75,0,0,1,.44-2.82,5.17,5.17,0,0,1,1.17-2,2.2,2.2,0,0,1,1.58-.75.87.87,0,0,1,.68.25,1.1,1.1,0,0,1,.24.74,3.27,3.27,0,0,1-.18,1c0,.1-.06.26-.11.48a2.87,2.87,0,0,0-.07.58,1.09,1.09,0,0,0,.42.92,1.72,1.72,0,0,0,1.12.33,2,2,0,0,0,1.77-1.06A4.69,4.69,0,0,0,80,36,4.34,4.34,0,0,0,78.86,33a4.11,4.11,0,0,0-3.14-1.19A7.11,7.11,0,0,0,71.8,33a8.93,8.93,0,0,0-3,3.45,9.88,9.88,0,0,0-.68,1.65,18.77,18.77,0,0,1-2.37.33,8.26,8.26,0,0,0-1.83-4.56,5.51,5.51,0,0,0-4-2,23.64,23.64,0,0,0,3.77-6.23,16.71,16.71,0,0,0,1.14-6,6.31,6.31,0,0,0-1-3.76,3.17,3.17,0,0,0-2.72-1.45q-3.12,0-5.38,3.9a32.28,32.28,0,0,0-3.42,9.46A50.14,50.14,0,0,0,51.07,38a26.81,26.81,0,0,0,.25,3.69A27.68,27.68,0,0,1,49.1,44.1a2.78,2.78,0,0,1-1.68.9.91.91,0,0,1-.72-.33,1.32,1.32,0,0,1-.27-.88,35.65,35.65,0,0,1,.84-5.86,27.22,27.22,0,0,0,.55-3.67c0-.86-.6-1.28-1.8-1.28a8.68,8.68,0,0,0-1.61.14A2.48,2.48,0,0,0,44,32a1.43,1.43,0,0,0-1.08-.32,8.08,8.08,0,0,0-4.78,1.6,11.46,11.46,0,0,0-3.61,4.21,12.57,12.57,0,0,0-.54,1.18h0a22.31,22.31,0,0,1-3.27.27,6.62,6.62,0,0,1-.77,0c-.68,0-1.27-.07-1.75-.07a1.37,1.37,0,0,0-.92.55,5,5,0,0,0-.86,1.28A2.37,2.37,0,0,0,26,41.88c.43,2,.79,3.86,1,5.64a38,38,0,0,1,.38,5.54c0,2.54-.36,3.81-1.1,3.81-.39,0-.67-1.33-.84-4s-.26-5.23-.26-7.75q0-3.16.36-6.3Q35.91,28.69,35.9,20.07a7.76,7.76,0,0,0-1-4.14,3,3,0,0,0-2.7-1.54q-3.18,0-5.84,4.75a42.42,42.42,0,0,0-4.18,12A69.27,69.27,0,0,0,20.69,45.4,42.65,42.65,0,0,0,21.8,56.69q1.13,3.75,3.76,3.74a3.82,3.82,0,0,0,3.37-2.09,11.59,11.59,0,0,0,1.29-6,43.67,43.67,0,0,0-.32-4.57c-.2-1.84-.47-3.52-.78-5a13.49,13.49,0,0,0,2.53.33,10.13,10.13,0,0,0,1.46-.09v.13a6.64,6.64,0,0,0,1.36,4.33A4.47,4.47,0,0,0,38.1,49Q41,49,42.9,46a5.1,5.1,0,0,0,1.52,2.25,3.42,3.42,0,0,0,2.22.82,5.39,5.39,0,0,0,3.26-1.28,17.76,17.76,0,0,0,2.46-2.29,6.72,6.72,0,0,0,.4.75A5.8,5.8,0,0,0,58.15,49a6.5,6.5,0,0,0,4.49-1.87,9.44,9.44,0,0,0,2.76-4.91A19.44,19.44,0,0,0,67.57,42a7.2,7.2,0,0,0,2,5,7.49,7.49,0,0,0,5.6,2,10.69,10.69,0,0,0,4.63-1.16,11.88,11.88,0,0,0,4.13-3.28,2.75,2.75,0,0,0,.19-.28A6.49,6.49,0,0,0,90.78,49a7.62,7.62,0,0,0,4.29-1.25,14.76,14.76,0,0,0,2-1.62A6.33,6.33,0,0,0,102.62,49a6.78,6.78,0,0,0,4.65-1.85A9.11,9.11,0,0,0,110,42.26a18.19,18.19,0,0,0,2.84-.34c0,.32,0,.64,0,1a14,14,0,0,0,.57,4.69,2,2,0,0,0,2,1.47,2.08,2.08,0,0,0,1.67-.61,5.57,5.57,0,0,0,.94-2.32,25.69,25.69,0,0,1,1.43-4.26,17.07,17.07,0,0,1,1.77-3.25c.6-.82,1.08-1.23,1.45-1.23s.4.19.4.58c0,.17,0,.5-.07,1a5.13,5.13,0,0,0-.11,1.1,3.55,3.55,0,0,0,1,2.68,4,4,0,0,0,3,1,5.75,5.75,0,0,0,2.64-.61v.61a6.45,6.45,0,0,0,1.06,3.8A3.19,3.19,0,0,0,133.2,49,3.86,3.86,0,0,0,136,47.65a9.37,9.37,0,0,0,2-4c-.22,1.69-.42,3-.59,3.89l-.11.84a48.87,48.87,0,0,0-6.07,5.33,16.12,16.12,0,0,0-2.93,4.13,8.86,8.86,0,0,0-.79,3.52,4,4,0,0,0,1.18,3,4.13,4.13,0,0,0,3,1.15q4,0,6.34-5.49a59.93,59.93,0,0,0,3.74-14.92q.15-1,1-6.13c.64-3.59.95-5.68.95-6.27A.84.84,0,0,0,143.45,32Zm-54.2-6.43a19.44,19.44,0,0,1,1.28-3.81q.68-1.38,1.23-1.38c.53,0,.8.72.8,2.17a10.17,10.17,0,0,1-1.08,4.23A12.45,12.45,0,0,1,88.24,31a52,52,0,0,1,1-5.41Zm-61.34.62a40.81,40.81,0,0,1,1.93-5.92C30.49,18.76,31,18,31.47,18c.61,0,.91.74.91,2.23A17.43,17.43,0,0,1,30.77,27,26.46,26.46,0,0,1,26.26,34Q26.95,29.87,27.91,26.17ZM42,41.85A6.2,6.2,0,0,1,41,44.38a2,2,0,0,1-1.54.95,1.58,1.58,0,0,1-1.27-.55,2.64,2.64,0,0,1-.45-1.69,10,10,0,0,1,.77-3.88,7.68,7.68,0,0,1,2.07-3,4.48,4.48,0,0,1,2.84-1.16ZM57,26.12a34.56,34.56,0,0,1,1.6-5.92c.57-1.45,1.1-2.18,1.59-2.18.32,0,.57.21.75.62a4.52,4.52,0,0,1,.28,1.8,15.64,15.64,0,0,1-1.45,6c-1,2.27-2.25,4.87-3.86,7.83A74.73,74.73,0,0,1,57,26.12Zm3.3,18.07a2.67,2.67,0,0,1-2,1A2.26,2.26,0,0,1,56.45,44a5.4,5.4,0,0,1-.79-3.19,6.93,6.93,0,0,1,1-4,3,3,0,0,1,2.51-1.48h.1a8.21,8.21,0,0,0-.15,1.39,5.93,5.93,0,0,0,.6,2.63,5,5,0,0,0,1.75,2,5.11,5.11,0,0,1-1.17,2.76Zm44.63,0a2.65,2.65,0,0,1-2,1,2.26,2.26,0,0,1-1.85-1.06,5.1,5.1,0,0,1-.79-3.08,7,7,0,0,1,1-4,2.85,2.85,0,0,1,2.44-1.4h.17a6.53,6.53,0,0,0-.11,1.17,6,6,0,0,0,.61,2.63,5.08,5.08,0,0,0,1.74,2,5.17,5.17,0,0,1-1.15,2.75Zm29.27,15.65c-.76,1.42-1.44,2.13-2.05,2.13a.86.86,0,0,1-.79-.4,2,2,0,0,1-.24-1,6.56,6.56,0,0,1,1.27-3.43,20.73,20.73,0,0,1,4.08-4.34,30.43,30.43,0,0,1-2.27,7.06Z"/></g></g></svg>