<svg id="Livello_1" data-name="Livello 1" xmlns="http://www.w3.org/2000/svg" viewBox="0 0 159 88"><defs><style>.cls-1{fill:#fff;stroke-width:1.55px;}.cls-1,.cls-5{stroke:#000;stroke-miterlimit:10;}.cls-2{opacity:0.8;}.cls-3{opacity:0.7;}.cls-4{opacity:0.9;}.cls-5{fill:none;stroke-width:1.5px;}</style></defs><title>icon_feather</title><path class="cls-1" d="M135.39,17.06H15.8A10.07,10.07,0,0,0,5.63,27V67.51A10.07,10.07,0,0,0,15.8,77.44H135.39a10.07,10.07,0,0,0,10.17-9.93V27A10.07,10.07,0,0,0,135.39,17.06Z"/><path d="M135.39,15.72H15.8A11.43,11.43,0,0,0,4.25,27V67.51A11.43,11.43,0,0,0,15.8,78.78H135.39a11.43,11.43,0,0,0,11.55-11.27V27A11.43,11.43,0,0,0,135.39,15.72Zm10.17,51.79a10.07,10.07,0,0,1-10.17,9.93H15.8A10.07,10.07,0,0,1,5.63,67.51V27A10.07,10.07,0,0,1,15.8,17.06H135.39A10.07,10.07,0,0,1,145.56,27Z"/><g class="cls-2"><ellipse cx="24.28" cy="66.93" rx="2.39" ry="2.33"/><ellipse cx="31.12" cy="66.93" rx="2.39" ry="2.33"/><ellipse cx="37.96" cy="66.93" rx="2.39" ry="2.33"/><ellipse cx="44.8" cy="66.93" rx="2.39" ry="2.33"/><ellipse cx="51.65" cy="66.93" rx="2.39" ry="2.33"/><ellipse cx="65.33" cy="66.93" rx="2.39" ry="2.33"/><ellipse cx="72.17" cy="66.93" rx="2.39" ry="2.33"/><ellipse cx="79.02" cy="66.93" rx="2.39" ry="2.33"/><ellipse cx="85.86" cy="66.93" rx="2.39" ry="2.33"/><ellipse cx="92.7" cy="66.93" rx="2.39" ry="2.33"/><ellipse cx="99.54" cy="66.93" rx="2.39" ry="2.33"/><ellipse cx="106.39" cy="66.93" rx="2.39" ry="2.33"/><ellipse cx="113.23" cy="66.93" rx="2.39" ry="2.33"/><ellipse cx="24.28" cy="73.43" rx="2.39" ry="2.33"/><ellipse cx="31.12" cy="73.43" rx="2.39" ry="2.33"/><ellipse cx="37.96" cy="73.43" rx="2.39" ry="2.33"/><ellipse cx="44.8" cy="73.43" rx="2.39" ry="2.33"/><ellipse cx="51.65" cy="73.43" rx="2.39" ry="2.33"/><ellipse cx="65.33" cy="73.43" rx="2.39" ry="2.33"/><ellipse cx="58.49" cy="66.93" rx="2.39" ry="2.33"/><ellipse cx="58.49" cy="73.43" rx="2.39" ry="2.33"/><ellipse cx="72.17" cy="73.43" rx="2.39" ry="2.33"/><ellipse cx="79.02" cy="73.43" rx="2.39" ry="2.33"/><ellipse cx="85.86" cy="73.43" rx="2.39" ry="2.33"/><ellipse cx="92.7" cy="73.43" rx="2.39" ry="2.33"/><ellipse cx="99.54" cy="73.43" rx="2.39" ry="2.33"/><ellipse cx="106.39" cy="73.43" rx="2.39" ry="2.33"/><ellipse cx="113.23" cy="73.43" rx="2.39" ry="2.33"/><ellipse cx="24.28" cy="21.55" rx="2.39" ry="2.33"/><ellipse cx="31.12" cy="21.55" rx="2.39" ry="2.33"/><ellipse cx="37.96" cy="21.55" rx="2.39" ry="2.33"/><ellipse cx="44.8" cy="21.55" rx="2.39" ry="2.33"/><ellipse cx="51.65" cy="21.55" rx="2.39" ry="2.33"/><ellipse cx="58.49" cy="21.55" rx="2.39" ry="2.33"/><ellipse cx="65.33" cy="21.55" rx="2.39" ry="2.33"/><ellipse cx="72.17" cy="21.55" rx="2.39" ry="2.33"/><ellipse cx="79.02" cy="21.55" rx="2.39" ry="2.33"/><ellipse cx="85.86" cy="21.55" rx="2.39" ry="2.33"/><ellipse cx="92.7" cy="21.55" rx="2.39" ry="2.33"/><ellipse cx="99.54" cy="21.55" rx="2.39" ry="2.33"/><ellipse cx="106.39" cy="21.55" rx="2.39" ry="2.33"/><ellipse cx="113.23" cy="21.55" rx="2.39" ry="2.33"/><ellipse cx="120.07" cy="21.55" rx="2.39" ry="2.33"/><ellipse cx="126.92" cy="21.55" rx="2.39" ry="2.33"/><ellipse cx="24.28" cy="28.05" rx="2.39" ry="2.33"/><ellipse cx="31.12" cy="28.05" rx="2.39" ry="2.33"/><ellipse cx="37.96" cy="28.05" rx="2.39" ry="2.33"/><ellipse cx="44.8" cy="28.05" rx="2.39" ry="2.33"/><ellipse cx="51.65" cy="28.05" rx="2.39" ry="2.33"/><ellipse cx="65.33" cy="28.05" rx="2.39" ry="2.33"/><ellipse cx="72.17" cy="28.05" rx="2.39" ry="2.33"/><ellipse cx="79.02" cy="28.05" rx="2.39" ry="2.33"/><ellipse cx="85.86" cy="28.05" rx="2.39" ry="2.33"/><ellipse cx="92.7" cy="28.05" rx="2.39" ry="2.33"/><ellipse cx="99.54" cy="28.05" rx="2.39" ry="2.33"/><ellipse cx="106.39" cy="28.05" rx="2.39" ry="2.33"/><ellipse cx="113.23" cy="28.05" rx="2.39" ry="2.33"/><ellipse cx="120.07" cy="28.05" rx="2.39" ry="2.33"/><ellipse cx="126.92" cy="28.05" rx="2.39" ry="2.33"/><ellipse cx="58.49" cy="28.05" rx="2.39" ry="2.33"/></g><rect class="cls-3" x="71.61" y="33.48" width="8.73" height="8.53" rx="0.31"/><rect class="cls-3" x="117.69" y="65.13" width="12.28" height="10.63" rx="0.27"/><rect class="cls-3" x="134.35" y="40.83" width="11.21" height="13.78" rx="0.18"/><rect class="cls-3" x="24.28" y="33.89" width="27.37" height="26.72" rx="0.37"/><g class="cls-4"><rect class="cls-3" x="110.84" y="33.46" width="6.14" height="7.32" rx="0.2"/></g><rect x="139.96" y="42.6" width="3.59" height="1.11" rx="0.05"/><rect x="139.96" y="51.73" width="3.59" height="1.11" rx="0.05"/><rect x="123.8" y="67" width="6.14" height="1.32" rx="0.05" transform="translate(194.53 -59.2) rotate(90)"/><rect x="117.72" y="67" width="6.14" height="1.32" rx="0.05" transform="translate(188.45 -53.13) rotate(90)"/><ellipse cx="48.92" cy="57.89" rx="1.55" ry="1.51"/><ellipse class="cls-5" cx="14.28" cy="23.87" rx="3.88" ry="3.78"/><ellipse class="cls-5" cx="14.28" cy="70.63" rx="3.88" ry="3.78"/><ellipse class="cls-5" cx="136.91" cy="23.87" rx="3.88" ry="3.78"/><ellipse class="cls-5" cx="136.91" cy="70.63" rx="3.88" ry="3.78"/></svg>