<svg id="Livello_1" data-name="Livello 1" xmlns="http://www.w3.org/2000/svg" viewBox="0 0 103 108"><defs><style>.cls-1{fill:#fff;stroke:#1d1d1b;stroke-miterlimit:10;stroke-width:4.56px;}.cls-2{fill:#1d1d1b;}</style></defs><title>icon_ages</title><rect class="cls-1" x="9.33" y="10.13" width="83.67" height="83.67" rx="16.32"/><path class="cls-2" d="M48.36,40.22a8.56,8.56,0,0,1,2.5,6.51,9.34,9.34,0,0,1-1.26,4.93,8.4,8.4,0,0,1-3.49,3.21A11.27,11.27,0,0,1,41,56a13.29,13.29,0,0,1-7.69-2.25l1.2-4.64a16.44,16.44,0,0,0,3.13,1.54,9.73,9.73,0,0,0,3.28.54A5.23,5.23,0,0,0,44.55,50a4.61,4.61,0,0,0-.2-6.69A6.83,6.83,0,0,0,40,42a28.78,28.78,0,0,0-5.25.57l1.81-15.19H49.74l-.32,5H40.36L39.68,38a16.94,16.94,0,0,1,2.09-.12A9.16,9.16,0,0,1,48.36,40.22Z"/><path class="cls-2" d="M59.84,46.25H54.47V42.49h5.37V37.12h4.08v5.37h5.37v3.76H63.92v5.37H59.84Z"/><path class="cls-2" d="M33.7,73.75a2.79,2.79,0,0,1-.81-2.11,2.52,2.52,0,0,1,.91-2A5.33,5.33,0,0,1,36,68.54a10.18,10.18,0,0,1,2.37-.36A1.71,1.71,0,0,0,37.89,67a1.93,1.93,0,0,0-1.31-.37,4.38,4.38,0,0,0-1.24.18,8,8,0,0,0-1.4.56l-.21-2a8,8,0,0,1,3.51-.85,3.48,3.48,0,0,1,2.6.92,4.14,4.14,0,0,1,.9,3V71a5.19,5.19,0,0,0,.07,1,.56.56,0,0,0,.23.41,1.24,1.24,0,0,0,.55.08h.31l-.21,2h-.87a2.74,2.74,0,0,1-1.34-.3,2.14,2.14,0,0,1-.83-.83,3.12,3.12,0,0,1-1.26.83,4.81,4.81,0,0,1-1.69.3A2.75,2.75,0,0,1,33.7,73.75Zm3.83-1.23a2.62,2.62,0,0,0,.81-.52V69.8a5.19,5.19,0,0,0-2,.5,1.36,1.36,0,0,0-.89,1.24,1.12,1.12,0,0,0,.31.88,1.4,1.4,0,0,0,1,.28A2.31,2.31,0,0,0,37.53,72.52Z"/><path class="cls-2" d="M43.79,78.47a2.27,2.27,0,0,1-1.21-2,2.6,2.6,0,0,1,1.56-2.28,1.56,1.56,0,0,1-.85-1.37,1.34,1.34,0,0,1,.26-.8,1.93,1.93,0,0,1,.71-.56,3.36,3.36,0,0,1-1.12-1.33,4.17,4.17,0,0,1-.37-1.78,4.08,4.08,0,0,1,.46-1.94A3.41,3.41,0,0,1,44.58,65a4.2,4.2,0,0,1,2.11-.51,3.81,3.81,0,0,1,2.2.62,3.45,3.45,0,0,1,.88-.3A5,5,0,0,1,51,64.68h.62l-.16,1.51h-.87l-.54,0a3.76,3.76,0,0,1,.58,2.12,4.17,4.17,0,0,1-.45,1.94,3.4,3.4,0,0,1-1.34,1.4,4.2,4.2,0,0,1-2.11.51,4.51,4.51,0,0,1-1-.14.33.33,0,0,0-.22.31.45.45,0,0,0,.3.4,4.23,4.23,0,0,0,1,.24l1.66.21q3.32.45,3.32,2.8a2.71,2.71,0,0,1-1.24,2.34,6,6,0,0,1-3.45.87A6.28,6.28,0,0,1,43.79,78.47Zm5.84-2.29a.86.86,0,0,0-.43-.8A3.82,3.82,0,0,0,47.79,75l-2.12-.31c-.74.3-1.1.75-1.1,1.35a1.12,1.12,0,0,0,.67,1,4.3,4.3,0,0,0,1.91.34C48.8,77.39,49.63,77,49.63,76.18ZM48,69.85a2.33,2.33,0,0,0,.45-1.52A2.3,2.3,0,0,0,48,66.82a1.59,1.59,0,0,0-1.29-.55,1.57,1.57,0,0,0-1.3.55,2.25,2.25,0,0,0-.46,1.51,2.28,2.28,0,0,0,.46,1.52,1.57,1.57,0,0,0,1.3.55A1.59,1.59,0,0,0,48,69.85Z"/><path class="cls-2" d="M54.62,73.85A4.5,4.5,0,0,1,52.84,72a5.55,5.55,0,0,1-.59-2.56A5.38,5.38,0,0,1,52.82,67a4.37,4.37,0,0,1,1.62-1.79A4.7,4.7,0,0,1,57,64.53a4.34,4.34,0,0,1,2.29.56,3.64,3.64,0,0,1,1.41,1.5,4.79,4.79,0,0,1,.47,2.13A6.58,6.58,0,0,1,61,70H54.75a2.85,2.85,0,0,0,1,1.91,3.07,3.07,0,0,0,2,.62,5.55,5.55,0,0,0,2.9-.79l.12,2a6.08,6.08,0,0,1-1.44.53,7.26,7.26,0,0,1-1.79.21A5.62,5.62,0,0,1,54.62,73.85Zm4.09-5.44a2.14,2.14,0,0,0-.43-1.33A1.5,1.5,0,0,0,57,66.5a2,2,0,0,0-1.43.52,2.63,2.63,0,0,0-.73,1.39Z"/><path class="cls-2" d="M63.84,74.36a7.58,7.58,0,0,1-1.58-.54l.22-2A8.25,8.25,0,0,0,64,72.5a4.51,4.51,0,0,0,1.46.24c1,0,1.47-.32,1.47-1a.93.93,0,0,0-.39-.8,6.41,6.41,0,0,0-1.39-.67A5.8,5.8,0,0,1,63,69.12a2.41,2.41,0,0,1-.68-1.81,2.48,2.48,0,0,1,1-2,4,4,0,0,1,2.6-.78,6.07,6.07,0,0,1,3,.75l-.21,2.05a7.86,7.86,0,0,0-1.39-.77A3.47,3.47,0,0,0,66,66.25a1.54,1.54,0,0,0-1,.25.82.82,0,0,0-.34.71.89.89,0,0,0,.2.6,2,2,0,0,0,.57.42c.25.12.65.29,1.22.51a5.67,5.67,0,0,1,2,1.19,2.39,2.39,0,0,1,.62,1.73,2.51,2.51,0,0,1-1,2.12,4.55,4.55,0,0,1-2.8.76A7.36,7.36,0,0,1,63.84,74.36Z"/></svg>