<svg id="Livello_1" data-name="Livello 1" xmlns="http://www.w3.org/2000/svg" viewBox="0 0 219.21 219.21"><defs><style>.cls-1{fill:#fff;}.cls-2,.cls-6{stroke:#000;stroke-miterlimit:10;}.cls-2{stroke-width:0.39px;}.cls-3,.cls-5{opacity:0.8;}.cls-4,.cls-6{fill:none;}.cls-6{stroke-width:2.01px;}</style></defs><title>icon_scanning</title><path class="cls-1" d="M68.23,99.07l-3.82-10.4L59,91.11h0L43.25,98.17l9.59,9.88a.59.59,0,0,0,.72.13l14.33-8A1,1,0,0,0,68.23,99.07Z"/><polygon class="cls-1" points="46.48 136.22 72.07 136.22 72.07 132.54 70.72 132.54 70.73 132.58 70.73 132.64 47.92 132.64 47.93 132.58 47.93 132.54 46.48 132.54 46.48 136.22"/><path class="cls-1" d="M58.9,84.46a17.71,17.71,0,0,1,2.23-2.27l.66-.61L60.1,77a.77.77,0,0,0-.44-.49.56.56,0,0,0-.21,0,.57.57,0,0,0-.24,0L40,85.81a4.52,4.52,0,0,0-2.42,3.38,5.16,5.16,0,0,0,1.31,4.48l3.06,3.15h0l15.8-7.09C57.74,88,57.78,85.93,58.9,84.46Z"/><path class="cls-1" d="M64.54,124.77a7.28,7.28,0,0,0-.56-.52c-2-1.79-2.93-4.45-6-4.79-.58-.06-2.43-.12-2.85.46s-.89,1.15-1.33,1.68a14.23,14.23,0,0,0-2.22,3.19,20.74,20.74,0,0,0-1.77,6H68.71A17,17,0,0,0,64.54,124.77Z"/><path class="cls-1" d="M68.51,101.9l-11.77,6.54a3.31,3.31,0,0,0,1.89.59.89.89,0,0,1,0,1.77,5,5,0,0,1-3.54-1.45l-.53.29c1.15.84,2.33,1.88,2.38,3.47a14.43,14.43,0,0,1-.71,4.69,7.49,7.49,0,0,1,6.2,1.8c.13-.58.29-1.16.44-1.68.1-.36.19-.7.25-1,.45-1.92,1.47-1.94,2.66-1.78l.75.08.35,0c1.11.08,4.08.3,4.55-.6a5.69,5.69,0,0,0,.17-2.3c0-.43,0-.84,0-1.22s0-.34,1.15-1.59l.53-.6-.45-.25C71.14,107.84,69.24,103.63,68.51,101.9Z"/><path class="cls-1" d="M60.3,85.53a5.94,5.94,0,0,0-.78,3.4L63.79,87l-1.34-3.64-.14.13A16.7,16.7,0,0,0,60.3,85.53Z"/><polygon class="cls-1" points="47.92 132.64 70.73 132.64 70.73 132.58 47.93 132.58 47.92 132.64"/><polygon class="cls-1" points="70.73 132.58 70.72 132.54 47.93 132.54 47.93 132.58 70.73 132.58"/><path class="cls-2" d="M73.63,107.16c-1.45-.77-2.15-2.58-2.75-4a11.64,11.64,0,0,1-1-2.39c-.1-.8.29-1.47,0-2.31Q66.43,89.06,63,79.65l-1.2-3.28a2.6,2.6,0,0,0-1.44-1.52,2.29,2.29,0,0,0-1.88.07l-19.22,9.3a6.27,6.27,0,0,0-3.39,4.66,6.93,6.93,0,0,0,1.78,6l.19.19q3.56,3.66,7.12,7.33,2.14,2.22,4.3,4.43a35.35,35.35,0,0,0,4.12,4.09c.72.53,1.8,1.21,1.83,2.23a10.92,10.92,0,0,1-1.32,5.56c-.44.61-.91,1.18-1.38,1.73A16.25,16.25,0,0,0,50,124a22.5,22.5,0,0,0-1.94,6.72h1.77a20.74,20.74,0,0,1,1.77-6,14.23,14.23,0,0,1,2.22-3.19c.44-.53.89-1.08,1.33-1.68s2.27-.52,2.85-.46c3,.34,3.94,3,6,4.79a7.28,7.28,0,0,1,.56.52,17,17,0,0,1,4.17,6h1.84c-.79-2.89-2.92-5.36-4.75-7.23-.2-.21-.43-.41-.65-.61-.56-.49-1.1-1-1.16-1.48a10.76,10.76,0,0,1,.57-3c.11-.38.21-.74.28-1.05a2,2,0,0,1,.17-.49,4.41,4.41,0,0,1,.54.06c.25,0,.52.07.86.09l.33,0c2,.14,5.25.39,6.25-1.54a6.5,6.5,0,0,0,.37-3.21c0-.27,0-.53,0-.76l1.56-1.75a1.06,1.06,0,0,0,.4-.81C75.31,108.16,74.46,107.6,73.63,107.16ZM62.45,83.37,63.79,87l-4.27,1.92a5.94,5.94,0,0,1,.78-3.4,16.7,16.7,0,0,1,2-2ZM41.94,96.82l-3.06-3.15a5.16,5.16,0,0,1-1.31-4.48A4.52,4.52,0,0,1,40,85.81L59.21,76.5a.57.57,0,0,1,.24,0,.56.56,0,0,1,.21,0,.77.77,0,0,1,.44.49l1.69,4.6-.66.61a17.71,17.71,0,0,0-2.23,2.27c-1.12,1.47-1.16,3.55-1.15,5.27L42,96.82Zm11.62,11.36a.59.59,0,0,1-.72-.13l-9.59-9.88L59,91.11h0l5.43-2.44,3.82,10.4a1,1,0,0,1-.34,1.16Zm19.16,1.39c-1.12,1.25-1.15,1.28-1.15,1.59s0,.79,0,1.22a5.69,5.69,0,0,1-.17,2.3c-.47.9-3.44.68-4.55.6l-.35,0-.75-.08c-1.19-.16-2.21-.14-2.66,1.78-.06.27-.15.61-.25,1-.15.52-.31,1.1-.44,1.68a7.49,7.49,0,0,0-6.2-1.8,14.43,14.43,0,0,0,.71-4.69c0-1.59-1.23-2.63-2.38-3.47l.53-.29a5,5,0,0,0,3.54,1.45.89.89,0,0,0,0-1.77,3.31,3.31,0,0,1-1.89-.59l11.77-6.54c.73,1.73,2.63,5.94,4.29,6.82l.45.25Z"/><path class="cls-2" d="M70.72,132.54h1.35v3.68H46.48v-3.68h1.45L48,131l0-.19H46.19a1.49,1.49,0,0,0-1.49,1.49v4.26A1.49,1.49,0,0,0,46.19,138H72.37a1.49,1.49,0,0,0,1.48-1.49v-4.26a1.49,1.49,0,0,0-1.48-1.49H70.55a1.06,1.06,0,0,0,.06.19Z"/><path class="cls-2" d="M49.84,130.76H48.07l0,.19-.11,1.59H70.72L70.61,131a1.06,1.06,0,0,1-.06-.19H49.84Z"/><path class="cls-1" d="M151.37,65.18H121.86a8.52,8.52,0,0,0-8.51,8.52v58.9a8.52,8.52,0,0,0,8.51,8.51h20.68v0c-1.43-2.12-3.12-4.21-4.76-6.23l-.12-.15a6.79,6.79,0,0,1-2.86,1,6.06,6.06,0,0,1-.85,0,6.91,6.91,0,0,1-4.4-12.24,8.42,8.42,0,0,1-.36-1.81,6.11,6.11,0,0,1,3.25-5.66,7,7,0,0,1,3.52-1,6.17,6.17,0,0,1,3.52,1.08l.08,0,20,15.76.33-20V73.7a8.52,8.52,0,0,0-8.51-8.52"/><g class="cls-3"><path d="M100.17,114.43a1.06,1.06,0,0,0,.77-.32l.37-.37a1.11,1.11,0,0,0,.06-1.5,12.21,12.21,0,0,1-.1-15.82,1.11,1.11,0,0,0-.06-1.49l-.37-.37a1.14,1.14,0,0,0-.78-.32h0a1.1,1.1,0,0,0-.79.39,14.94,14.94,0,0,0,.11,19.42,1.11,1.11,0,0,0,.79.38h0"/><path d="M95.34,119.25a1.1,1.1,0,0,0,.79-.32l.36-.37a1.09,1.09,0,0,0,0-1.51,19,19,0,0,1-.1-25.43,1.1,1.1,0,0,0-.05-1.51L96,89.74a1.1,1.1,0,0,0-.78-.32h0a1.12,1.12,0,0,0-.8.37,21.73,21.73,0,0,0,.12,29.1,1,1,0,0,0,.79.36h0"/></g><path class="cls-4" d="M151.37,65.19H121.86a8.52,8.52,0,0,0-8.51,8.51V87.85h46.53V73.7A8.52,8.52,0,0,0,151.37,65.19Z"/><path class="cls-1" d="M140.64,155.64c-.45,0-.94-.08-1.46-.13-1.26-.15-3-.34-3.77,0a2.48,2.48,0,0,0-1.28,1.93,4.44,4.44,0,0,0,1,3.64c.8.78,2.39.74,3.55.71a27.76,27.76,0,0,1,5,.62c1.14.2,2.32.42,3.18.49a43.39,43.39,0,0,1-1.2-6.24A10.82,10.82,0,0,0,140.64,155.64Z"/><path class="cls-1" d="M133.72,129.88a30.66,30.66,0,0,1-3-3.78,4.23,4.23,0,0,0,3.71,7,4.08,4.08,0,0,0,1.49-.48c-.23-.28-.46-.57-.68-.86C134.82,131.15,134.28,130.53,133.72,129.88Z"/><path class="cls-1" d="M128.6,149.28a4.22,4.22,0,0,0,.91,3.94c.69.67,3.2.51,3.88.32a1,1,0,0,1,.33-.09,4.68,4.68,0,0,1,.54-.3c1.48-.71,3.47-.48,5.22-.29.48.06.94.11,1.31.13a15.21,15.21,0,0,1,4,.54l-1-8.28-2.31.11C136.73,145.54,129.55,145.82,128.6,149.28Z"/><path class="cls-1" d="M145.63,141.11a18.63,18.63,0,0,1,1.17,2.67,19.37,19.37,0,0,1,1.06,6.05c.1,7.64,1.27,13.26,3.92,18.79.29.6.57,1.3.86,2,.75,1.9,1.67,4.21,3,5.24L180.48,167c.67-2.65.24-6.24-.1-9.16-.14-1.21-.28-2.35-.33-3.33q-.23-4.2-.48-8.39c-.31-5.27-.63-10.72-.83-16.09-.16-4.33-4-7.47-7.79-10.51-1.07-.86-2.17-1.76-3.15-2.66a1.17,1.17,0,0,1-.36-.54,23.18,23.18,0,0,0-4.83-8.46l-.06,3.55-.39,23.33a1.33,1.33,0,0,1-2.15,1l-.58-.45-21.49-16.94a3.5,3.5,0,0,0-2-.59,4.56,4.56,0,0,0-2.22.61,3.43,3.43,0,0,0-1.91,3.17c.16,2.31,2,4.49,3.88,6.59.59.68,1.15,1.32,1.66,2,.79,1,1.64,2.07,2.46,3.08,1.67,2.06,3.4,4.19,4.9,6.42C145.06,140.1,145.36,140.6,145.63,141.11Z"/><path class="cls-5" d="M113.35,73.7a8.52,8.52,0,0,1,8.51-8.51h29.51a8.52,8.52,0,0,1,8.51,8.51V87.85h2.67V73.7a11.19,11.19,0,0,0-11.18-11.18H121.86A11.19,11.19,0,0,0,110.68,73.7V87.85h2.67Z"/><path class="cls-1" d="M121.86,143.78h10c-2.83.79-5.11,2.19-5.82,4.8a6.9,6.9,0,0,0,1.62,6.55,5.75,5.75,0,0,0,4,1.23h0a7.1,7.1,0,0,0,1.63,6.66c1.61,1.57,3.94,1.51,5.48,1.47a26.77,26.77,0,0,1,4.41.58,33.42,33.42,0,0,0,3.85.55h.06a1.32,1.32,0,0,0,.53-.11,42,42,0,0,0,1.76,4.26c.25.52.51,1.18.79,1.87,1,2.52,2.24,5.66,4.68,6.91a1.31,1.31,0,0,0,.61.15,1.38,1.38,0,0,0,.45-.08l26.1-9.36a1.34,1.34,0,0,0,.81-.82c1.11-3.26.6-7.51.2-10.93-.14-1.16-.27-2.25-.32-3.16-.14-2.8-.31-5.6-.47-8.4-.32-5.26-.64-10.69-.83-16-.21-5.54-4.76-9.22-8.77-12.47-1-.81-1.94-1.57-2.79-2.34-2.47-6.88-5.92-9.88-7.29-10.85V87.85h-2.67V112l-.33,20-20-15.76-.08,0a6.55,6.55,0,0,0-7-.11,6.11,6.11,0,0,0-3.25,5.66,8.42,8.42,0,0,0,.36,1.81,6.91,6.91,0,0,0,5.25,12.19,6.79,6.79,0,0,0,2.86-1l.12.15c1.64,2,3.33,4.1,4.76,6.23v0H121.86a8.52,8.52,0,0,1-8.51-8.51V87.85h-2.67V132.6A11.19,11.19,0,0,0,121.86,143.78Zm21.79,18.67a27.76,27.76,0,0,0-5-.62c-1.16,0-2.75.07-3.55-.71a4.44,4.44,0,0,1-1-3.64,2.48,2.48,0,0,1,1.28-1.93c.79-.38,2.51-.19,3.77,0,.52.05,1,.11,1.46.13a10.82,10.82,0,0,1,5,1.06,43.39,43.39,0,0,0,1.2,6.24C146,162.87,144.79,162.65,143.65,162.45Zm-9.18-29.37a4.23,4.23,0,0,1-3.71-7,30.66,30.66,0,0,0,3,3.78c.56.65,1.1,1.27,1.56,1.86.22.29.45.58.68.86A4.08,4.08,0,0,1,134.47,133.08Zm5.37.11c-.82-1-1.67-2.05-2.46-3.08-.51-.65-1.07-1.29-1.66-2-1.83-2.1-3.72-4.28-3.88-6.59a3.43,3.43,0,0,1,1.91-3.17,4.56,4.56,0,0,1,2.22-.61,3.5,3.5,0,0,1,2,.59l21.49,16.94.58.45a1.33,1.33,0,0,0,2.15-1l.39-23.33.06-3.55a23.18,23.18,0,0,1,4.83,8.46,1.17,1.17,0,0,0,.36.54c1,.9,2.08,1.8,3.15,2.66,3.75,3,7.63,6.18,7.79,10.51.2,5.37.52,10.82.83,16.09q.26,4.19.48,8.39c0,1,.19,2.12.33,3.33.34,2.92.77,6.51.1,9.16l-24.86,8.91c-1.31-1-2.23-3.34-3-5.24-.29-.74-.57-1.44-.86-2-2.65-5.53-3.82-11.15-3.92-18.79a19.37,19.37,0,0,0-1.06-6.05,18.63,18.63,0,0,0-1.17-2.67c-.27-.51-.57-1-.89-1.5C143.24,137.38,141.51,135.25,139.84,133.19Zm4,12.06,1,8.28a15.21,15.21,0,0,0-4-.54c-.37,0-.83-.07-1.31-.13-1.75-.19-3.74-.42-5.22.29a4.68,4.68,0,0,0-.54.3,1,1,0,0,0-.33.09c-.68.19-3.19.35-3.88-.32a4.22,4.22,0,0,1-.91-3.94c1-3.46,8.13-3.74,12.89-3.92Z"/><path class="cls-5" d="M121.86,143.78h10c-2.83.79-5.11,2.19-5.82,4.8a6.9,6.9,0,0,0,1.62,6.55,5.75,5.75,0,0,0,4,1.23h0a7.1,7.1,0,0,0,1.63,6.66c1.61,1.57,3.94,1.51,5.48,1.47a26.77,26.77,0,0,1,4.41.58,33.42,33.42,0,0,0,3.85.55h.06a1.32,1.32,0,0,0,.53-.11,42,42,0,0,0,1.76,4.26c.25.52.51,1.18.79,1.87,1,2.52,2.24,5.66,4.68,6.91a1.31,1.31,0,0,0,.61.15,1.38,1.38,0,0,0,.45-.08l26.1-9.36a1.34,1.34,0,0,0,.81-.82c1.11-3.26.6-7.51.2-10.93-.14-1.16-.27-2.25-.32-3.16-.14-2.8-.31-5.6-.47-8.4-.32-5.26-.64-10.69-.83-16-.21-5.54-4.76-9.22-8.77-12.47-1-.81-1.94-1.57-2.79-2.34-2.47-6.88-5.92-9.88-7.29-10.85V87.85h-2.67V112l-.33,20-20-15.76-.08,0a6.55,6.55,0,0,0-7-.11,6.11,6.11,0,0,0-3.25,5.66,8.42,8.42,0,0,0,.36,1.81,6.91,6.91,0,0,0,5.25,12.19,6.79,6.79,0,0,0,2.86-1l.12.15c1.64,2,3.33,4.1,4.76,6.23v0H121.86a8.52,8.52,0,0,1-8.51-8.51V87.85h-2.67V132.6A11.19,11.19,0,0,0,121.86,143.78Zm21.79,18.67a27.76,27.76,0,0,0-5-.62c-1.16,0-2.75.07-3.55-.71a4.44,4.44,0,0,1-1-3.64,2.48,2.48,0,0,1,1.28-1.93c.79-.38,2.51-.19,3.77,0,.52.05,1,.11,1.46.13a10.82,10.82,0,0,1,5,1.06,43.39,43.39,0,0,0,1.2,6.24C146,162.87,144.79,162.65,143.65,162.45Zm-3.81-29.26c-.82-1-1.67-2.05-2.46-3.08-.51-.65-1.07-1.29-1.66-2-1.83-2.1-3.72-4.28-3.88-6.59a3.43,3.43,0,0,1,1.91-3.17,4.56,4.56,0,0,1,2.22-.61,3.5,3.5,0,0,1,2,.59l21.49,16.94.58.45a1.33,1.33,0,0,0,2.15-1l.39-23.33.06-3.55a23.18,23.18,0,0,1,4.83,8.46,1.17,1.17,0,0,0,.36.54c1,.9,2.08,1.8,3.15,2.66,3.75,3,7.63,6.18,7.79,10.51.2,5.37.52,10.82.83,16.09q.26,4.19.48,8.39c0,1,.19,2.12.33,3.33.34,2.92.77,6.51.1,9.16l-24.86,8.91c-1.31-1-2.23-3.34-3-5.24-.29-.74-.57-1.44-.86-2-2.65-5.53-3.82-11.15-3.92-18.79a19.37,19.37,0,0,0-1.06-6.05,18.63,18.63,0,0,0-1.17-2.67c-.27-.51-.57-1-.89-1.5C143.24,137.38,141.51,135.25,139.84,133.19Zm4,12.06,1,8.28a15.21,15.21,0,0,0-4-.54c-.37,0-.83-.07-1.31-.13-1.75-.19-3.74-.42-5.22.29a4.68,4.68,0,0,0-.54.3,1,1,0,0,0-.33.09c-.68.19-3.19.35-3.88-.32a4.22,4.22,0,0,1-.91-3.94c1-3.46,8.13-3.74,12.89-3.92Z"/><path class="cls-6" d="M126.53,97.05a9.2,9.2,0,1,0,9.2-9.2A9.2,9.2,0,0,0,126.53,97.05Z"/><path class="cls-1" d="M135.73,100.79A3.74,3.74,0,1,0,132,97.05,3.75,3.75,0,0,0,135.73,100.79Z"/><path class="cls-5" d="M135.73,100.79A3.74,3.74,0,1,0,132,97.05,3.75,3.75,0,0,0,135.73,100.79Z"/></svg>