<svg id="Livello_1" data-name="Livello 1" xmlns="http://www.w3.org/2000/svg" viewBox="0 0 169 72"><defs><style>.cls-1{fill:#fff;stroke:#000;stroke-miterlimit:10;stroke-width:1.55px;}.cls-2,.cls-3{opacity:0.7;}</style></defs><title>icon_featherwing</title><path class="cls-1" d="M142.72,10.06H23.13A10.07,10.07,0,0,0,13,20V60.51a10.07,10.07,0,0,0,10.17,9.93H142.72a10.07,10.07,0,0,0,10.17-9.93V20A10.07,10.07,0,0,0,142.72,10.06Z"/><path d="M142.72,8.72H23.13A11.43,11.43,0,0,0,11.58,20V60.51A11.43,11.43,0,0,0,23.13,71.78H142.72a11.43,11.43,0,0,0,11.55-11.27V20A11.43,11.43,0,0,0,142.72,8.72Zm10.17,51.79a10.07,10.07,0,0,1-10.17,9.93H23.13A10.07,10.07,0,0,1,13,60.51V20a10.07,10.07,0,0,1,10.17-9.94H142.72A10.07,10.07,0,0,1,152.89,20Z"/><path d="M22.05,21a4.53,4.53,0,1,1,4.53-4.53A4.53,4.53,0,0,1,22.05,21Zm0-7.69a3.17,3.17,0,1,0,3.17,3.16A3.17,3.17,0,0,0,22.05,13.31Z"/><path d="M22.05,68.56A4.53,4.53,0,1,1,26.58,64,4.53,4.53,0,0,1,22.05,68.56Zm0-7.7A3.17,3.17,0,1,0,25.22,64,3.17,3.17,0,0,0,22.05,60.86Z"/><path d="M143.8,21a4.53,4.53,0,1,1,4.53-4.53A4.53,4.53,0,0,1,143.8,21Zm0-7.69A3.17,3.17,0,1,0,147,16.47,3.17,3.17,0,0,0,143.8,13.31Z"/><path d="M143.8,68.56A4.53,4.53,0,1,1,148.33,64,4.53,4.53,0,0,1,143.8,68.56Zm0-7.7A3.17,3.17,0,1,0,147,64,3.17,3.17,0,0,0,143.8,60.86Z"/><circle class="cls-2" cx="31.97" cy="58.93" r="2.37"/><circle class="cls-2" cx="38.77" cy="58.93" r="2.37"/><circle class="cls-2" cx="45.56" cy="58.93" r="2.37"/><circle class="cls-2" cx="52.35" cy="58.93" r="2.37"/><circle class="cls-2" cx="59.15" cy="58.93" r="2.37"/><circle class="cls-2" cx="72.74" cy="58.93" r="2.37"/><circle class="cls-2" cx="79.53" cy="58.93" r="2.37"/><circle class="cls-2" cx="86.32" cy="58.93" r="2.37"/><circle class="cls-2" cx="93.12" cy="58.93" r="2.37"/><circle class="cls-2" cx="99.91" cy="58.93" r="2.37"/><circle class="cls-2" cx="106.7" cy="58.93" r="2.37"/><circle class="cls-2" cx="113.5" cy="58.93" r="2.37"/><circle class="cls-2" cx="120.29" cy="58.93" r="2.37"/><circle class="cls-2" cx="127.09" cy="58.93" r="2.37"/><circle class="cls-2" cx="133.88" cy="58.93" r="2.37"/><circle class="cls-2" cx="31.97" cy="65.55" r="2.37"/><circle class="cls-2" cx="38.77" cy="65.55" r="2.37"/><circle class="cls-2" cx="45.56" cy="65.55" r="2.37"/><circle class="cls-2" cx="52.35" cy="65.55" r="2.37"/><circle class="cls-2" cx="59.15" cy="65.55" r="2.37"/><circle class="cls-2" cx="72.74" cy="65.55" r="2.37"/><circle class="cls-2" cx="65.94" cy="58.93" r="2.37"/><circle class="cls-2" cx="65.94" cy="65.55" r="2.37"/><circle class="cls-2" cx="79.53" cy="65.55" r="2.37"/><circle class="cls-2" cx="86.32" cy="65.55" r="2.37"/><circle class="cls-2" cx="93.12" cy="65.55" r="2.37"/><circle class="cls-2" cx="99.91" cy="65.55" r="2.37"/><circle class="cls-2" cx="106.7" cy="65.55" r="2.37"/><circle class="cls-2" cx="113.5" cy="65.55" r="2.37"/><circle class="cls-2" cx="120.29" cy="65.55" r="2.37"/><circle class="cls-2" cx="127.09" cy="65.55" r="2.37"/><circle class="cls-2" cx="133.88" cy="65.55" r="2.37"/><circle class="cls-2" cx="52.35" cy="14.09" r="2.37"/><circle class="cls-2" cx="59.15" cy="14.09" r="2.37"/><circle class="cls-2" cx="65.94" cy="14.09" r="2.37"/><circle class="cls-2" cx="72.74" cy="14.09" r="2.37"/><circle class="cls-2" cx="79.53" cy="14.09" r="2.37"/><circle class="cls-2" cx="86.32" cy="14.09" r="2.37"/><circle class="cls-2" cx="93.12" cy="14.09" r="2.37"/><circle class="cls-2" cx="99.91" cy="14.09" r="2.37"/><circle class="cls-2" cx="106.7" cy="14.09" r="2.37"/><circle class="cls-2" cx="113.5" cy="14.09" r="2.37"/><circle class="cls-2" cx="120.29" cy="14.09" r="2.37"/><circle class="cls-2" cx="127.09" cy="14.09" r="2.37"/><circle class="cls-2" cx="133.88" cy="14.09" r="2.37"/><circle class="cls-2" cx="52.35" cy="20.7" r="2.37"/><circle class="cls-2" cx="59.15" cy="20.7" r="2.37"/><circle class="cls-2" cx="72.74" cy="20.7" r="2.37"/><circle class="cls-2" cx="79.53" cy="20.7" r="2.37"/><circle class="cls-2" cx="86.32" cy="20.7" r="2.37"/><circle class="cls-2" cx="93.12" cy="20.7" r="2.37"/><circle class="cls-2" cx="99.91" cy="20.7" r="2.37"/><circle class="cls-2" cx="106.7" cy="20.7" r="2.37"/><circle class="cls-2" cx="113.5" cy="20.7" r="2.37"/><circle class="cls-2" cx="120.29" cy="20.7" r="2.37"/><circle class="cls-2" cx="127.09" cy="20.7" r="2.37"/><circle class="cls-2" cx="133.88" cy="20.7" r="2.37"/><circle class="cls-2" cx="65.94" cy="20.7" r="2.37"/><g class="cls-3"><path d="M149.72,53.28a.49.49,0,0,0,0-.21.61.61,0,0,0-.33-.56l-.14-.11a12.2,12.2,0,0,1-4.44-9.61,12.84,12.84,0,0,1,1.36-5.8,11.49,11.49,0,0,1,2.53-3.34c.48-.43,1-.53,1.06-1.2s0-1.2,0-1.8v-3A1.72,1.72,0,0,0,148,26H120a1.71,1.71,0,0,0-1.78,1.64V52.84A1.72,1.72,0,0,0,120,54.49h28a1.78,1.78,0,0,0,1.64-1"/><rect x="62.59" y="29.57" width="21.36" height="21.36" rx="0.37"/><rect x="13.34" y="23.94" width="15.1" height="32.63" rx="0.51"/></g><path class="cls-2" d="M148,52.49l-.12-.09"/><rect class="cls-2" x="29.6" y="11.81" width="6.1" height="7.44" rx="0.2" transform="translate(48.18 -17.11) rotate(90)"/><circle cx="32.65" cy="15.54" r="1.7"/><rect class="cls-2" x="39.44" y="12.49" width="7.5" height="9.85" rx="0.22" transform="translate(86.38 34.82) rotate(180)"/><circle cx="81.9" cy="31.6" r="0.77"/><circle cx="20.89" cy="30.21" r="2.14"/><circle cx="20.89" cy="37.07" r="2.14"/><circle cx="20.89" cy="43.92" r="2.14"/><circle cx="20.89" cy="50.77" r="2.14"/><path d="M148.25,53.38a.22.22,0,0,1-.05.08"/><rect x="138.41" y="40.75" width="2.29" height="4.62" rx="0.09"/><rect x="138.41" y="46.89" width="2.29" height="4.62" rx="0.09"/><rect x="128.32" y="29.35" width="14.03" height="2.56" rx="0.1"/></svg>