<svg id="Livello_1" data-name="Livello 1" xmlns="http://www.w3.org/2000/svg" viewBox="0 0 219 220"><defs><style>.cls-1{fill:#fff;}.cls-2,.cls-3{stroke:#000;stroke-miterlimit:10;}.cls-2{stroke-width:0.73px;}.cls-3{stroke-width:0.6px;}</style></defs><title>icon_base_station</title><path class="cls-1" d="M116.88,161.79H102.12a.71.71,0,0,0-.69.73v19.4a.71.71,0,0,0,.69.73h14.76a.71.71,0,0,0,.69-.73v-19.4A.71.71,0,0,0,116.88,161.79Z"/><path class="cls-1" d="M106.89,187c0,.71.39,1.3.85,1.3h3.52c.46,0,.85-.59.85-1.3v-3.27h-5.22Z"/><path class="cls-1" d="M115.22,154.08a1,1,0,0,0-.94-1h-.17v4.45a0,0,0,0,1,0,.05h-.81a0,0,0,0,1,0-.05v-4.45h-7.44v4.46a0,0,0,0,1,0,0h-.82s0,0,0,0v-4.46h-.17a1,1,0,0,0-.94,1v6.63h11.44Z"/><path class="cls-2" d="M108.34,219.38c0,.18.08.33.17.33h2c.09,0,.17-.15.17-.33v-30h-2.32Z"/><path d="M116.88,160.72h-.68v-6.64a2,2,0,0,0-1.92-2.08h-9.56a2,2,0,0,0-1.92,2.08v6.64h-.68a1.75,1.75,0,0,0-1.7,1.8v19.4a1.75,1.75,0,0,0,1.7,1.8h3.76V187a2.16,2.16,0,0,0,1.86,2.37h.6v-.68a.18.18,0,0,1,.17-.18h2a.18.18,0,0,1,.17.18v.68h.6a2.16,2.16,0,0,0,1.86-2.37v-3.27h3.76a1.75,1.75,0,0,0,1.7-1.8v-19.4A1.75,1.75,0,0,0,116.88,160.72Zm-13.1-6.64a1,1,0,0,1,.94-1h.17v4.46s0,0,0,0h.82a0,0,0,0,0,0,0v-4.46h7.44v4.45a0,0,0,0,0,0,.05h.81a0,0,0,0,0,0-.05v-4.45h.17a1,1,0,0,1,.94,1v6.63H103.78ZM112.11,187c0,.71-.39,1.3-.85,1.3h-3.52c-.46,0-.85-.59-.85-1.3v-3.27h5.22Zm5.46-5.07a.71.71,0,0,1-.69.73H102.12a.71.71,0,0,1-.69-.73v-19.4a.71.71,0,0,1,.69-.73h14.76a.71.71,0,0,1,.69.73Z"/><path d="M110.49,188.5h-2a.18.18,0,0,0-.17.18v.68h2.32v-.68A.18.18,0,0,0,110.49,188.5Z"/><path class="cls-1" d="M58.56,75.44a33.73,33.73,0,0,0-9.92,23.9v21.72a33.85,33.85,0,0,0,33.82,33.81h54.08a33.85,33.85,0,0,0,33.82-33.81V99.34a33.87,33.87,0,0,0-33.82-33.82H82.46A33.69,33.69,0,0,0,58.56,75.44Zm50.94,74a2.73,2.73,0,1,1,2.73-2.73A2.73,2.73,0,0,1,109.5,149.48Zm-9-61h18a18.13,18.13,0,0,1,18.12,18.12v7.24a18.14,18.14,0,0,1-18.12,18.12h-18a18.14,18.14,0,0,1-18.12-18.12v-7.24A18.13,18.13,0,0,1,100.49,88.46Z"/><path class="cls-1" d="M129,96.05a14.85,14.85,0,0,0-10.53-4.36h-18A14.89,14.89,0,0,0,85.6,106.58v7.24a14.9,14.9,0,0,0,14.89,14.89h18a14.9,14.9,0,0,0,14.89-14.89v-7.24A14.85,14.85,0,0,0,129,96.05Zm1.28,17.77a11.82,11.82,0,0,1-11.81,11.8h-18a11.82,11.82,0,0,1-11.81-11.8v-7.24a11.83,11.83,0,0,1,11.81-11.81h18a11.83,11.83,0,0,1,11.81,11.81Z"/><rect class="cls-1" x="88.68" y="94.77" width="41.64" height="30.85" rx="11.81"/><rect x="88.68" y="94.77" width="41.64" height="30.85" rx="11.81"/><path class="cls-1" d="M109.5,144a2.73,2.73,0,1,0,2.73,2.73A2.73,2.73,0,0,0,109.5,144Z"/><path class="cls-3" d="M109.5,144a2.73,2.73,0,1,0,2.73,2.73A2.73,2.73,0,0,0,109.5,144Z"/><path d="M136.54,62.29H82.46a37.1,37.1,0,0,0-37,37.05v21.72a37.09,37.09,0,0,0,37.05,37h54.08a37.09,37.09,0,0,0,37.05-37V99.34A37.1,37.1,0,0,0,136.54,62.29Zm33.82,58.77a33.85,33.85,0,0,1-33.82,33.81H82.46a33.85,33.85,0,0,1-33.82-33.81V99.34A33.87,33.87,0,0,1,82.46,65.52h54.08a33.87,33.87,0,0,1,33.82,33.82Z"/><path d="M82.37,113.82a18.14,18.14,0,0,0,18.12,18.12h18a18.14,18.14,0,0,0,18.12-18.12H133.4a14.9,14.9,0,0,1-14.89,14.89h-18A14.9,14.9,0,0,1,85.6,113.82v-7.24a14.89,14.89,0,0,1,14.89-14.89h18a14.89,14.89,0,0,1,14.89,14.89v7.24h3.23v-7.24a18.13,18.13,0,0,0-18.12-18.12h-18a18.13,18.13,0,0,0-18.12,18.12Z"/></svg>