<svg id="Livello_1" data-name="Livello 1" xmlns="http://www.w3.org/2000/svg" viewBox="0 0 153 57"><defs><style>.cls-1{fill:#fff;}</style></defs><title>icon_opensource</title><path class="cls-1" d="M94,28.15C94.43,39,84.72,47.14,74.84,47c-9.56-.1-18.86-8.35-18.72-19A19,19,0,0,1,75.36,9.26C85.68,9.37,94.29,17.76,94,28.15Zm-33.54-5a15.3,15.3,0,0,0,9.8,19.62,14.71,14.71,0,0,0,12.15-1,16,16,0,0,0,6.33-6.09l-7.08-3.16c-.74,2.75-2.69,3.85-5.26,4.27v2.76H74.21V36.7a8.4,8.4,0,0,1-5.75-2.31l2.59-2.63.44.36a5.52,5.52,0,0,0,4.87,1.19,1.55,1.55,0,0,0,1.3-1.56,1.44,1.44,0,0,0-1.08-1.51c-2-.83-4-1.72-6-2.6Zm16-6.37c0,.68,0,1.27,0,1.86-.07.75.16,1,.95,1.11a7.09,7.09,0,0,1,3.81,1.66l-2.6,2.44a13.2,13.2,0,0,0-1.19-.62,4.27,4.27,0,0,0-3.25-.16,1.94,1.94,0,0,0-.9,1.11c-.18.53.34.7.76.86s.64.29,1,.43l10.55,4.68c1.52.68,3,1.34,4.6,2,1.81-7.73-1.45-15-8.83-18.19a15.1,15.1,0,0,0-19.06,5.79L69.31,23c.84-2.26,2.68-3.13,5-3.41V16.76Z"/><path class="cls-1" d="M140.58,28.19c.49,11-9.4,20.06-20.16,19.93C110.18,48,100.52,39,100.73,27.87A20.18,20.18,0,0,1,121,8.18C131.65,8.29,141,17.26,140.58,28.19Zm-36.19,0a16.34,16.34,0,0,0,32.67,0,16.34,16.34,0,1,0-32.67,0Z"/><path class="cls-1" d="M111.68,31.4h5c.24,1.24.57,2.5,1.86,3,2.81,1.15,5.4.5,6.55-2.48a10.48,10.48,0,0,0,.11-7.18c-.82-2.58-3.24-3.32-5.56-2.74a3.67,3.67,0,0,0-2.88,3.26l1.29.08-3.86,3.9-3.83-3.89,1.32-.07c.37-1,.67-2,1.13-3A7.49,7.49,0,0,1,118.17,18a10.32,10.32,0,0,1,8.08,1.18,9.31,9.31,0,0,1,4.21,6,14.27,14.27,0,0,1,0,6.37,10,10,0,0,1-8.3,7.46,10.2,10.2,0,0,1-6.38-1.11A8.63,8.63,0,0,1,111.68,31.4Z"/><path class="cls-1" d="M50.15,28.21C50.58,38.87,41,47.22,31,47.12,21.32,47,12.12,38.7,12.28,27.94A19,19,0,0,1,31.5,9.18,18.69,18.69,0,0,1,50.15,28.21Zm-34.39-.1c-.24,8.26,7.29,15.55,15.47,15.57C39,43.7,46.82,37,46.81,28.26A15.83,15.83,0,0,0,31.3,12.61C22.63,12.59,15.62,20.21,15.76,28.11Z"/><path class="cls-1" d="M36.43,31.21H34.26v9.13H28.32V31.25H26.15v-4c0-1.19,0-2.39,0-3.59s.38-1.43,1.42-1.44H35a1.28,1.28,0,0,1,1.41,1.17C36.45,26,36.43,28.57,36.43,31.21Z"/><path class="cls-1" d="M33.88,18.6c0,1.83-.8,2.65-2.61,2.65a2.34,2.34,0,0,1-2.66-2.64c0-1.84.86-2.7,2.68-2.69S33.87,16.75,33.88,18.6Z"/></svg>