<svg id="Livello_1" data-name="Livello 1" xmlns="http://www.w3.org/2000/svg" viewBox="0 0 112 88"><defs><style>.cls-1{fill:#fff;stroke:#000;stroke-miterlimit:10;stroke-width:2.05px;}</style></defs><title>icon_headers</title><path class="cls-1" d="M37.46,70.22H38.7v5.6a.35.35,0,0,0,.35.35h1.32a.36.36,0,0,0,.36-.35v-5.6h3.94v5.6a.35.35,0,0,0,.35.35h1.32a.35.35,0,0,0,.35-.35v-5.6h3.94v5.6a.35.35,0,0,0,.35.35H52.3a.35.35,0,0,0,.35-.35v-5.6h3.94v5.6a.35.35,0,0,0,.35.35h1.32a.35.35,0,0,0,.35-.35v-5.6h3.94v5.6a.36.36,0,0,0,.36.35h1.32a.35.35,0,0,0,.34-.35v-5.6h4v5.6a.35.35,0,0,0,.35.35h1.32a.35.35,0,0,0,.35-.35v-5.6h3.94v5.6a.35.35,0,0,0,.35.35h1.32a.35.35,0,0,0,.35-.35v-5.6h3.94v5.6a.35.35,0,0,0,.35.35h1.32a.35.35,0,0,0,.35-.35v-5.6H86.4v5.6a.35.35,0,0,0,.35.35h1.32a.35.35,0,0,0,.35-.35v-5.6h2a2,2,0,0,0,2-2v-17a2,2,0,0,0-2-2H37.46a2,2,0,0,0-2,2v17A2,2,0,0,0,37.46,70.22Z"/><path class="cls-1" d="M14.9,33.59h2.25l0,0v6a.35.35,0,0,0,.35.35H18.8a.36.36,0,0,0,.36-.35v-6l0,0h4v6a.35.35,0,0,0,.35.35h1.32a.35.35,0,0,0,.35-.35v-6l0,0h4v6a.35.35,0,0,0,.35.35h1.32a.35.35,0,0,0,.35-.35v-6h4l0,0v6a.35.35,0,0,0,.35.35h1.32A.35.35,0,0,0,37,39.6v-6h4l0,0v6a.35.35,0,0,0,.35.35h1.32A.36.36,0,0,0,43,39.6v-6l0,0h4v6a.35.35,0,0,0,.34.35h1.32A.35.35,0,0,0,49,39.6v-6h4v6a.35.35,0,0,0,.35.35h1.32a.35.35,0,0,0,.35-.35v-6l0,0h4v6a.35.35,0,0,0,.35.35h1.32a.35.35,0,0,0,.35-.35v-6h4v6a.35.35,0,0,0,.35.35H66.5a.35.35,0,0,0,.35-.35v-6h4l0,0v6a.36.36,0,0,0,.36.35h1.32a.35.35,0,0,0,.35-.35v-6l0,0h4v6a.35.35,0,0,0,.35.35h1.32a.35.35,0,0,0,.35-.35v-6h4v6a.35.35,0,0,0,.35.35h1.32a.35.35,0,0,0,.35-.35v-6h4l0,0v6A.35.35,0,0,0,89,40h1.32a.35.35,0,0,0,.35-.35v-6h2.24a1.37,1.37,0,0,0,1.38-1.37V13.92a1.37,1.37,0,0,0-1.38-1.37h-78a1.37,1.37,0,0,0-1.37,1.37v18.3A1.37,1.37,0,0,0,14.9,33.59Z"/></svg>