<svg id="Livello_1" data-name="Livello 1" xmlns="http://www.w3.org/2000/svg" viewBox="0 0 220 220"><defs><style>.cls-1{fill:#fff;}.cls-2{fill:none;}.cls-3{opacity:0.8;}.cls-4{stroke:#000;stroke-miterlimit:10;stroke-width:0.32px;}</style></defs><title>icon_tag_scanning</title><path class="cls-1" d="M141.38,62.26H111.9a8.51,8.51,0,0,0-8.51,8.5v58.85a8.51,8.51,0,0,0,8.51,8.5h20.65c-1.43-2.13-3.12-4.22-4.76-6.23l-.11-.15a7,7,0,0,1-2.86,1,8.24,8.24,0,0,1-.85.05,6.9,6.9,0,0,1-4.4-12.23,8.54,8.54,0,0,1-.36-1.81,6.1,6.1,0,0,1,3.24-5.66,7.12,7.12,0,0,1,3.52-1,6.21,6.21,0,0,1,3.52,1.07l.08.06,20,15.74.33-20V70.76a8.51,8.51,0,0,0-8.5-8.5"/><path d="M89,106a1.11,1.11,0,0,0,.78-.33l.36-.36a1.1,1.1,0,0,0,.06-1.5A12.22,12.22,0,0,1,90.08,88,1.11,1.11,0,0,0,90,86.47l-.37-.36a1.11,1.11,0,0,0-.78-.33h0a1.13,1.13,0,0,0-.8.4,14.93,14.93,0,0,0,.11,19.39,1.12,1.12,0,0,0,.8.39h0"/><path d="M84.16,110.77a1.1,1.1,0,0,0,.78-.32l.37-.37a1.09,1.09,0,0,0,0-1.51,19,19,0,0,1-.1-25.41,1.1,1.1,0,0,0,0-1.51l-.37-.36a1.07,1.07,0,0,0-.78-.33h0a1.08,1.08,0,0,0-.79.36,21.73,21.73,0,0,0,.12,29.08,1.08,1.08,0,0,0,.79.36h0"/><path class="cls-2" d="M141.38,62.26H111.9a8.51,8.51,0,0,0-8.51,8.5V84.9h46.49V70.76A8.51,8.51,0,0,0,141.38,62.26Z"/><path class="cls-1" d="M130.66,152.63c-.45,0-.94-.08-1.46-.14-1.26-.14-3-.33-3.77,0a2.5,2.5,0,0,0-1.27,1.94,4.4,4.4,0,0,0,1,3.63c.81.78,2.4.74,3.55.71a28.72,28.72,0,0,1,4.95.62c1.14.21,2.32.42,3.17.49a43.51,43.51,0,0,1-1.2-6.23A10.75,10.75,0,0,0,130.66,152.63Z"/><path class="cls-1" d="M123.74,126.9a31.65,31.65,0,0,1-3-3.78,4.22,4.22,0,0,0,5.2,6.49c-.23-.29-.46-.57-.68-.86C124.84,128.16,124.31,127.54,123.74,126.9Z"/><path class="cls-1" d="M118.63,146.28a4.21,4.21,0,0,0,.91,3.93c.69.67,3.2.51,3.88.31a1.32,1.32,0,0,1,.33-.08,4.68,4.68,0,0,1,.54-.3c1.48-.71,3.46-.48,5.21-.29.48.06.94.11,1.31.13a15.13,15.13,0,0,1,4,.54l-1-8.27c-.69,0-1.47.07-2.31.1C126.76,142.54,119.58,142.81,118.63,146.28Z"/><path class="cls-1" d="M135.64,138.11a18.63,18.63,0,0,1,1.17,2.67,19.31,19.31,0,0,1,1.06,6c.1,7.64,1.27,13.25,3.92,18.77.29.61.56,1.31.86,2,.75,1.89,1.67,4.2,3,5.23L170.46,164c.67-2.64.25-6.23-.1-9.15-.14-1.2-.28-2.34-.33-3.33q-.22-4.18-.48-8.38c-.31-5.26-.63-10.71-.83-16.07-.16-4.32-4-7.46-7.78-10.49-1.07-.87-2.17-1.76-3.15-2.66a1.39,1.39,0,0,1-.36-.54,23,23,0,0,0-4.83-8.46l0,3.55-.39,23.31a1.33,1.33,0,0,1-2.15,1l-.58-.46L128,115.38a3.49,3.49,0,0,0-2-.58,4.52,4.52,0,0,0-2.21.61,3.41,3.41,0,0,0-1.91,3.16c.16,2.31,2,4.48,3.88,6.58.59.68,1.15,1.32,1.65,2,.8,1,1.64,2.07,2.46,3.08,1.67,2.06,3.4,4.19,4.9,6.42A17.13,17.13,0,0,1,135.64,138.11Z"/><path class="cls-3" d="M103.39,70.76a8.51,8.51,0,0,1,8.51-8.5h29.48a8.51,8.51,0,0,1,8.5,8.5V84.9h2.67V70.76a11.19,11.19,0,0,0-11.17-11.17H111.9a11.18,11.18,0,0,0-11.17,11.17V84.9h2.66Z"/><path class="cls-1" d="M111.9,140.78h10c-2.82.78-5.1,2.19-5.81,4.79a6.9,6.9,0,0,0,1.62,6.54,5.7,5.7,0,0,0,4,1.24h0a7.09,7.09,0,0,0,1.63,6.65c1.61,1.57,3.93,1.5,5.47,1.47a27.73,27.73,0,0,1,4.41.57,33.56,33.56,0,0,0,3.84.56h.06a1.41,1.41,0,0,0,.54-.11,40.87,40.87,0,0,0,1.75,4.25c.25.52.51,1.18.79,1.88,1,2.51,2.24,5.64,4.68,6.9a1.43,1.43,0,0,0,.61.14,1.19,1.19,0,0,0,.45-.08L172,166.24a1.36,1.36,0,0,0,.81-.83c1.1-3.25.6-7.5.2-10.91-.14-1.16-.27-2.26-.32-3.16-.14-2.8-.31-5.6-.47-8.39-.32-5.25-.64-10.68-.83-16-.21-5.53-4.76-9.21-8.77-12.46-1-.8-1.93-1.56-2.78-2.33-2.47-6.88-5.91-9.87-7.28-10.85V84.9h-2.67V109l-.33,20-20-15.74-.08-.06a6.59,6.59,0,0,0-7-.11,6.12,6.12,0,0,0-3.24,5.66,8.54,8.54,0,0,0,.36,1.81,6.91,6.91,0,0,0,5.25,12.18,7,7,0,0,0,2.86-1l.11.15c1.64,2,3.33,4.1,4.76,6.23H111.9a8.51,8.51,0,0,1-8.51-8.5V84.9h-2.66v44.71A11.18,11.18,0,0,0,111.9,140.78Zm21.77,18.65a28.72,28.72,0,0,0-4.95-.62c-1.15,0-2.74.07-3.55-.71a4.4,4.4,0,0,1-1-3.63,2.5,2.5,0,0,1,1.27-1.94c.79-.37,2.51-.18,3.77,0,.52.06,1,.12,1.46.14a10.75,10.75,0,0,1,5,1.06,43.51,43.51,0,0,0,1.2,6.23C136,159.85,134.81,159.64,133.67,159.43Zm-9.18-29.34a4.23,4.23,0,0,1-3.71-7,31.65,31.65,0,0,0,3,3.78c.57.64,1.1,1.26,1.56,1.85.22.29.45.57.68.86A4.27,4.27,0,0,1,124.49,130.09Zm5.37.11c-.82-1-1.66-2-2.46-3.08-.5-.65-1.06-1.29-1.65-2-1.83-2.1-3.72-4.27-3.88-6.58a3.41,3.41,0,0,1,1.91-3.16,4.52,4.52,0,0,1,2.21-.61,3.49,3.49,0,0,1,2,.58l21.47,16.92.58.46a1.33,1.33,0,0,0,2.15-1l.39-23.31,0-3.55a23,23,0,0,1,4.83,8.46,1.39,1.39,0,0,0,.36.54c1,.9,2.08,1.79,3.15,2.66,3.75,3,7.62,6.17,7.78,10.49.2,5.36.52,10.81.83,16.07q.25,4.2.48,8.38c.05,1,.19,2.13.33,3.33.35,2.92.77,6.51.1,9.15l-24.83,8.91c-1.31-1-2.23-3.34-3-5.23-.3-.74-.57-1.44-.86-2-2.65-5.52-3.82-11.13-3.92-18.77a19.31,19.31,0,0,0-1.06-6,18.63,18.63,0,0,0-1.17-2.67,17.13,17.13,0,0,0-.88-1.49C133.26,134.39,131.53,132.26,129.86,130.2Zm4,12.05,1,8.27a15.13,15.13,0,0,0-4-.54c-.37,0-.83-.07-1.31-.13-1.75-.19-3.73-.42-5.21.29a4.68,4.68,0,0,0-.54.3,1.32,1.32,0,0,0-.33.08c-.68.2-3.19.36-3.88-.31a4.21,4.21,0,0,1-.91-3.93c1-3.47,8.13-3.74,12.88-3.93C132.35,142.32,133.13,142.29,133.82,142.25Z"/><path class="cls-3" d="M111.9,140.78h10c-2.82.78-5.1,2.19-5.81,4.79a6.9,6.9,0,0,0,1.62,6.54,5.7,5.7,0,0,0,4,1.24h0a7.09,7.09,0,0,0,1.63,6.65c1.61,1.57,3.93,1.5,5.47,1.47a27.73,27.73,0,0,1,4.41.57,33.56,33.56,0,0,0,3.84.56h.06a1.41,1.41,0,0,0,.54-.11,40.87,40.87,0,0,0,1.75,4.25c.25.52.51,1.18.79,1.88,1,2.51,2.24,5.64,4.68,6.9a1.43,1.43,0,0,0,.61.14,1.19,1.19,0,0,0,.45-.08L172,166.24a1.36,1.36,0,0,0,.81-.83c1.1-3.25.6-7.5.2-10.91-.14-1.16-.27-2.26-.32-3.16-.14-2.8-.31-5.6-.47-8.39-.32-5.25-.64-10.68-.83-16-.21-5.53-4.76-9.21-8.77-12.46-1-.8-1.93-1.56-2.78-2.33-2.47-6.88-5.91-9.87-7.28-10.85V84.9h-2.67V109l-.33,20-20-15.74-.08-.06a6.59,6.59,0,0,0-7-.11,6.12,6.12,0,0,0-3.24,5.66,8.54,8.54,0,0,0,.36,1.81,6.91,6.91,0,0,0,5.25,12.18,7,7,0,0,0,2.86-1l.11.15c1.64,2,3.33,4.1,4.76,6.23H111.9a8.51,8.51,0,0,1-8.51-8.5V84.9h-2.66v44.71A11.18,11.18,0,0,0,111.9,140.78Zm21.77,18.65a28.72,28.72,0,0,0-4.95-.62c-1.15,0-2.74.07-3.55-.71a4.4,4.4,0,0,1-1-3.63,2.5,2.5,0,0,1,1.27-1.94c.79-.37,2.51-.18,3.77,0,.52.06,1,.12,1.46.14a10.75,10.75,0,0,1,5,1.06,43.51,43.51,0,0,0,1.2,6.23C136,159.85,134.81,159.64,133.67,159.43Zm-3.81-29.23c-.82-1-1.66-2-2.46-3.08-.5-.65-1.06-1.29-1.65-2-1.83-2.1-3.72-4.27-3.88-6.58a3.41,3.41,0,0,1,1.91-3.16,4.52,4.52,0,0,1,2.21-.61,3.49,3.49,0,0,1,2,.58l21.47,16.92.58.46a1.33,1.33,0,0,0,2.15-1l.39-23.31,0-3.55a23,23,0,0,1,4.83,8.46,1.39,1.39,0,0,0,.36.54c1,.9,2.08,1.79,3.15,2.66,3.75,3,7.62,6.17,7.78,10.49.2,5.36.52,10.81.83,16.07q.25,4.2.48,8.38c.05,1,.19,2.13.33,3.33.35,2.92.77,6.51.1,9.15l-24.83,8.91c-1.31-1-2.23-3.34-3-5.23-.3-.74-.57-1.44-.86-2-2.65-5.52-3.82-11.13-3.92-18.77a19.31,19.31,0,0,0-1.06-6,18.63,18.63,0,0,0-1.17-2.67,17.13,17.13,0,0,0-.88-1.49C133.26,134.39,131.53,132.26,129.86,130.2Zm4,12.05,1,8.27a15.13,15.13,0,0,0-4-.54c-.37,0-.83-.07-1.31-.13-1.75-.19-3.73-.42-5.21.29a4.68,4.68,0,0,0-.54.3,1.32,1.32,0,0,0-.33.08c-.68.2-3.19.36-3.88-.31a4.21,4.21,0,0,1-.91-3.93c1-3.47,8.13-3.74,12.88-3.93C132.35,142.32,133.13,142.29,133.82,142.25Z"/><path class="cls-1" d="M59.56,104.79l-3.15-8.56-4.47,2h0L39,104.05l7.9,8.13a.47.47,0,0,0,.59.11l11.8-6.55A.8.8,0,0,0,59.56,104.79Z"/><polygon class="cls-1" points="41.65 135.37 62.72 135.37 62.72 132.34 61.61 132.34 61.61 132.38 61.62 132.43 42.84 132.43 42.84 132.38 42.85 132.34 41.65 132.34 41.65 135.37"/><path class="cls-1" d="M51.88,92.76a14.06,14.06,0,0,1,1.83-1.87l.55-.5L52.87,86.6a.68.68,0,0,0-.36-.4.48.48,0,0,0-.18,0,.39.39,0,0,0-.2,0L36.31,93.87a3.72,3.72,0,0,0-2,2.78,4.25,4.25,0,0,0,1.07,3.69l2.53,2.6h0l13-5.84A7.08,7.08,0,0,1,51.88,92.76Z"/><path class="cls-1" d="M56.52,125.94c-.13-.13-.29-.27-.46-.42-1.67-1.48-2.41-3.67-4.91-3.94-.49-.06-2-.11-2.35.38s-.74.94-1.1,1.37A12.38,12.38,0,0,0,45.87,126a17,17,0,0,0-1.45,4.92H60A14.17,14.17,0,0,0,56.52,125.94Z"/><path class="cls-1" d="M59.79,107.12,50.1,112.5a2.67,2.67,0,0,0,1.55.49.73.73,0,1,1,0,1.45,4.12,4.12,0,0,1-2.91-1.19l-.43.24a3.86,3.86,0,0,1,1.95,2.86,11.72,11.72,0,0,1-.58,3.86,6.14,6.14,0,0,1,5.1,1.48c.11-.48.24-1,.36-1.39s.16-.57.22-.79c.36-1.58,1.2-1.6,2.18-1.47l.62.07.28,0c.92.07,3.36.25,3.75-.49a4.69,4.69,0,0,0,.14-1.9c0-.35,0-.69,0-1s0-.28.94-1.31l.44-.49a3.46,3.46,0,0,0-.37-.21C62,112,60.39,108.54,59.79,107.12Z"/><path class="cls-1" d="M53,93.64a4.91,4.91,0,0,0-.65,2.8l3.53-1.58-1.11-3a1.14,1.14,0,0,0-.11.11A12.45,12.45,0,0,0,53,93.64Z"/><polygon class="cls-1" points="42.84 132.43 61.62 132.43 61.61 132.38 42.84 132.38 42.84 132.43"/><polygon class="cls-1" points="61.61 132.38 61.61 132.34 42.85 132.34 42.84 132.38 61.61 132.38"/><path class="cls-4" d="M64,111.44c-1.19-.63-1.77-2.12-2.26-3.29a9.26,9.26,0,0,1-.8-2c-.08-.66.24-1.2,0-1.89C59,99.13,57.11,94,55.22,88.8l-1-2.71a2.12,2.12,0,0,0-1.18-1.24,1.86,1.86,0,0,0-1.55.05L35.67,92.56a5.16,5.16,0,0,0-2.78,3.84,5.65,5.65,0,0,0,1.46,4.95l.15.16q2.94,3,5.86,6l3.55,3.65a29.86,29.86,0,0,0,3.39,3.36c.6.44,1.48,1,1.51,1.83A9,9,0,0,1,47.72,121c-.36.5-.75,1-1.14,1.43a13.32,13.32,0,0,0-2,2.95,18.48,18.48,0,0,0-1.6,5.53h1.46A17,17,0,0,1,45.87,126a12.38,12.38,0,0,1,1.83-2.63c.36-.43.74-.88,1.1-1.37s1.86-.44,2.35-.38c2.5.27,3.24,2.46,4.91,3.94.17.15.33.29.46.42A14.17,14.17,0,0,1,60,130.88h1.51a14.67,14.67,0,0,0-3.91-5.95c-.17-.18-.36-.34-.54-.5-.46-.41-.9-.8-1-1.23a8.42,8.42,0,0,1,.47-2.5c.09-.31.17-.61.23-.86a1.46,1.46,0,0,1,.13-.4l.45,0c.2,0,.43.06.71.08l.27,0c1.62.12,4.32.32,5.15-1.27a5.28,5.28,0,0,0,.3-2.64c0-.22,0-.43,0-.63L65,113.61a.9.9,0,0,0,.33-.67C65.38,112.27,64.69,111.81,64,111.44ZM54.8,91.86l1.11,3-3.53,1.58a4.91,4.91,0,0,1,.65-2.8A12.45,12.45,0,0,1,54.69,92,1.14,1.14,0,0,1,54.8,91.86ZM37.92,102.94l-2.53-2.6a4.25,4.25,0,0,1-1.07-3.69,3.72,3.72,0,0,1,2-2.78l15.82-7.66a.39.39,0,0,1,.2,0,.48.48,0,0,1,.18,0,.68.68,0,0,1,.36.4l1.39,3.79-.55.5a14.06,14.06,0,0,0-1.83,1.87,7.08,7.08,0,0,0-1,4.34l-13,5.84Zm9.56,9.35a.47.47,0,0,1-.59-.11L39,104.05l12.95-5.81h0l4.47-2,3.15,8.56a.8.8,0,0,1-.28.95Zm15.77,1.14c-.92,1-.94,1-.94,1.31s0,.65,0,1a4.69,4.69,0,0,1-.14,1.9c-.39.74-2.83.56-3.75.49l-.28,0-.62-.07c-1-.13-1.82-.11-2.18,1.47-.06.22-.13.5-.22.79s-.25.91-.36,1.39a6.14,6.14,0,0,0-5.1-1.48,11.72,11.72,0,0,0,.58-3.86,3.86,3.86,0,0,0-1.95-2.86l.43-.24a4.12,4.12,0,0,0,2.91,1.19.73.73,0,1,0,0-1.45,2.67,2.67,0,0,1-1.55-.49l9.69-5.38c.6,1.42,2.16,4.89,3.53,5.61a3.46,3.46,0,0,1,.37.21Z"/><path class="cls-4" d="M61.61,132.34h1.11v3H41.65v-3h1.2l.09-1.3a.78.78,0,0,1,0-.16H41.41a1.23,1.23,0,0,0-1.23,1.22v3.51a1.23,1.23,0,0,0,1.23,1.23H63a1.23,1.23,0,0,0,1.23-1.23V132.1A1.23,1.23,0,0,0,63,130.88H61.47a1.42,1.42,0,0,0,.05.16Z"/><path class="cls-4" d="M44.42,130.88H43a.78.78,0,0,0,0,.16l-.09,1.3H61.61l-.09-1.3a1.42,1.42,0,0,1-.05-.16h-17Z"/></svg>