<svg id="Livello_1" data-name="Livello 1" xmlns="http://www.w3.org/2000/svg" xmlns:xlink="http://www.w3.org/1999/xlink" viewBox="0 0 219.21 219.21"><defs><style>.cls-1,.cls-7{fill:none;}.cls-2{clip-path:url(#clip-path);}.cls-3{fill:#2d2d7d;}.cls-4,.cls-5{fill:#fff;}.cls-4,.cls-7{stroke:#1c1c1b;}.cls-4,.cls-8{stroke-miterlimit:10;}.cls-4{stroke-width:1.03px;}.cls-6{fill:#1c1c1b;}.cls-7{stroke-width:3.1px;}.cls-8{stroke:#000;stroke-width:0.24px;}</style><clipPath id="clip-path"><rect class="cls-1" x="53.4" y="50.65" width="112.42" height="125.91"/></clipPath></defs><title>icon_3d_print</title><g class="cls-2"><path class="cls-3" d="M124.19,95.71v7.35a1.46,1.46,0,0,0,1.28,1.59h.75a1.46,1.46,0,0,0,1.27-1.59V95.71Zm2,9.65h-.75a2.11,2.11,0,0,1-1.84-2.3V95h4.43v8a2.11,2.11,0,0,1-1.84,2.3"/><path class="cls-4" d="M124.19,95.71v7.35a1.46,1.46,0,0,0,1.28,1.59h.75a1.46,1.46,0,0,0,1.27-1.59V95.71Z"/><path class="cls-5" d="M163,146.19H56.19V161A12.79,12.79,0,0,0,69,173.78h81.3A12.79,12.79,0,0,0,163,161Z"/><path class="cls-6" d="M134.24,65.46h-16.8a2.54,2.54,0,0,0-2.67,2.38v26.3a2.54,2.54,0,0,0,2.67,2.38h16.8a2.54,2.54,0,0,0,2.68-2.38V67.84a2.54,2.54,0,0,0-2.68-2.38"/><path class="cls-6" d="M135.14,167.48H121.2a6.31,6.31,0,0,1-6.32-6.32v-2.34a6.32,6.32,0,0,1,6.32-6.32h13.94a6.32,6.32,0,0,1,6.32,6.32v2.34a6.31,6.31,0,0,1-6.32,6.32"/><path class="cls-6" d="M153.64,160a3.39,3.39,0,1,1-3.38-3.38,3.38,3.38,0,0,1,3.38,3.38"/></g><rect class="cls-5" x="163.03" y="144.79" width="1.4" height="1.4"/><rect class="cls-5" x="54.79" y="144.79" width="1.4" height="1.4"/><path class="cls-6" d="M164.43,146.19H163V161a12.79,12.79,0,0,1-12.77,12.78H69A12.79,12.79,0,0,1,56.19,161V146.19h-1.4v-1.4h1.4V77H163v67.75h1.4Zm-108.24-80A12.79,12.79,0,0,1,69,53.44h81.3A12.79,12.79,0,0,1,163,66.21v8H56.19Zm94.07-15.56H69A15.58,15.58,0,0,0,53.4,66.21V161A15.58,15.58,0,0,0,69,176.56h81.3A15.58,15.58,0,0,0,165.82,161V66.21a15.58,15.58,0,0,0-15.56-15.56"/><path class="cls-6" d="M137.15,78.24H114.26a2.59,2.59,0,0,1-2.6-2.59h0a2.59,2.59,0,0,1,2.6-2.59h22.89a2.59,2.59,0,0,1,2.59,2.59h0a2.59,2.59,0,0,1-2.59,2.59"/><line class="cls-7" x1="54.2" y1="145.71" x2="165.02" y2="145.71"/><path class="cls-5" d="M103.68,121.87l-2.3-6.26-3.27,1.47h0l-9.46,4.25,5.77,5.94a.34.34,0,0,0,.43.08l8.62-4.78A.57.57,0,0,0,103.68,121.87Z"/><polygon class="cls-5" points="90.59 144.23 105.99 144.23 105.99 142.01 105.18 142.01 105.18 142.04 105.19 142.07 91.46 142.07 91.46 142.04 91.47 142.01 90.59 142.01 90.59 144.23"/><path class="cls-5" d="M98.07,113.07a10.13,10.13,0,0,1,1.34-1.36l.4-.37-1-2.77a.5.5,0,0,0-.26-.29.5.5,0,0,0-.13,0,.28.28,0,0,0-.15,0l-11.56,5.6a2.7,2.7,0,0,0-1.46,2,3.09,3.09,0,0,0,.79,2.7l1.84,1.9h0l9.5-4.26A5.21,5.21,0,0,1,98.07,113.07Z"/><path class="cls-5" d="M101.46,137.33l-.34-.31c-1.22-1.08-1.76-2.68-3.59-2.88-.35,0-1.46-.07-1.72.28s-.53.69-.8,1a8.33,8.33,0,0,0-1.33,1.92,12.34,12.34,0,0,0-1.07,3.59H104A10.42,10.42,0,0,0,101.46,137.33Z"/><path class="cls-5" d="M103.85,123.57l-7.09,3.94a2,2,0,0,0,1.14.35.54.54,0,0,1,0,1.07,3,3,0,0,1-2.13-.87l-.31.17a2.83,2.83,0,0,1,1.43,2.09,8.72,8.72,0,0,1-.43,2.82,4.5,4.5,0,0,1,3.73,1.08c.08-.34.17-.69.26-1s.12-.42.16-.58c.27-1.15.88-1.17,1.6-1.07l.45.05h.21c.67,0,2.45.19,2.74-.36a3.48,3.48,0,0,0,.1-1.38,6.15,6.15,0,0,1,0-.73c0-.19,0-.21.69-1l.32-.36c-.07,0-.15-.1-.27-.16C105.43,127.15,104.29,124.61,103.85,123.57Z"/><path class="cls-5" d="M98.91,113.72a3.57,3.57,0,0,0-.47,2l2.57-1.16-.81-2.19-.08.08A9.27,9.27,0,0,0,98.91,113.72Z"/><polygon class="cls-5" points="91.46 142.07 105.19 142.07 105.18 142.04 91.46 142.04 91.46 142.07"/><polygon class="cls-5" points="105.18 142.04 105.18 142.01 91.47 142.01 91.46 142.04 105.18 142.04"/><path class="cls-8" d="M106.93,126.73a4.55,4.55,0,0,1-1.66-2.4,7.11,7.11,0,0,1-.58-1.44c-.06-.48.17-.88,0-1.39-1.39-3.77-2.79-7.55-4.17-11.32l-.72-2a1.55,1.55,0,0,0-.87-.92,1.39,1.39,0,0,0-1.13,0l-11.57,5.6a3.8,3.8,0,0,0-2,2.81,4.18,4.18,0,0,0,1.08,3.62l.1.11,4.29,4.42,2.59,2.66A22.14,22.14,0,0,0,94.72,129c.44.32,1.09.73,1.1,1.34a6.54,6.54,0,0,1-.8,3.35c-.26.37-.54.71-.82,1a10,10,0,0,0-1.49,2.16,13.48,13.48,0,0,0-1.16,4h1.06a12.34,12.34,0,0,1,1.07-3.59A8.33,8.33,0,0,1,95,135.43c.27-.32.54-.65.8-1s1.37-.32,1.72-.28c1.83.2,2.37,1.8,3.59,2.88l.34.31a10.42,10.42,0,0,1,2.51,3.61h1.11a10.68,10.68,0,0,0-2.86-4.35c-.12-.13-.26-.25-.39-.37-.34-.29-.66-.58-.7-.89a6.51,6.51,0,0,1,.34-1.83c.07-.23.13-.45.17-.63a1.21,1.21,0,0,1,.1-.29l.33,0,.51.06h.21c1.18.09,3.15.24,3.76-.93a3.85,3.85,0,0,0,.22-1.92c0-.17,0-.32,0-.46.25-.29.8-.89.94-1.05a.7.7,0,0,0,.24-.49C107.94,127.34,107.43,127,106.93,126.73Zm-6.73-14.31.81,2.19-2.57,1.16a3.57,3.57,0,0,1,.47-2,9.27,9.27,0,0,1,1.21-1.22Zm-12.34,8.1L86,118.62a3.09,3.09,0,0,1-.79-2.7,2.7,2.7,0,0,1,1.46-2l11.56-5.6a.28.28,0,0,1,.15,0,.5.5,0,0,1,.13,0,.5.5,0,0,1,.26.29l1,2.77-.4.37a10.13,10.13,0,0,0-1.34,1.36,5.21,5.21,0,0,0-.7,3.18l-9.5,4.26Zm7,6.83a.34.34,0,0,1-.43-.08l-5.77-5.94,9.46-4.25h0l3.27-1.47,2.3,6.26a.57.57,0,0,1-.21.7Zm11.53.84c-.67.75-.69.77-.69,1a6.15,6.15,0,0,0,0,.73,3.48,3.48,0,0,1-.1,1.38c-.29.55-2.07.41-2.74.36h-.21l-.45-.05c-.72-.1-1.33-.08-1.6,1.07,0,.16-.1.36-.16.58s-.18.67-.26,1a4.5,4.5,0,0,0-3.73-1.08,8.72,8.72,0,0,0,.43-2.82,2.83,2.83,0,0,0-1.43-2.09l.31-.17a3,3,0,0,0,2.13.87.54.54,0,0,0,0-1.07,2,2,0,0,1-1.14-.35l7.09-3.94c.44,1,1.58,3.58,2.58,4.1.12.06.2.12.27.16Z"/><path class="cls-8" d="M105.18,142H106v2.22H90.59V142h.88l.06-.95s0-.08,0-.12H90.41a.89.89,0,0,0-.89.9v2.56a.89.89,0,0,0,.89.9h15.76a.89.89,0,0,0,.89-.9v-2.56a.89.89,0,0,0-.89-.9h-1.09l0,.12Z"/><path class="cls-8" d="M92.61,140.94H91.55s0,.08,0,.12l-.06.95h13.71l-.07-.95,0-.12H92.61Z"/></svg>