<svg id="Livello_1" data-name="Livello 1" xmlns="http://www.w3.org/2000/svg" viewBox="0 0 219.21 219.21"><defs><style>.cls-1,.cls-2,.cls-3,.cls-4{fill:#fff;}.cls-1,.cls-2,.cls-3,.cls-5{stroke:#000;}.cls-1,.cls-5{stroke-miterlimit:10;}.cls-1{stroke-width:2.73px;}.cls-2,.cls-3{stroke-linecap:round;stroke-linejoin:round;}.cls-2{stroke-width:2.39px;}.cls-3{stroke-width:2.56px;}.cls-5{stroke-width:0.38px;}</style></defs><title>icon_audio_play</title><path class="cls-1" d="M158.63,177.41h-98c-4.39,0-7.95-2.37-7.95-5.3v-22.6c0-2.94,3.56-5.31,7.95-5.31h98.05c4.39,0,8,2.37,8,5.31v22.6C166.58,175,163,177.41,158.63,177.41Z"/><path d="M40.2,173a1.33,1.33,0,0,0,1-.4l.46-.45a1.37,1.37,0,0,0,.07-1.86,15.1,15.1,0,0,1-.12-19.57,1.37,1.37,0,0,0-.08-1.84l-.46-.46a1.33,1.33,0,0,0-1-.4H40a1.34,1.34,0,0,0-1,.49,18.46,18.46,0,0,0,.14,24,1.32,1.32,0,0,0,1,.47h.05"/><path d="M34.24,178.92a1.35,1.35,0,0,0,1-.4l.45-.45a1.36,1.36,0,0,0,.05-1.88,23.53,23.53,0,0,1-.13-31.45,1.36,1.36,0,0,0,0-1.87l-.45-.46a1.41,1.41,0,0,0-1-.4h0a1.33,1.33,0,0,0-1,.45,26.88,26.88,0,0,0,.14,36,1.34,1.34,0,0,0,1,.44h0"/><path d="M179,173a1.35,1.35,0,0,1-1-.4l-.46-.45a1.37,1.37,0,0,1-.06-1.86,15.12,15.12,0,0,0,.11-19.57,1.37,1.37,0,0,1,.08-1.84l.46-.46a1.35,1.35,0,0,1,1-.4h0a1.36,1.36,0,0,1,1,.49,18.5,18.5,0,0,1-.14,24,1.35,1.35,0,0,1-1,.47h0"/><path d="M185,178.92a1.37,1.37,0,0,1-1-.4l-.45-.45a1.38,1.38,0,0,1-.05-1.88,23.51,23.51,0,0,0,.13-31.45,1.36,1.36,0,0,1,.05-1.87l.46-.46a1.37,1.37,0,0,1,1-.4h0a1.35,1.35,0,0,1,1,.45,26.91,26.91,0,0,1-.14,36,1.36,1.36,0,0,1-1,.44h0"/><rect class="cls-2" x="119.4" y="84.77" width="8.89" height="19.53" rx="0.57" transform="matrix(1, 0.01, -0.01, 1, 1.14, -1.47)"/><rect class="cls-2" x="127.93" y="84.87" width="8.89" height="19.53" rx="0.57" transform="translate(1.14 -1.57) rotate(0.68)"/><path class="cls-3" d="M182.24,94.84l-.91-27.24-19.74,1.92-7.75-2.73-19.76-7-7.85-2.77c-1.53-.54-2.62-1.2-4.13-.43-2.32,1.17-4.64,2.58-6.94,3.83l-5.7,3.07-14,27.63s-.72,3.76,2.7,5.27c0,0,3.84,1.8,5.63-3.33"/><path class="cls-4" d="M103.16,86.79l1.68-10.62,5.62,1.3h0l16.29,3.75-7.26,11.2a.56.56,0,0,1-.66.27L103.7,87.82A.92.92,0,0,1,103.16,86.79Z"/><polygon class="cls-4" points="130.85 118.02 106.5 122.84 105.81 119.34 107.09 119.09 107.1 119.13 107.11 119.19 128.8 114.89 128.78 114.83 128.77 114.8 130.15 114.52 130.85 118.02"/><path class="cls-4" d="M109.28,71.13a16.62,16.62,0,0,0-2.55-1.74l-.75-.46.75-4.69a.76.76,0,0,1,.32-.55.68.68,0,0,1,.19-.08.66.66,0,0,1,.24,0l20,5.23a4.41,4.41,0,0,1,2.94,2.76,5,5,0,0,1-.41,4.51l-2.31,3.57h0l-16.36-3.77C111.05,74.28,110.62,72.31,109.28,71.13Z"/><path class="cls-4" d="M111.51,110.53c.12-.19.27-.39.43-.6,1.6-2.08,2-4.78,4.78-5.68.54-.17,2.28-.57,2.8-.09s1.06.92,1.58,1.34a13.45,13.45,0,0,1,2.71,2.62,19.69,19.69,0,0,1,2.81,5.34l-18,3.56A16.61,16.61,0,0,1,111.51,110.53Z"/><path class="cls-4" d="M103.42,89.53l12.43,4a3.18,3.18,0,0,1-1.68.92.86.86,0,1,0,.33,1.68,4.92,4.92,0,0,0,3.1-2l.55.18c-.93,1-1.86,2.22-1.61,3.74a13.83,13.83,0,0,0,1.56,4.33,7.25,7.25,0,0,0-5.56,2.88c-.23-.53-.49-1-.73-1.52s-.32-.63-.43-.87c-.79-1.74-1.76-1.57-2.86-1.19l-.7.21-.32.09c-1,.29-3.83,1.06-4.44.29a5.44,5.44,0,0,1-.6-2.15c-.06-.42-.12-.81-.2-1.16s-.09-.32-1.39-1.31l-.62-.46c.09-.09.22-.2.38-.33C102,95.67,103.06,91.31,103.42,89.53Z"/><path class="cls-4" d="M108.14,72.41a5.75,5.75,0,0,1,1.39,3.09l-4.43-1,.59-3.72.16.1A15,15,0,0,1,108.14,72.41Z"/><polygon class="cls-4" points="128.8 114.89 107.11 119.19 107.1 119.13 128.78 114.83 128.8 114.89"/><polygon class="cls-4" points="107.1 119.13 107.09 119.09 128.77 114.8 128.78 114.83 107.1 119.13"/><path class="cls-5" d="M98.31,97.53a1,1,0,0,0,.53.7l1.81,1.36c0,.23.08.48.12.74a6.17,6.17,0,0,0,1,3c1.32,1.66,4.4.8,6.24.29l.31-.08.8-.25a4.67,4.67,0,0,1,.51-.16,2.21,2.21,0,0,1,.24.44l.47.94a10,10,0,0,1,1.11,2.78,2.81,2.81,0,0,1-.82,1.63c-.17.23-.35.46-.51.7-1.38,2.12-2.94,4.88-3.15,7.77l1.75-.34a16.61,16.61,0,0,1,2.84-6.49c.12-.19.27-.39.43-.6,1.6-2.08,2-4.78,4.78-5.68.54-.17,2.28-.57,2.8-.09s1.06.92,1.58,1.34a13.45,13.45,0,0,1,2.71,2.62,19.69,19.69,0,0,1,2.81,5.34l1.68-.33a21.35,21.35,0,0,0-3.11-6,16,16,0,0,0-3-2.94c-.55-.44-1.11-.89-1.64-1.39a10.61,10.61,0,0,1-2.31-5c-.16-1,.74-1.82,1.33-2.46a36.59,36.59,0,0,0,3.15-4.66l3.25-5,5.39-8.32.14-.21a6.71,6.71,0,0,0,.56-6.06,6.09,6.09,0,0,0-4.1-3.8l-20-5.23a2.26,2.26,0,0,0-1.81.3A2.53,2.53,0,0,0,105,64c-.17,1.12-.35,2.24-.52,3.35-1,6.39-2,12.8-3.05,19.2-.13.85.37,1.41.41,2.19a10.56,10.56,0,0,1-.46,2.46c-.3,1.46-.63,3.32-1.86,4.32C98.84,96.07,98.14,96.76,98.31,97.53Zm7.54-26.67a15,15,0,0,1,2.29,1.55,5.75,5.75,0,0,1,1.39,3.09l-4.43-1,.59-3.72Zm21.88,8.83-16.36-3.77c-.32-1.64-.75-3.61-2.09-4.79a16.62,16.62,0,0,0-2.55-1.74l-.75-.46.75-4.69a.76.76,0,0,1,.32-.55.68.68,0,0,1,.19-.08.66.66,0,0,1,.24,0l20,5.23a4.41,4.41,0,0,1,2.94,2.76,5,5,0,0,1-.41,4.51l-2.31,3.57Zm-24,8.13a.92.92,0,0,1-.54-1l1.68-10.62,5.62,1.3h0l16.29,3.75-7.26,11.2a.56.56,0,0,1-.66.27Zm-3.45,9.33c.09-.09.22-.2.38-.33,1.41-1.15,2.43-5.51,2.79-7.29l12.43,4a3.18,3.18,0,0,1-1.68.92.86.86,0,1,0,.33,1.68,4.92,4.92,0,0,0,3.1-2l.55.18c-.93,1-1.86,2.22-1.61,3.74a13.83,13.83,0,0,0,1.56,4.33,7.25,7.25,0,0,0-5.56,2.88c-.23-.53-.49-1-.73-1.52s-.32-.63-.43-.87c-.79-1.74-1.76-1.57-2.86-1.19l-.7.21-.32.09c-1,.29-3.83,1.06-4.44.29a5.44,5.44,0,0,1-.6-2.15c-.06-.42-.12-.81-.2-1.16s-.09-.32-1.39-1.31Z"/><path class="cls-5" d="M107.09,119.09l-1.28.25.69,3.5L130.85,118l-.7-3.5-1.38.28-.4-1.49-.07-.18,1.8-.36a1.44,1.44,0,0,1,1.69,1.14l.8,4a1.44,1.44,0,0,1-1.13,1.7l-24.9,4.93a1.44,1.44,0,0,1-1.7-1.13l-.8-4.06a1.44,1.44,0,0,1,1.13-1.69l1.73-.35a1.36,1.36,0,0,1,0,.2Z"/><path class="cls-5" d="M126.62,113.46l1.68-.33.07.18.4,1.49-21.68,4.29-.19-1.53a1.36,1.36,0,0,0,0-.2l1.75-.34Z"/><path class="cls-3" d="M141.44,78.8,110.3,89.73s-4.93,2.08-3.74,6.37c0,0,1.31,4.63,5.89,4.47,7.14-.69,14.23-2,21.4-2.41,4.57-.27,6.6,2.66,10.64,4.23,9.72,3.77,19.71-.33,27.27-6.73l10.48-.82"/></svg>