<svg id="Livello_1" data-name="Livello 1" xmlns="http://www.w3.org/2000/svg" viewBox="0 0 219 220"><defs><style>.cls-1{fill:#fff;}.cls-2,.cls-4{opacity:0.8;}.cls-3{fill:none;}</style></defs><title>icon_audiorecording</title><path class="cls-1" d="M123.24,54.59H93.76a8.51,8.51,0,0,0-8.51,8.5v58.85a8.51,8.51,0,0,0,8.51,8.5h20.66v0c-1.43-2.12-3.12-4.21-4.76-6.22l-.11-.15a6.87,6.87,0,0,1-2.86,1,6.18,6.18,0,0,1-.85.06,6.9,6.9,0,0,1-4.4-12.23,8.51,8.51,0,0,1-.36-1.82,6.1,6.1,0,0,1,3.24-5.65,7.12,7.12,0,0,1,3.52-1,6.23,6.23,0,0,1,3.52,1.07l.08,0,20,15.75.33-20V63.09a8.51,8.51,0,0,0-8.5-8.5"/><g class="cls-2"><path d="M66.58,98.28a1.1,1.1,0,0,0,.78-.32l.37-.37a1.1,1.1,0,0,0,0-1.49,12.21,12.21,0,0,1-.09-15.81,1.11,1.11,0,0,0-.07-1.49l-.37-.37a1.1,1.1,0,0,0-.78-.32h0a1.16,1.16,0,0,0-.8.39,14.93,14.93,0,0,0,.12,19.4,1.09,1.09,0,0,0,.79.38h0"/><path d="M61.76,103.1a1.12,1.12,0,0,0,.78-.32l.37-.37a1.1,1.1,0,0,0,0-1.51,19,19,0,0,1-.11-25.41,1.1,1.1,0,0,0,0-1.51l-.37-.36a1.07,1.07,0,0,0-.78-.33h0a1.15,1.15,0,0,0-.79.37A21.73,21.73,0,0,0,61,102.74a1.12,1.12,0,0,0,.79.36h0"/><path d="M153.09,98.28a1.1,1.1,0,0,1-.78-.32l-.37-.37a1.1,1.1,0,0,1-.05-1.49,12.22,12.22,0,0,0,.1-15.81,1.11,1.11,0,0,1,.06-1.49l.37-.37a1.12,1.12,0,0,1,.78-.32h0a1.16,1.16,0,0,1,.8.39,14.95,14.95,0,0,1-.11,19.4,1.11,1.11,0,0,1-.8.38h0"/><path d="M157.91,103.1a1.14,1.14,0,0,1-.78-.32l-.37-.37a1.09,1.09,0,0,1,0-1.51,19,19,0,0,0,.1-25.41,1.1,1.1,0,0,1,0-1.51l.37-.36a1.07,1.07,0,0,1,.78-.33h0a1.13,1.13,0,0,1,.79.37,21.73,21.73,0,0,1-.12,29.08,1.12,1.12,0,0,1-.79.36h0"/></g><path class="cls-3" d="M123.24,54.59H93.76a8.51,8.51,0,0,0-8.51,8.5V77.23h46.49V63.09A8.51,8.51,0,0,0,123.24,54.59Z"/><path class="cls-1" d="M112.52,145c-.45,0-.94-.08-1.46-.14-1.26-.14-3-.34-3.77,0a2.5,2.5,0,0,0-1.27,1.93,4.42,4.42,0,0,0,1,3.64c.81.78,2.4.74,3.55.71a27.87,27.87,0,0,1,5,.62c1.14.2,2.32.41,3.17.49a43.51,43.51,0,0,1-1.2-6.23A10.5,10.5,0,0,0,112.52,145Z"/><path class="cls-1" d="M105.6,119.22a31.65,31.65,0,0,1-3-3.78,4.23,4.23,0,0,0,3.71,7,4.49,4.49,0,0,0,1.49-.48c-.23-.29-.46-.57-.68-.86C106.7,120.49,106.17,119.87,105.6,119.22Z"/><path class="cls-1" d="M100.49,138.61a4.21,4.21,0,0,0,.91,3.93c.69.67,3.2.51,3.88.31a1.32,1.32,0,0,1,.33-.08,4.68,4.68,0,0,1,.54-.3c1.48-.71,3.46-.49,5.21-.29.48.06.94.11,1.3.13a15.15,15.15,0,0,1,4,.54l-1-8.27c-.69,0-1.47.07-2.31.1C108.62,134.87,101.44,135.14,100.49,138.61Z"/><path class="cls-1" d="M117.5,130.44a17.7,17.7,0,0,1,1.17,2.67,19.31,19.31,0,0,1,1.06,6c.1,7.64,1.27,13.25,3.92,18.77.29.6.56,1.3.86,2.05.75,1.89,1.67,4.2,3,5.22l24.83-8.9c.67-2.65.25-6.23-.1-9.15-.14-1.21-.28-2.34-.33-3.33-.15-2.79-.31-5.59-.48-8.38-.31-5.26-.63-10.71-.83-16.07-.16-4.33-4-7.46-7.78-10.5-1.07-.86-2.17-1.76-3.15-2.65a1.35,1.35,0,0,1-.36-.55,23.07,23.07,0,0,0-4.83-8.45l-.05,3.55-.39,23.3a1.33,1.33,0,0,1-.76,1.18,1.31,1.31,0,0,1-1.39-.16l-.58-.45-21.47-16.92a3.49,3.49,0,0,0-2-.58,4.52,4.52,0,0,0-2.21.6,3.43,3.43,0,0,0-1.91,3.16c.16,2.31,2,4.49,3.88,6.59.59.68,1.15,1.32,1.65,2,.8,1,1.64,2.07,2.46,3.07,1.67,2.07,3.4,4.2,4.9,6.42C116.94,129.43,117.23,129.93,117.5,130.44Z"/><path class="cls-4" d="M85.25,63.09a8.51,8.51,0,0,1,8.51-8.5h29.48a8.51,8.51,0,0,1,8.5,8.5V77.23h2.67V63.09a11.19,11.19,0,0,0-11.17-11.17H93.76A11.18,11.18,0,0,0,82.59,63.09V77.23h2.66Z"/><path class="cls-1" d="M93.76,133.11h10c-2.82.78-5.1,2.19-5.81,4.79a6.9,6.9,0,0,0,1.62,6.54,5.7,5.7,0,0,0,4,1.24h0c-.06.22-.11.45-.15.68a7,7,0,0,0,1.78,6c1.61,1.56,3.93,1.5,5.47,1.46a29.29,29.29,0,0,1,4.41.58,33.56,33.56,0,0,0,3.84.56H119a1.25,1.25,0,0,0,.54-.12,42,42,0,0,0,1.75,4.26c.25.52.51,1.18.79,1.87,1,2.52,2.24,5.65,4.68,6.9a1.31,1.31,0,0,0,.61.15,1.11,1.11,0,0,0,.44-.08l26.08-9.35a1.32,1.32,0,0,0,.81-.82c1.1-3.25.6-7.5.2-10.91-.14-1.16-.27-2.26-.32-3.16-.14-2.8-.31-5.6-.47-8.39-.32-5.26-.64-10.69-.83-16-.21-5.53-4.76-9.21-8.77-12.46-1-.8-1.93-1.56-2.78-2.33-2.47-6.88-5.91-9.87-7.28-10.85V77.23h-2.67v24.14l-.33,20-20-15.75-.08,0a6.59,6.59,0,0,0-7-.11,6.1,6.1,0,0,0-3.24,5.65,8.51,8.51,0,0,0,.36,1.82,6.91,6.91,0,0,0,8.11,11.15l.11.15c1.64,2,3.33,4.1,4.76,6.22v0H93.76a8.51,8.51,0,0,1-8.51-8.5V77.23H82.59v44.71A11.18,11.18,0,0,0,93.76,133.11Zm21.77,18.65a27.87,27.87,0,0,0-5-.62c-1.15,0-2.74.07-3.55-.71a4.42,4.42,0,0,1-1-3.64,2.5,2.5,0,0,1,1.27-1.93c.79-.38,2.51-.18,3.77,0,.52.06,1,.12,1.46.14a10.5,10.5,0,0,1,5,1.06,43.51,43.51,0,0,0,1.2,6.23C117.85,152.17,116.67,152,115.53,151.76Zm-9.18-29.34a4.23,4.23,0,0,1-3.71-7,31.65,31.65,0,0,0,3,3.78c.57.65,1.1,1.27,1.56,1.86.22.29.45.57.68.86A4.49,4.49,0,0,1,106.35,122.42Zm5.37.1c-.82-1-1.66-2-2.46-3.07-.5-.65-1.06-1.29-1.65-2-1.83-2.1-3.72-4.28-3.88-6.59a3.43,3.43,0,0,1,1.91-3.16,4.52,4.52,0,0,1,2.21-.6,3.49,3.49,0,0,1,2,.58l21.47,16.92.58.45a1.31,1.31,0,0,0,1.39.16,1.33,1.33,0,0,0,.76-1.18l.39-23.3.05-3.55a23.07,23.07,0,0,1,4.83,8.45,1.35,1.35,0,0,0,.36.55c1,.89,2.08,1.79,3.15,2.65,3.75,3,7.62,6.17,7.78,10.5.2,5.36.52,10.81.83,16.07.17,2.79.33,5.59.48,8.38.05,1,.19,2.12.33,3.33.35,2.92.77,6.5.1,9.15l-24.83,8.9c-1.31-1-2.23-3.33-3-5.22-.3-.75-.57-1.45-.86-2.05-2.65-5.52-3.82-11.13-3.92-18.77a19.31,19.31,0,0,0-1.06-6,17.7,17.7,0,0,0-1.17-2.67c-.27-.51-.56-1-.88-1.5C115.12,126.72,113.39,124.59,111.72,122.52Zm4,12.06,1,8.27a15.15,15.15,0,0,0-4-.54c-.36,0-.82-.07-1.3-.13-1.75-.2-3.73-.42-5.21.29a4.68,4.68,0,0,0-.54.3,1.32,1.32,0,0,0-.33.08c-.68.2-3.19.36-3.88-.31a4.21,4.21,0,0,1-.91-3.93c1-3.47,8.13-3.74,12.88-3.93C114.21,134.65,115,134.62,115.68,134.58Z"/><path class="cls-4" d="M93.76,133.11h10c-2.82.78-5.1,2.19-5.81,4.79a6.9,6.9,0,0,0,1.62,6.54,5.7,5.7,0,0,0,4,1.24h0c-.06.22-.11.45-.15.68a7,7,0,0,0,1.78,6c1.61,1.56,3.93,1.5,5.47,1.46a29.29,29.29,0,0,1,4.41.58,33.56,33.56,0,0,0,3.84.56H119a1.25,1.25,0,0,0,.54-.12,42,42,0,0,0,1.75,4.26c.25.52.51,1.18.79,1.87,1,2.52,2.24,5.65,4.68,6.9a1.31,1.31,0,0,0,.61.15,1.11,1.11,0,0,0,.44-.08l26.08-9.35a1.32,1.32,0,0,0,.81-.82c1.1-3.25.6-7.5.2-10.91-.14-1.16-.27-2.26-.32-3.16-.14-2.8-.31-5.6-.47-8.39-.32-5.26-.64-10.69-.83-16-.21-5.53-4.76-9.21-8.77-12.46-1-.8-1.93-1.56-2.78-2.33-2.47-6.88-5.91-9.87-7.28-10.85V77.23h-2.67v24.14l-.33,20-20-15.75-.08,0a6.59,6.59,0,0,0-7-.11,6.1,6.1,0,0,0-3.24,5.65,8.51,8.51,0,0,0,.36,1.82,6.91,6.91,0,0,0,8.11,11.15l.11.15c1.64,2,3.33,4.1,4.76,6.22v0H93.76a8.51,8.51,0,0,1-8.51-8.5V77.23H82.59v44.71A11.18,11.18,0,0,0,93.76,133.11Zm21.77,18.65a27.87,27.87,0,0,0-5-.62c-1.15,0-2.74.07-3.55-.71a4.42,4.42,0,0,1-1-3.64,2.5,2.5,0,0,1,1.27-1.93c.79-.38,2.51-.18,3.77,0,.52.06,1,.12,1.46.14a10.5,10.5,0,0,1,5,1.06,43.51,43.51,0,0,0,1.2,6.23C117.85,152.17,116.67,152,115.53,151.76Zm-3.81-29.24c-.82-1-1.66-2-2.46-3.07-.5-.65-1.06-1.29-1.65-2-1.83-2.1-3.72-4.28-3.88-6.59a3.43,3.43,0,0,1,1.91-3.16,4.52,4.52,0,0,1,2.21-.6,3.49,3.49,0,0,1,2,.58l21.47,16.92.58.45a1.31,1.31,0,0,0,1.39.16,1.33,1.33,0,0,0,.76-1.18l.39-23.3.05-3.55a23.07,23.07,0,0,1,4.83,8.45,1.35,1.35,0,0,0,.36.55c1,.89,2.08,1.79,3.15,2.65,3.75,3,7.62,6.17,7.78,10.5.2,5.36.52,10.81.83,16.07.17,2.79.33,5.59.48,8.38.05,1,.19,2.12.33,3.33.35,2.92.77,6.5.1,9.15l-24.83,8.9c-1.31-1-2.23-3.33-3-5.22-.3-.75-.57-1.45-.86-2.05-2.65-5.52-3.82-11.13-3.92-18.77a19.31,19.31,0,0,0-1.06-6,17.7,17.7,0,0,0-1.17-2.67c-.27-.51-.56-1-.88-1.5C115.12,126.72,113.39,124.59,111.72,122.52Zm4,12.06,1,8.27a15.15,15.15,0,0,0-4-.54c-.36,0-.82-.07-1.3-.13-1.75-.2-3.73-.42-5.21.29a4.68,4.68,0,0,0-.54.3,1.32,1.32,0,0,0-.33.08c-.68.2-3.19.36-3.88-.31a4.21,4.21,0,0,1-.91-3.93c1-3.47,8.13-3.74,12.88-3.93C114.21,134.65,115,134.62,115.68,134.58Z"/><circle cx="108.66" cy="86.02" r="1.96"/><path d="M113.34,81.3l-.09-.08-.09-.09,0,0a6.38,6.38,0,0,0-8.82.21l-.29.29-.39.39a1.22,1.22,0,0,0,0,1.73,1.24,1.24,0,0,0,1.74,0L106,83a4,4,0,0,1,5.58,0l.49.47a1.22,1.22,0,0,0,1.72,0,1.26,1.26,0,0,0,.36-.86,1.2,1.2,0,0,0-.36-.86Z"/><path d="M116.67,78.88l-.4-.41h0l-.32-.32-.18-.15a10.67,10.67,0,0,0-14.4.33l-.07,0-.73.74a1.12,1.12,0,0,0,1.59,1.58l.73-.73v0a8.42,8.42,0,0,1,11.62-.06l.58.58a1.12,1.12,0,0,0,1.58-1.59Z"/></svg>