<svg id="Livello_1" data-name="Livello 1" xmlns="http://www.w3.org/2000/svg" viewBox="0 0 118 147"><defs><style>.cls-1{fill:#fff;}.cls-2{opacity:0.8;}.cls-3{stroke:#000;stroke-miterlimit:10;stroke-width:1.7px;}</style></defs><title>icon_usb_cable</title><rect class="cls-1" x="14.06" y="58.74" width="29.05" height="35.45" rx="1.24"/><path class="cls-1" d="M105.92,33.28a4,4,0,0,0-4.16-3.93h-33a4.05,4.05,0,0,0-4.16,3.93V56h41.29Z"/><path class="cls-1" d="M23.89,101.58c0,1.2.69,2.21,1.52,2.21h6.35c.82,0,1.52-1,1.52-2.21V96H23.89Z"/><path class="cls-1" d="M105.92,58.17H64.54a2.78,2.78,0,0,0-2.09.95,2.82,2.82,0,0,0-.76,1.9V98.37a2.86,2.86,0,0,0,2.85,2.86H106a2.86,2.86,0,0,0,2.85-2.86V61A2.91,2.91,0,0,0,106,58.17Z"/><path class="cls-1" d="M38.88,45.63a1.73,1.73,0,0,0-1.69-1.76h-.3v7.58a.07.07,0,0,1-.07.07H35.36a.08.08,0,0,1-.08-.07V43.87H21.88v7.59a.06.06,0,0,1-.06.06H20.34a.07.07,0,0,1-.07-.06V43.87H20a1.72,1.72,0,0,0-1.68,1.76V56.9H38.88Z"/><path class="cls-1" d="M26.5,133.38a.3.3,0,0,0,.3.3h3.57a.31.31,0,0,0,.3-.3V105.61H26.5Z"/><path class="cls-2" d="M26.5,133.38a.3.3,0,0,0,.3.3h3.57a.31.31,0,0,0,.3-.3V105.61H26.5Z"/><path d="M41.87,56.91H40.66V45.63a3.51,3.51,0,0,0-3.47-3.54H20a3.5,3.5,0,0,0-3.46,3.54V56.91H15.3A3.08,3.08,0,0,0,12.23,60V93A3.08,3.08,0,0,0,15.3,96h6.77v5.56c0,2.22,1.5,4,3.34,4H26.5v-1.16a.29.29,0,0,1,.3-.3h3.57a.3.3,0,0,1,.3.3v1.16h1.09c1.84,0,3.34-1.81,3.34-4V96h6.77A3.08,3.08,0,0,0,44.94,93V60A3.08,3.08,0,0,0,41.87,56.91ZM18.29,45.63A1.72,1.72,0,0,1,20,43.87h.3v7.59a.07.07,0,0,0,.07.06h1.48a.06.06,0,0,0,.06-.06V43.87h13.4v7.58a.08.08,0,0,0,.08.07h1.46a.07.07,0,0,0,.07-.07V43.87h.3a1.73,1.73,0,0,1,1.69,1.76V56.9H18.29Zm15,56c0,1.2-.7,2.21-1.52,2.21H25.41c-.83,0-1.52-1-1.52-2.21V96h9.39ZM43.11,93a1.24,1.24,0,0,1-1.24,1.24H15.3A1.23,1.23,0,0,1,14.06,93V60a1.24,1.24,0,0,1,1.24-1.24H41.87A1.25,1.25,0,0,1,43.11,60Z"/><path d="M30.37,104.15H26.8a.29.29,0,0,0-.3.3v1.16h4.17v-1.16A.3.3,0,0,0,30.37,104.15Z"/><path class="cls-1" d="M82.79,137.25a.3.3,0,0,0,.3.31h4.37a.31.31,0,0,0,.31-.31V103.41h-5Z"/><path class="cls-2" d="M82.79,137.25a.3.3,0,0,0,.3.31h4.37a.31.31,0,0,0,.31-.31V103.41h-5Z"/><path d="M64.63,56V33.28a4.05,4.05,0,0,1,4.16-3.93h33a4,4,0,0,1,4.16,3.93V56h.1a5.07,5.07,0,0,1,2.09.47V33.28a6.24,6.24,0,0,0-6.35-6.11h-33a6.23,6.23,0,0,0-6.34,6.11V56.45A5,5,0,0,1,64.54,56Z"/><path d="M108.11,56.45v2.67a2.82,2.82,0,0,1,.76,1.9V98.37a2.86,2.86,0,0,1-2.85,2.86H64.54a2.86,2.86,0,0,1-2.85-2.86V61a2.82,2.82,0,0,1,.76-1.9V56.45a5,5,0,0,0-3,4.57V98.37a5,5,0,0,0,5,5H82.79v-.79a.29.29,0,0,1,.3-.3h4.37a.3.3,0,0,1,.31.3v.79H106a5,5,0,0,0,5-5V61A5,5,0,0,0,108.11,56.45Z"/><path d="M87.46,102.32H83.09a.29.29,0,0,0-.3.3v.79h5v-.79A.3.3,0,0,0,87.46,102.32Z"/><rect x="64.63" y="55.98" width="41.29" height="2.19"/><path d="M105.92,56v2.19h.1a2.8,2.8,0,0,1,2.09.95V56.45A5.07,5.07,0,0,0,106,56Z"/><path d="M64.54,58.17h.09V56h-.09a5,5,0,0,0-2.09.47v2.67A2.78,2.78,0,0,1,64.54,58.17Z"/><path class="cls-3" d="M80.51,13a2.06,2.06,0,1,0-4.09,0L76,27.17h4.47Z"/><path class="cls-3" d="M94.51,13a2.06,2.06,0,1,0-4.09,0L90,27.17h4.47Z"/></svg>