<svg id="Livello_1" data-name="Livello 1" xmlns="http://www.w3.org/2000/svg" viewBox="0 0 219 220"><defs><style>.cls-1{fill:#fff;}.cls-2,.cls-4{opacity:0.8;}.cls-3{fill:none;}</style></defs><title>icon_wifi_app</title><path class="cls-1" d="M122.9,65.63H93.42a8.51,8.51,0,0,0-8.5,8.5V133a8.51,8.51,0,0,0,8.5,8.5h20.65c-1.42-2.13-3.12-4.21-4.75-6.23l-.12-.15a6.84,6.84,0,0,1-2.86,1,6.06,6.06,0,0,1-.85,0,6.9,6.9,0,0,1-4.4-12.23,7.84,7.84,0,0,1-.35-1.81,6.1,6.1,0,0,1,3.24-5.66,7.09,7.09,0,0,1,3.52-1,6.19,6.19,0,0,1,3.52,1.08l.07,0,20,15.74.33-20V74.13a8.51,8.51,0,0,0-8.5-8.5"/><g class="cls-2"><path d="M66.24,109.33A1.1,1.1,0,0,0,67,109l.37-.37a1.11,1.11,0,0,0,.06-1.5,12.19,12.19,0,0,1-.1-15.81,1.09,1.09,0,0,0-.06-1.48l-.37-.37a1.11,1.11,0,0,0-.78-.33h0a1.06,1.06,0,0,0-.79.39,14.92,14.92,0,0,0,.11,19.4,1.11,1.11,0,0,0,.79.38h0"/><path d="M61.43,114.14a1.1,1.1,0,0,0,.78-.32l.36-.36a1.1,1.1,0,0,0,0-1.52,19,19,0,0,1-.1-25.4,1.1,1.1,0,0,0,0-1.51l-.37-.37a1.1,1.1,0,0,0-.78-.32h0a1.1,1.1,0,0,0-.79.37,21.71,21.71,0,0,0,.11,29.07,1,1,0,0,0,.79.36h0"/><path d="M152.76,109.33A1.1,1.1,0,0,1,152,109l-.37-.37a1.11,1.11,0,0,1-.06-1.5,12.19,12.19,0,0,0,.1-15.81,1.09,1.09,0,0,1,.06-1.48l.37-.37a1.11,1.11,0,0,1,.78-.33h0a1.06,1.06,0,0,1,.79.39,14.92,14.92,0,0,1-.11,19.4,1.11,1.11,0,0,1-.79.38h0"/><path d="M157.57,114.14a1.1,1.1,0,0,1-.78-.32l-.36-.36a1.1,1.1,0,0,1,0-1.52,19,19,0,0,0,.1-25.4,1.1,1.1,0,0,1,0-1.51l.37-.37a1.1,1.1,0,0,1,.78-.32h0a1.1,1.1,0,0,1,.79.37,21.71,21.71,0,0,1-.11,29.07,1,1,0,0,1-.79.36h0"/></g><path class="cls-3" d="M122.9,65.63H93.42a8.51,8.51,0,0,0-8.5,8.5V88.27H131.4V74.13A8.51,8.51,0,0,0,122.9,65.63Z"/><path class="cls-1" d="M112.18,156c-.44,0-.94-.08-1.46-.13-1.25-.15-3-.34-3.76,0a2.48,2.48,0,0,0-1.28,1.93,4.4,4.4,0,0,0,1,3.63c.8.78,2.39.74,3.55.71a28.74,28.74,0,0,1,4.94.62c1.14.21,2.32.42,3.17.49a43.53,43.53,0,0,1-1.19-6.23A10.82,10.82,0,0,0,112.18,156Z"/><path class="cls-1" d="M105.27,130.27a30.66,30.66,0,0,1-3-3.78,4.22,4.22,0,0,0,3.71,7,4,4,0,0,0,1.48-.48l-.67-.86C106.37,131.53,105.83,130.92,105.27,130.27Z"/><path class="cls-1" d="M100.16,149.65a4.18,4.18,0,0,0,.91,3.93c.68.67,3.19.52,3.87.32a1.35,1.35,0,0,1,.33-.09,4.68,4.68,0,0,1,.54-.3c1.48-.71,3.46-.48,5.21-.28.48.05.94.1,1.31.12a15.21,15.21,0,0,1,4,.54l-1-8.27-2.31.11C108.28,145.91,101.11,146.19,100.16,149.65Z"/><path class="cls-1" d="M117.17,141.48a17.52,17.52,0,0,1,1.16,2.67,18.81,18.81,0,0,1,1.06,6c.1,7.63,1.28,13.25,3.92,18.76.29.61.57,1.31.86,2,.75,1.89,1.67,4.21,3,5.23L152,167.33c.67-2.64.25-6.23-.1-9.15-.14-1.2-.27-2.34-.32-3.32-.15-2.8-.32-5.59-.48-8.39-.31-5.26-.63-10.7-.83-16.07-.17-4.32-4-7.46-7.78-10.49-1.07-.87-2.18-1.76-3.16-2.66a1.3,1.3,0,0,1-.35-.54,23.42,23.42,0,0,0-4.83-8.46l-.06,3.55-.38,23.31a1.33,1.33,0,0,1-2.16,1l-.57-.46-21.48-16.92a3.52,3.52,0,0,0-2-.58,4.56,4.56,0,0,0-2.22.61,3.44,3.44,0,0,0-1.91,3.16c.16,2.31,2,4.48,3.88,6.58.59.68,1.15,1.32,1.65,2,.8,1,1.64,2.06,2.46,3.07,1.67,2.06,3.4,4.19,4.9,6.42C116.6,140.47,116.89,141,117.17,141.48Z"/><path class="cls-4" d="M84.92,74.13a8.51,8.51,0,0,1,8.5-8.5H122.9a8.51,8.51,0,0,1,8.5,8.5V88.27h2.67V74.13A11.18,11.18,0,0,0,122.9,63H93.42A11.18,11.18,0,0,0,82.25,74.13V88.27h2.67Z"/><path class="cls-1" d="M93.42,144.15h10c-2.83.79-5.1,2.19-5.82,4.8a6.94,6.94,0,0,0,1.62,6.54,5.75,5.75,0,0,0,4,1.23h0a7.1,7.1,0,0,0,1.63,6.66c1.61,1.56,3.93,1.5,5.48,1.46a26.67,26.67,0,0,1,4.4.58,33.59,33.59,0,0,0,3.84.55h.07a1.32,1.32,0,0,0,.53-.11,38.87,38.87,0,0,0,1.76,4.25c.25.52.51,1.18.78,1.88,1,2.52,2.25,5.65,4.68,6.9a1.31,1.31,0,0,0,.61.15,1.42,1.42,0,0,0,.45-.08l26.07-9.35a1.34,1.34,0,0,0,.81-.82c1.11-3.26.61-7.51.2-10.92-.14-1.16-.26-2.25-.31-3.15q-.22-4.2-.48-8.4c-.31-5.25-.63-10.68-.83-16-.2-5.53-4.75-9.21-8.76-12.46-1-.8-1.93-1.56-2.79-2.33-2.47-6.88-5.9-9.87-7.28-10.85V88.27H131.4v24.14l-.33,20-20-15.74-.07,0a6.57,6.57,0,0,0-7-.12,6.1,6.1,0,0,0-3.24,5.66,7.84,7.84,0,0,0,.35,1.81,6.91,6.91,0,0,0,5.25,12.18,6.84,6.84,0,0,0,2.86-1l.12.15c1.63,2,3.33,4.1,4.75,6.23H93.42a8.51,8.51,0,0,1-8.5-8.5V88.27H82.25V133A11.18,11.18,0,0,0,93.42,144.15Zm21.77,18.65a28.74,28.74,0,0,0-4.94-.62c-1.16,0-2.75.07-3.55-.71a4.4,4.4,0,0,1-1-3.63,2.48,2.48,0,0,1,1.28-1.93c.79-.38,2.51-.19,3.76,0,.52,0,1,.11,1.46.13a10.82,10.82,0,0,1,5,1.06,43.53,43.53,0,0,0,1.19,6.23C117.51,163.22,116.33,163,115.19,162.8ZM106,133.46a4.22,4.22,0,0,1-3.71-7,30.66,30.66,0,0,0,3,3.78c.56.65,1.1,1.26,1.56,1.85l.67.86A4,4,0,0,1,106,133.46Zm5.36.11c-.82-1-1.66-2-2.46-3.07-.5-.66-1.06-1.3-1.65-2-1.83-2.1-3.72-4.27-3.88-6.58a3.44,3.44,0,0,1,1.91-3.16,4.56,4.56,0,0,1,2.22-.61,3.52,3.52,0,0,1,2,.58L131,135.67l.57.46a1.33,1.33,0,0,0,2.16-1l.38-23.31.06-3.55a23.42,23.42,0,0,1,4.83,8.46,1.3,1.3,0,0,0,.35.54c1,.9,2.09,1.79,3.16,2.66,3.74,3,7.61,6.17,7.78,10.49.2,5.37.52,10.81.83,16.07.16,2.8.33,5.59.48,8.39.05,1,.18,2.12.32,3.32.35,2.92.77,6.51.1,9.15l-24.83,8.91c-1.31-1-2.23-3.34-3-5.23-.29-.74-.57-1.44-.86-2-2.64-5.51-3.82-11.13-3.92-18.76a18.81,18.81,0,0,0-1.06-6,17.52,17.52,0,0,0-1.16-2.67c-.28-.51-.57-1-.89-1.49C114.78,137.76,113.05,135.63,111.38,133.57Zm4,12.05,1,8.27a15.21,15.21,0,0,0-4-.54c-.37,0-.83-.07-1.31-.12-1.75-.2-3.73-.43-5.21.28a4.68,4.68,0,0,0-.54.3,1.35,1.35,0,0,0-.33.09c-.68.2-3.19.35-3.87-.32a4.18,4.18,0,0,1-.91-3.93c1-3.46,8.12-3.74,12.87-3.92Z"/><path class="cls-4" d="M93.42,144.15h10c-2.83.79-5.1,2.19-5.82,4.8a6.94,6.94,0,0,0,1.62,6.54,5.75,5.75,0,0,0,4,1.23h0a7.1,7.1,0,0,0,1.63,6.66c1.61,1.56,3.93,1.5,5.48,1.46a26.67,26.67,0,0,1,4.4.58,33.59,33.59,0,0,0,3.84.55h.07a1.32,1.32,0,0,0,.53-.11,38.87,38.87,0,0,0,1.76,4.25c.25.52.51,1.18.78,1.88,1,2.52,2.25,5.65,4.68,6.9a1.31,1.31,0,0,0,.61.15,1.42,1.42,0,0,0,.45-.08l26.07-9.35a1.34,1.34,0,0,0,.81-.82c1.11-3.26.61-7.51.2-10.92-.14-1.16-.26-2.25-.31-3.15q-.22-4.2-.48-8.4c-.31-5.25-.63-10.68-.83-16-.2-5.53-4.75-9.21-8.76-12.46-1-.8-1.93-1.56-2.79-2.33-2.47-6.88-5.9-9.87-7.28-10.85V88.27H131.4v24.14l-.33,20-20-15.74-.07,0a6.57,6.57,0,0,0-7-.12,6.1,6.1,0,0,0-3.24,5.66,7.84,7.84,0,0,0,.35,1.81,6.91,6.91,0,0,0,5.25,12.18,6.84,6.84,0,0,0,2.86-1l.12.15c1.63,2,3.33,4.1,4.75,6.23H93.42a8.51,8.51,0,0,1-8.5-8.5V88.27H82.25V133A11.18,11.18,0,0,0,93.42,144.15Zm21.77,18.65a28.74,28.74,0,0,0-4.94-.62c-1.16,0-2.75.07-3.55-.71a4.4,4.4,0,0,1-1-3.63,2.48,2.48,0,0,1,1.28-1.93c.79-.38,2.51-.19,3.76,0,.52,0,1,.11,1.46.13a10.82,10.82,0,0,1,5,1.06,43.53,43.53,0,0,0,1.19,6.23C117.51,163.22,116.33,163,115.19,162.8Zm-3.81-29.23c-.82-1-1.66-2-2.46-3.07-.5-.66-1.06-1.3-1.65-2-1.83-2.1-3.72-4.27-3.88-6.58a3.44,3.44,0,0,1,1.91-3.16,4.56,4.56,0,0,1,2.22-.61,3.52,3.52,0,0,1,2,.58L131,135.67l.57.46a1.33,1.33,0,0,0,2.16-1l.38-23.31.06-3.55a23.42,23.42,0,0,1,4.83,8.46,1.3,1.3,0,0,0,.35.54c1,.9,2.09,1.79,3.16,2.66,3.74,3,7.61,6.17,7.78,10.49.2,5.37.52,10.81.83,16.07.16,2.8.33,5.59.48,8.39.05,1,.18,2.12.32,3.32.35,2.92.77,6.51.1,9.15l-24.83,8.91c-1.31-1-2.23-3.34-3-5.23-.29-.74-.57-1.44-.86-2-2.64-5.51-3.82-11.13-3.92-18.76a18.81,18.81,0,0,0-1.06-6,17.52,17.52,0,0,0-1.16-2.67c-.28-.51-.57-1-.89-1.49C114.78,137.76,113.05,135.63,111.38,133.57Zm4,12.05,1,8.27a15.21,15.21,0,0,0-4-.54c-.37,0-.83-.07-1.31-.12-1.75-.2-3.73-.43-5.21.28a4.68,4.68,0,0,0-.54.3,1.35,1.35,0,0,0-.33.09c-.68.2-3.19.35-3.87-.32a4.18,4.18,0,0,1-.91-3.93c1-3.46,8.12-3.74,12.87-3.92Z"/><circle cx="108.32" cy="97.06" r="1.96"/><path d="M113,92.35l-.09-.09-.09-.08s0,0,0,0a6.4,6.4,0,0,0-8.83.2l-.28.29-.4.39a1.24,1.24,0,0,0,0,1.74,1.22,1.22,0,0,0,1.73,0l.68-.68a4,4,0,0,1,5.57,0l.49.48a1.22,1.22,0,0,0,1.72,0,1.22,1.22,0,0,0,0-1.72Z"/><path d="M116.34,89.92l-.41-.4h0l-.32-.32a1.39,1.39,0,0,0-.19-.15,10.66,10.66,0,0,0-14.4.34l-.06,0-.74.74a1.12,1.12,0,0,0,1.59,1.59l.74-.74a0,0,0,0,1,0,0,8.41,8.41,0,0,1,11.62-.07l.57.58a1.12,1.12,0,0,0,1.59-1.59Z"/></svg>