<svg id="Livello_1" data-name="Livello 1" xmlns="http://www.w3.org/2000/svg" viewBox="0 0 329 240"><defs><style>.cls-1{fill:#fff;}.cls-2{stroke:#000;stroke-miterlimit:10;stroke-width:1.43px;opacity:0.8;}</style></defs><title>icon_base_station_case</title><path class="cls-1" d="M48.73,36.17A80.11,80.11,0,0,0,25.16,93V144.6A80.47,80.47,0,0,0,105.54,225H234.09a80.47,80.47,0,0,0,80.37-80.37V93A80.47,80.47,0,0,0,234.09,12.6H105.54A80.12,80.12,0,0,0,48.73,36.17Zm121.08,176a6.5,6.5,0,1,1,6.5-6.5A6.5,6.5,0,0,1,169.81,212.17ZM148.39,67.11h42.84a43.12,43.12,0,0,1,43.08,43.08v17.2a43.13,43.13,0,0,1-43.08,43.08H148.39a43.13,43.13,0,0,1-43.08-43.08v-17.2A43.13,43.13,0,0,1,148.39,67.11Z"/><path class="cls-1" d="M216.25,85.17a35.27,35.27,0,0,0-25-10.38H148.39a35.46,35.46,0,0,0-35.4,35.4v17.2a35.46,35.46,0,0,0,35.4,35.39h42.84a35.44,35.44,0,0,0,35.4-35.39v-17.2A35.27,35.27,0,0,0,216.25,85.17Zm3.05,42.22a28.1,28.1,0,0,1-28.07,28.06H148.39a28.09,28.09,0,0,1-28.06-28.06V110.18a28.09,28.09,0,0,1,28.06-28.06h42.84a28.1,28.1,0,0,1,28.07,28.06Z"/><rect class="cls-1" x="120.33" y="82.12" width="98.97" height="73.33" rx="28.06"/><rect x="120.33" y="82.12" width="98.97" height="73.33" rx="28.06"/><path class="cls-1" d="M169.81,199.17a6.5,6.5,0,1,0,6.5,6.5A6.5,6.5,0,0,0,169.81,199.17Z"/><path class="cls-2" d="M169.81,199.17a6.5,6.5,0,1,0,6.5,6.5A6.5,6.5,0,0,0,169.81,199.17Z"/><path d="M234.09,4.92V12.6A80.47,80.47,0,0,1,314.46,93V144.6A80.47,80.47,0,0,1,234.09,225H105.54A80.47,80.47,0,0,1,25.16,144.6V93A80.47,80.47,0,0,1,105.54,12.6H234.09V4.92H105.54A88.15,88.15,0,0,0,17.48,93V144.6a88.15,88.15,0,0,0,88.06,88.05H234.09a88.14,88.14,0,0,0,88-88.05V93A88.14,88.14,0,0,0,234.09,4.92Z"/><path d="M105.31,127.39a43.13,43.13,0,0,0,43.08,43.08h42.84a43.13,43.13,0,0,0,43.08-43.08h-7.68a35.44,35.44,0,0,1-35.4,35.39H148.39A35.46,35.46,0,0,1,113,127.39v-17.2a35.46,35.46,0,0,1,35.4-35.4h42.84a35.44,35.44,0,0,1,35.4,35.4v17.2h7.68v-17.2a43.12,43.12,0,0,0-43.08-43.08H148.39a43.13,43.13,0,0,0-43.08,43.08Z"/></svg>