<svg id="Livello_1" data-name="Livello 1" xmlns="http://www.w3.org/2000/svg" viewBox="0 0 67 71"><defs><style>.cls-1{fill:#00acdd;stroke:#000;stroke-miterlimit:10;stroke-width:1.11px;}.cls-2{fill:#fff;}.cls-3{fill:none;}.cls-4{opacity:0.4;}</style></defs><title>icon_neopixel</title><circle class="cls-1" cx="33.19" cy="37.83" r="23.95"/><circle cx="33.19" cy="37.83" r="22.81"/><rect class="cls-2" x="21.17" y="25.81" width="24.04" height="24.04" rx="1.01"/><path class="cls-3" d="M39.28,15.9c-1.18,3.22-3.45,5.42-6.09,5.42s-4.9-2.2-6.09-5.42A22.91,22.91,0,0,0,11.41,31.06c3.43,1.14,5.81,3.49,5.81,6.23s-2.5,5.24-6.09,6.34A22.9,22.9,0,0,0,26.74,59.76c1-3.81,3.53-6.5,6.45-6.5s5.43,2.69,6.46,6.5A22.9,22.9,0,0,0,55.26,43.63c-3.59-1.1-6.1-3.52-6.1-6.34S51.55,32.2,55,31.06A22.93,22.93,0,0,0,39.28,15.9Z"/><path class="cls-3" d="M49.16,37.25c0-2.75,2.39-5.1,5.82-6.24a22.91,22.91,0,0,0-15.7-15.15c-1.18,3.21-3.45,5.42-6.09,5.42s-4.9-2.21-6.09-5.42A22.9,22.9,0,0,0,11.41,31c3.43,1.14,5.81,3.49,5.81,6.24s-2.5,5.23-6.09,6.33A22.9,22.9,0,0,0,26.74,59.71c1-3.8,3.53-6.49,6.45-6.49s5.43,2.69,6.46,6.49A22.9,22.9,0,0,0,55.26,43.58C51.67,42.48,49.16,40.07,49.16,37.25Z"/><path class="cls-2" d="M55.71,30.78A23.67,23.67,0,0,0,39.55,15.13a23.58,23.58,0,0,0-13,45.34A23.56,23.56,0,0,0,56,43.77a23.26,23.26,0,0,0,.79-5.94A23.51,23.51,0,0,0,55.71,30.78ZM39.65,59.71c-1-3.8-3.53-6.49-6.46-6.49s-5.42,2.69-6.45,6.49A22.9,22.9,0,0,1,11.13,43.58c3.59-1.1,6.09-3.51,6.09-6.33s-2.38-5.1-5.81-6.24A22.9,22.9,0,0,1,27.1,15.86c1.19,3.21,3.46,5.42,6.09,5.42s4.91-2.21,6.09-5.42A22.91,22.91,0,0,1,55,31c-3.43,1.14-5.82,3.49-5.82,6.24s2.51,5.23,6.1,6.33A22.9,22.9,0,0,1,39.65,59.71Z"/><circle cx="33.19" cy="57.61" r="1.9"/><circle cx="33.19" cy="18.05" r="1.9"/><circle cx="13.41" cy="37.83" r="1.9"/><circle cx="52.98" cy="37.83" r="1.9"/><circle class="cls-4" cx="33.19" cy="37.83" r="10.46"/></svg>