<svg id="Livello_1" data-name="Livello 1" xmlns="http://www.w3.org/2000/svg" viewBox="0 0 266 122"><defs><style>.cls-1,.cls-4{fill:#fff;}.cls-2,.cls-4,.cls-5{stroke:#000;stroke-miterlimit:10;}.cls-2{stroke-width:0.87px;}.cls-3{opacity:0.4;}.cls-4{stroke-width:1.23px;}.cls-5{stroke-width:1.39px;}.cls-6{opacity:0.7;}</style></defs><title>icon_nfc_breakboard</title><rect class="cls-1" x="11.46" y="12.66" width="238.79" height="99.11" rx="6.18"/><path class="cls-2" d="M244.06,11.64H17.64a7.21,7.21,0,0,0-7.2,7.2v86.74a7.21,7.21,0,0,0,7.2,7.2H244.06a7.21,7.21,0,0,0,7.2-7.2V18.84A7.21,7.21,0,0,0,244.06,11.64Zm6.19,93.94a6.2,6.2,0,0,1-6.19,6.19H17.64a6.19,6.19,0,0,1-6.18-6.19V18.84a6.18,6.18,0,0,1,6.18-6.18H244.06a6.19,6.19,0,0,1,6.19,6.18Z"/><path class="cls-3" d="M237.21,105a6.83,6.83,0,0,1,7-6.63,7.34,7.34,0,0,1,2.06.33v-72a7.77,7.77,0,0,1-2.06.31,7.21,7.21,0,0,1-7.41-7,6.75,6.75,0,0,1,2.1-4.87h-87.7a4.39,4.39,0,0,0-4.51,4.27V105a4.39,4.39,0,0,0,4.51,4.27h87.65A6.33,6.33,0,0,1,237.21,105Z"/><circle class="cls-4" cx="18.36" cy="20.01" r="4.19"/><circle class="cls-4" cx="18.36" cy="105.01" r="4.19"/><circle class="cls-4" cx="243.25" cy="20.01" r="4.19"/><circle class="cls-4" cx="243.25" cy="105.01" r="4.19"/><path class="cls-5" d="M121.13,27.46H47a5,5,0,0,0-4.9,5V90.14a5,5,0,0,0,4.9,5h74.09a5,5,0,0,0,4.9-5V32.49A5,5,0,0,0,121.13,27.46Zm4.5,62.68a4.57,4.57,0,0,1-4.5,4.63H47a4.57,4.57,0,0,1-4.5-4.63V32.49A4.57,4.57,0,0,1,47,27.86h74.09a4.57,4.57,0,0,1,4.5,4.63Z"/><path class="cls-5" d="M133.76,16.71H34.41A5.48,5.48,0,0,0,29,22.27v78.09a5.48,5.48,0,0,0,5.39,5.56h99.35a5.48,5.48,0,0,0,5.39-5.56V22.27A5.48,5.48,0,0,0,133.76,16.71Zm5,83.65a5,5,0,0,1-5,5.11H34.41a5,5,0,0,1-4.95-5.11V22.27a5,5,0,0,1,4.95-5.11h99.35a5,5,0,0,1,5,5.11Z"/><path class="cls-5" d="M127.49,21.69H40.68a5.09,5.09,0,0,0-5,5.2V95.75a5.09,5.09,0,0,0,5,5.19h86.81a5.09,5.09,0,0,0,5-5.19V26.89A5.09,5.09,0,0,0,127.49,21.69Zm4.57,74.06a4.68,4.68,0,0,1-4.57,4.77H40.68a4.68,4.68,0,0,1-4.57-4.77V26.89a4.68,4.68,0,0,1,4.57-4.78h86.81a4.68,4.68,0,0,1,4.57,4.78Z"/><path class="cls-5" d="M115.29,33.6H52.88a4.13,4.13,0,0,0-4.13,4.12V84.91A4.13,4.13,0,0,0,52.88,89h62.41a4.13,4.13,0,0,0,4.13-4.13V37.72A4.13,4.13,0,0,0,115.29,33.6Zm3.79,51.31a3.79,3.79,0,0,1-3.79,3.79H52.88a3.8,3.8,0,0,1-3.8-3.79V37.72a3.8,3.8,0,0,1,3.8-3.79h62.41a3.79,3.79,0,0,1,3.79,3.79Z"/><rect class="cls-6" x="194.25" y="54.02" width="16.38" height="16.38" rx="0.74"/><circle class="cls-6" cx="162.38" cy="105.92" r="1.86"/><circle class="cls-6" cx="167.69" cy="105.92" r="1.86"/><circle class="cls-6" cx="173" cy="105.92" r="1.86"/><circle class="cls-6" cx="178.31" cy="105.92" r="1.86"/><circle class="cls-6" cx="183.62" cy="105.92" r="1.86"/><circle class="cls-6" cx="188.93" cy="105.92" r="1.86"/><circle class="cls-6" cx="203.53" cy="17.83" r="1.86"/><circle class="cls-6" cx="208.84" cy="17.83" r="1.86"/><circle class="cls-6" cx="214.15" cy="17.83" r="1.86"/><circle class="cls-6" cx="219.46" cy="17.83" r="1.86"/><circle class="cls-6" cx="224.78" cy="17.83" r="1.86"/><circle class="cls-6" cx="230.09" cy="17.83" r="1.86"/><circle class="cls-6" cx="171.72" cy="17.83" r="1.86"/><circle class="cls-6" cx="177.03" cy="17.83" r="1.86"/><circle class="cls-6" cx="182.34" cy="17.83" r="1.86"/><circle class="cls-6" cx="187.66" cy="17.83" r="1.86"/><circle class="cls-6" cx="192.97" cy="17.83" r="1.86"/><circle class="cls-6" cx="198.28" cy="17.83" r="1.86"/><circle class="cls-6" cx="242.38" cy="75.13" r="1.86"/><circle class="cls-6" cx="242.38" cy="80.44" r="1.86"/><circle class="cls-6" cx="242.38" cy="85.75" r="1.86"/><circle class="cls-6" cx="242.38" cy="43.32" r="1.86"/><circle class="cls-6" cx="242.38" cy="48.63" r="1.86"/><circle class="cls-6" cx="242.38" cy="53.94" r="1.86"/><circle class="cls-6" cx="242.38" cy="59.25" r="1.86"/><circle class="cls-6" cx="242.38" cy="64.57" r="1.86"/><circle class="cls-6" cx="242.38" cy="69.88" r="1.86"/><rect class="cls-6" x="158.02" y="20.82" width="7.81" height="3.92" rx="0.31"/><rect class="cls-6" x="158.02" y="25.23" width="7.81" height="3.92" rx="0.31"/></svg>