<svg id="Livello_1" data-name="Livello 1" xmlns="http://www.w3.org/2000/svg" viewBox="0 0 76 164"><defs><style>.cls-1{fill:#fff;}</style></defs><title>icon_screws</title><path class="cls-1" d="M19.85,30.74a.5.5,0,0,0,.5.5h2.51a.5.5,0,0,0,.5-.5V13.57H19.85Z"/><rect class="cls-1" x="15.27" y="9.43" width="12.68" height="2.62" rx="0.3"/><path d="M27.65,7.91H15.57a1.84,1.84,0,0,0-1.83,1.82v2a1.82,1.82,0,0,0,1.83,1.82h2.68V30.74a2.11,2.11,0,0,0,2.1,2.11h2.51A2.12,2.12,0,0,0,25,30.74V13.57h2.68a1.83,1.83,0,0,0,1.82-1.82v-2A1.83,1.83,0,0,0,27.65,7.91ZM23.36,30.74a.5.5,0,0,1-.5.5H20.35a.5.5,0,0,1-.5-.5V13.57h3.51Zm4.59-19a.3.3,0,0,1-.3.3H15.57a.29.29,0,0,1-.3-.3v-2a.3.3,0,0,1,.3-.3H27.65a.31.31,0,0,1,.3.3Z"/><path d="M24.88,29.81H18.33a.54.54,0,0,1,0-1.07h6.55a.54.54,0,0,1,0,1.07Z"/><path d="M24.88,27.91H18.33a.49.49,0,0,1-.46-.53.5.5,0,0,1,.46-.54h6.55a.51.51,0,0,1,.47.54A.5.5,0,0,1,24.88,27.91Z"/><path d="M24.88,26H18.33a.54.54,0,0,1,0-1.07h6.55a.54.54,0,0,1,0,1.07Z"/><path d="M24.88,24.13H18.33a.54.54,0,0,1,0-1.07h6.55a.54.54,0,0,1,0,1.07Z"/><path d="M24.88,22.24H18.33a.54.54,0,0,1,0-1.07h6.55a.54.54,0,0,1,0,1.07Z"/><path d="M24.88,20.35H18.33a.54.54,0,0,1,0-1.07h6.55a.54.54,0,0,1,0,1.07Z"/><path class="cls-1" d="M54.34,30.74a.5.5,0,0,0,.5.5h2.51a.5.5,0,0,0,.5-.5V13.57H54.34Z"/><rect class="cls-1" x="49.75" y="9.43" width="12.68" height="2.62" rx="0.3"/><path d="M62.13,7.91H50.06a1.83,1.83,0,0,0-1.83,1.82v2a1.82,1.82,0,0,0,1.83,1.82h2.68V30.74a2.11,2.11,0,0,0,2.1,2.11h2.51a2.11,2.11,0,0,0,2.1-2.11V13.57h2.68A1.83,1.83,0,0,0,64,11.75v-2A1.83,1.83,0,0,0,62.13,7.91ZM57.85,30.74a.5.5,0,0,1-.5.5H54.84a.5.5,0,0,1-.5-.5V13.57h3.51Zm4.59-19a.3.3,0,0,1-.31.3H50.06a.3.3,0,0,1-.31-.3v-2a.31.31,0,0,1,.31-.3H62.13a.31.31,0,0,1,.31.3Z"/><path d="M59.37,29.81H52.82a.54.54,0,0,1,0-1.07h6.55a.54.54,0,0,1,0,1.07Z"/><path d="M59.37,27.91H52.82a.5.5,0,0,1-.47-.53.51.51,0,0,1,.47-.54h6.55a.51.51,0,0,1,.47.54A.5.5,0,0,1,59.37,27.91Z"/><path d="M59.37,26H52.82a.54.54,0,0,1,0-1.07h6.55a.54.54,0,0,1,0,1.07Z"/><path d="M59.37,24.13H52.82a.54.54,0,0,1,0-1.07h6.55a.54.54,0,0,1,0,1.07Z"/><path d="M59.37,22.24H52.82a.54.54,0,0,1,0-1.07h6.55a.54.54,0,0,1,0,1.07Z"/><path d="M59.37,20.35H52.82a.54.54,0,0,1,0-1.07h6.55a.54.54,0,0,1,0,1.07Z"/><path class="cls-1" d="M19.85,71.9a.51.51,0,0,0,.5.51h2.51a.5.5,0,0,0,.5-.51V54.74H19.85Z"/><rect class="cls-1" x="15.27" y="50.59" width="12.68" height="2.62" rx="0.3"/><path d="M27.65,49.07H15.57a1.84,1.84,0,0,0-1.83,1.83v2a1.83,1.83,0,0,0,1.83,1.83h2.68V71.9A2.11,2.11,0,0,0,20.35,74h2.51A2.12,2.12,0,0,0,25,71.9V54.74h2.68a1.83,1.83,0,0,0,1.82-1.83v-2A1.83,1.83,0,0,0,27.65,49.07ZM23.36,71.9a.5.5,0,0,1-.5.51H20.35a.51.51,0,0,1-.5-.51V54.74h3.51Zm4.59-19a.3.3,0,0,1-.3.3H15.57a.29.29,0,0,1-.3-.3v-2a.3.3,0,0,1,.3-.31H27.65a.31.31,0,0,1,.3.31Z"/><path d="M24.88,71H18.33a.54.54,0,0,1,0-1.07h6.55a.54.54,0,0,1,0,1.07Z"/><path d="M24.88,69.08H18.33a.54.54,0,0,1,0-1.07h6.55a.54.54,0,0,1,0,1.07Z"/><path d="M24.88,67.19H18.33a.54.54,0,0,1,0-1.07h6.55a.54.54,0,0,1,0,1.07Z"/><path d="M24.88,65.29H18.33a.54.54,0,0,1,0-1.06h6.55a.53.53,0,0,1,0,1.06Z"/><path d="M24.88,63.4H18.33a.54.54,0,0,1,0-1.07h6.55a.54.54,0,0,1,0,1.07Z"/><path d="M24.88,61.51H18.33a.54.54,0,0,1,0-1.07h6.55a.54.54,0,0,1,0,1.07Z"/><path class="cls-1" d="M54.34,71.9a.51.51,0,0,0,.5.51h2.51a.5.5,0,0,0,.5-.51V54.74H54.34Z"/><rect class="cls-1" x="49.75" y="50.59" width="12.68" height="2.62" rx="0.3"/><path d="M62.13,49.07H50.06a1.83,1.83,0,0,0-1.83,1.83v2a1.83,1.83,0,0,0,1.83,1.83h2.68V71.9A2.11,2.11,0,0,0,54.84,74h2.51a2.11,2.11,0,0,0,2.1-2.11V54.74h2.68A1.83,1.83,0,0,0,64,52.91v-2A1.83,1.83,0,0,0,62.13,49.07ZM57.85,71.9a.5.5,0,0,1-.5.51H54.84a.51.51,0,0,1-.5-.51V54.74h3.51Zm4.59-19a.3.3,0,0,1-.31.3H50.06a.3.3,0,0,1-.31-.3v-2a.31.31,0,0,1,.31-.31H62.13a.31.31,0,0,1,.31.31Z"/><path d="M59.37,71H52.82a.54.54,0,0,1,0-1.07h6.55a.54.54,0,0,1,0,1.07Z"/><path d="M59.37,69.08H52.82a.54.54,0,0,1,0-1.07h6.55a.54.54,0,0,1,0,1.07Z"/><path d="M59.37,67.19H52.82a.54.54,0,0,1,0-1.07h6.55a.54.54,0,0,1,0,1.07Z"/><path d="M59.37,65.29H52.82a.53.53,0,0,1,0-1.06h6.55a.53.53,0,0,1,0,1.06Z"/><path d="M59.37,63.4H52.82a.54.54,0,0,1,0-1.07h6.55a.54.54,0,0,1,0,1.07Z"/><path d="M59.37,61.51H52.82a.54.54,0,0,1,0-1.07h6.55a.54.54,0,0,1,0,1.07Z"/><path class="cls-1" d="M19.85,113.07a.51.51,0,0,0,.5.5h2.51a.5.5,0,0,0,.5-.5V95.9H19.85Z"/><rect class="cls-1" x="15.27" y="91.76" width="12.68" height="2.62" rx="0.3"/><path d="M27.65,90.23H15.57a1.84,1.84,0,0,0-1.83,1.83v2a1.83,1.83,0,0,0,1.83,1.82h2.68v17.17a2.1,2.1,0,0,0,2.1,2.1h2.51a2.11,2.11,0,0,0,2.11-2.1V95.9h2.68a1.83,1.83,0,0,0,1.82-1.83v-2A1.83,1.83,0,0,0,27.65,90.23Zm-4.29,22.84a.5.5,0,0,1-.5.5H20.35a.51.51,0,0,1-.5-.5V95.9h3.51Zm4.59-19a.31.31,0,0,1-.3.3H15.57a.3.3,0,0,1-.3-.31v-2a.29.29,0,0,1,.3-.3H27.65a.3.3,0,0,1,.3.3Z"/><path d="M24.88,112.13H18.33a.54.54,0,0,1,0-1.07h6.55a.54.54,0,0,1,0,1.07Z"/><path d="M24.88,110.24H18.33a.54.54,0,0,1,0-1.07h6.55a.54.54,0,0,1,0,1.07Z"/><path d="M24.88,108.35H18.33a.54.54,0,0,1,0-1.07h6.55a.54.54,0,0,1,0,1.07Z"/><path d="M24.88,106.46H18.33a.54.54,0,0,1,0-1.07h6.55a.54.54,0,0,1,0,1.07Z"/><path d="M24.88,104.57H18.33a.54.54,0,0,1,0-1.07h6.55a.54.54,0,0,1,0,1.07Z"/><path d="M24.88,102.68H18.33a.5.5,0,0,1-.46-.54.49.49,0,0,1,.46-.53h6.55a.5.5,0,0,1,.47.53A.51.51,0,0,1,24.88,102.68Z"/><path class="cls-1" d="M54.34,113.07a.51.51,0,0,0,.5.5h2.51a.5.5,0,0,0,.5-.5V95.9H54.34Z"/><rect class="cls-1" x="49.75" y="91.76" width="12.68" height="2.62" rx="0.3"/><path d="M62.13,90.23H50.06a1.84,1.84,0,0,0-1.83,1.83v2a1.83,1.83,0,0,0,1.83,1.82h2.68v17.17a2.1,2.1,0,0,0,2.1,2.1h2.51a2.1,2.1,0,0,0,2.1-2.1V95.9h2.68A1.83,1.83,0,0,0,64,94.07v-2A1.83,1.83,0,0,0,62.13,90.23Zm-4.28,22.84a.5.5,0,0,1-.5.5H54.84a.51.51,0,0,1-.5-.5V95.9h3.51Zm4.59-19a.31.31,0,0,1-.31.3H50.06a.31.31,0,0,1-.31-.31v-2a.3.3,0,0,1,.31-.3H62.13a.3.3,0,0,1,.31.3Z"/><path d="M59.37,112.13H52.82a.54.54,0,0,1,0-1.07h6.55a.54.54,0,0,1,0,1.07Z"/><path d="M59.37,110.24H52.82a.54.54,0,0,1,0-1.07h6.55a.54.54,0,0,1,0,1.07Z"/><path d="M59.37,108.35H52.82a.54.54,0,0,1,0-1.07h6.55a.54.54,0,0,1,0,1.07Z"/><path d="M59.37,106.46H52.82a.54.54,0,0,1,0-1.07h6.55a.54.54,0,0,1,0,1.07Z"/><path d="M59.37,104.57H52.82a.54.54,0,0,1,0-1.07h6.55a.54.54,0,0,1,0,1.07Z"/><path d="M59.37,102.68H52.82a.51.51,0,0,1-.47-.54.5.5,0,0,1,.47-.53h6.55a.5.5,0,0,1,.47.53A.51.51,0,0,1,59.37,102.68Z"/><path class="cls-1" d="M19.85,154.23a.5.5,0,0,0,.5.5h2.51a.5.5,0,0,0,.5-.5V137.06H19.85Z"/><rect class="cls-1" x="15.27" y="132.92" width="12.68" height="2.62" rx="0.3"/><path d="M27.65,131.4H15.57a1.84,1.84,0,0,0-1.83,1.82v2a1.82,1.82,0,0,0,1.83,1.82h2.68v17.17a2.1,2.1,0,0,0,2.1,2.1h2.51a2.11,2.11,0,0,0,2.11-2.1V137.06h2.68a1.83,1.83,0,0,0,1.82-1.82v-2A1.82,1.82,0,0,0,27.65,131.4Zm-4.29,22.83a.5.5,0,0,1-.5.5H20.35a.5.5,0,0,1-.5-.5V137.06h3.51Zm4.59-19a.31.31,0,0,1-.3.3H15.57a.3.3,0,0,1-.3-.3v-2a.29.29,0,0,1,.3-.3H27.65a.31.31,0,0,1,.3.3Z"/><path d="M24.88,153.29H18.33a.54.54,0,0,1,0-1.07h6.55a.54.54,0,0,1,0,1.07Z"/><path d="M24.88,151.4H18.33a.54.54,0,0,1,0-1.07h6.55a.54.54,0,0,1,0,1.07Z"/><path d="M24.88,149.51H18.33a.54.54,0,0,1,0-1.07h6.55a.54.54,0,0,1,0,1.07Z"/><path d="M24.88,147.62H18.33a.54.54,0,0,1,0-1.07h6.55a.54.54,0,0,1,0,1.07Z"/><path d="M24.88,145.73H18.33a.54.54,0,0,1,0-1.07h6.55a.54.54,0,0,1,0,1.07Z"/><path d="M24.88,143.84H18.33a.54.54,0,0,1,0-1.07h6.55a.54.54,0,0,1,0,1.07Z"/><path class="cls-1" d="M54.34,154.23a.5.5,0,0,0,.5.5h2.51a.5.5,0,0,0,.5-.5V137.06H54.34Z"/><rect class="cls-1" x="49.75" y="132.92" width="12.68" height="2.62" rx="0.3"/><path d="M62.13,131.4H50.06a1.83,1.83,0,0,0-1.83,1.82v2a1.82,1.82,0,0,0,1.83,1.82h2.68v17.17a2.1,2.1,0,0,0,2.1,2.1h2.51a2.1,2.1,0,0,0,2.1-2.1V137.06h2.68A1.83,1.83,0,0,0,64,135.24v-2A1.82,1.82,0,0,0,62.13,131.4Zm-4.28,22.83a.5.5,0,0,1-.5.5H54.84a.5.5,0,0,1-.5-.5V137.06h3.51Zm4.59-19a.31.31,0,0,1-.31.3H50.06a.31.31,0,0,1-.31-.3v-2a.3.3,0,0,1,.31-.3H62.13a.31.31,0,0,1,.31.3Z"/><path d="M59.37,153.29H52.82a.54.54,0,0,1,0-1.07h6.55a.54.54,0,0,1,0,1.07Z"/><path d="M59.37,151.4H52.82a.54.54,0,0,1,0-1.07h6.55a.54.54,0,0,1,0,1.07Z"/><path d="M59.37,149.51H52.82a.54.54,0,0,1,0-1.07h6.55a.54.54,0,0,1,0,1.07Z"/><path d="M59.37,147.62H52.82a.54.54,0,0,1,0-1.07h6.55a.54.54,0,0,1,0,1.07Z"/><path d="M59.37,145.73H52.82a.54.54,0,0,1,0-1.07h6.55a.54.54,0,0,1,0,1.07Z"/><path d="M59.37,143.84H52.82a.54.54,0,0,1,0-1.07h6.55a.54.54,0,0,1,0,1.07Z"/></svg>