<svg id="Livello_1" data-name="Livello 1" xmlns="http://www.w3.org/2000/svg" viewBox="0 0 219 220"><defs><style>.cls-1{fill:#fff;}.cls-2,.cls-3{stroke:#000;stroke-miterlimit:10;}.cls-2{stroke-width:0.73px;}.cls-3{stroke-width:0.6px;}</style></defs><title>icon_base_station</title><path class="cls-1" d="M117,161.65H102.28a.71.71,0,0,0-.69.73v19.39a.71.71,0,0,0,.69.73H117a.71.71,0,0,0,.69-.73V162.38A.71.71,0,0,0,117,161.65Z"/><path class="cls-1" d="M107.05,186.85c0,.7.38,1.3.84,1.3h3.53c.46,0,.84-.6.84-1.3v-3.27h-5.21Z"/><path class="cls-1" d="M115.37,153.94a1,1,0,0,0-.93-1h-.17v4.46a0,0,0,0,1,0,0h-.81a0,0,0,0,1,0,0V152.9h-7.45v4.47a0,0,0,0,1,0,0h-.82s0,0,0,0V152.9h-.17a1,1,0,0,0-.93,1v6.62h11.43Z"/><path class="cls-2" d="M108.5,219.24c0,.18.07.32.17.32h2c.09,0,.16-.14.16-.32v-30H108.5Z"/><path d="M117,160.58h-.67v-6.64a2,2,0,0,0-1.92-2.08h-9.57a2,2,0,0,0-1.92,2.08v6.64h-.67a1.76,1.76,0,0,0-1.71,1.8v19.39a1.76,1.76,0,0,0,1.71,1.81H106v3.27a2.16,2.16,0,0,0,1.85,2.37h.61v-.68a.17.17,0,0,1,.17-.18h2a.17.17,0,0,1,.16.18v.68h.61a2.16,2.16,0,0,0,1.85-2.37v-3.27H117a1.76,1.76,0,0,0,1.71-1.81V162.38A1.76,1.76,0,0,0,117,160.58Zm-13.09-6.64a1,1,0,0,1,.93-1H105v4.47s0,0,0,0h.82a0,0,0,0,0,0,0V152.9h7.45v4.46a0,0,0,0,0,0,0h.81a0,0,0,0,0,0,0V152.9h.17a1,1,0,0,1,.93,1v6.62H103.94Zm8.32,32.91c0,.7-.38,1.3-.84,1.3h-3.53c-.46,0-.84-.6-.84-1.3v-3.27h5.21Zm5.46-5.08a.71.71,0,0,1-.69.73H102.28a.71.71,0,0,1-.69-.73V162.38a.71.71,0,0,1,.69-.73H117a.71.71,0,0,1,.69.73Z"/><path d="M110.65,188.36h-2a.17.17,0,0,0-.17.18v.68h2.31v-.68A.17.17,0,0,0,110.65,188.36Z"/><path class="cls-1" d="M58.72,75.3A33.68,33.68,0,0,0,48.8,99.19v21.72a33.87,33.87,0,0,0,33.82,33.82H136.7a33.85,33.85,0,0,0,33.81-33.82V99.19A33.85,33.85,0,0,0,136.7,65.38H82.62A33.69,33.69,0,0,0,58.72,75.3Zm50.94,74a2.74,2.74,0,1,1,2.73-2.73A2.74,2.74,0,0,1,109.66,149.34Zm-9-61h18a18.14,18.14,0,0,1,18.12,18.13v7.23a18.14,18.14,0,0,1-18.12,18.13h-18a18.16,18.16,0,0,1-18.13-18.13v-7.23A18.16,18.16,0,0,1,100.65,88.31Z"/><path class="cls-1" d="M129.19,95.91a14.81,14.81,0,0,0-10.52-4.36h-18a14.9,14.9,0,0,0-14.9,14.89v7.23a14.9,14.9,0,0,0,14.9,14.89h18a14.9,14.9,0,0,0,14.89-14.89v-7.23A14.84,14.84,0,0,0,129.19,95.91Zm1.29,17.76a11.83,11.83,0,0,1-11.81,11.81h-18a11.82,11.82,0,0,1-11.81-11.81v-7.23a11.81,11.81,0,0,1,11.81-11.81h18a11.82,11.82,0,0,1,11.81,11.81Z"/><rect class="cls-1" x="88.84" y="94.63" width="41.64" height="30.85" rx="11.81"/><rect x="88.84" y="94.63" width="41.64" height="30.85" rx="11.81"/><path class="cls-1" d="M109.66,143.87a2.74,2.74,0,1,0,2.73,2.74A2.74,2.74,0,0,0,109.66,143.87Z"/><path class="cls-3" d="M109.66,143.87a2.74,2.74,0,1,0,2.73,2.74A2.74,2.74,0,0,0,109.66,143.87Z"/><path d="M136.7,62.15H82.62a37.08,37.08,0,0,0-37.05,37v21.72A37.08,37.08,0,0,0,82.62,158H136.7a37.08,37.08,0,0,0,37-37.05V99.19A37.07,37.07,0,0,0,136.7,62.15Zm33.81,58.76a33.85,33.85,0,0,1-33.81,33.82H82.62A33.87,33.87,0,0,1,48.8,120.91V99.19A33.87,33.87,0,0,1,82.62,65.38H136.7a33.85,33.85,0,0,1,33.81,33.81Z"/><path d="M82.52,113.67a18.16,18.16,0,0,0,18.13,18.13h18a18.14,18.14,0,0,0,18.12-18.13h-3.23a14.9,14.9,0,0,1-14.89,14.89h-18a14.9,14.9,0,0,1-14.9-14.89v-7.23a14.9,14.9,0,0,1,14.9-14.89h18a14.9,14.9,0,0,1,14.89,14.89v7.23h3.23v-7.23a18.14,18.14,0,0,0-18.12-18.13h-18a18.16,18.16,0,0,0-18.13,18.13Z"/></svg>