<svg id="Livello_1" data-name="Livello 1" xmlns="http://www.w3.org/2000/svg" viewBox="0 0 194 155"><defs><style>.cls-1{fill:#fff;stroke:#000;stroke-miterlimit:10;stroke-width:1.84px;}.cls-2{opacity:0.8;}</style></defs><title>icon_nfc_tags</title><circle class="cls-1" cx="32.13" cy="32.31" r="16.08"/><path class="cls-2" d="M32.13,44.76A12.45,12.45,0,1,1,44.58,32.31,12.47,12.47,0,0,1,32.13,44.76Zm0-21.7a9.25,9.25,0,1,0,9.25,9.25A9.26,9.26,0,0,0,32.13,23.06Z"/><circle class="cls-1" cx="76.47" cy="32.31" r="16.08"/><path class="cls-2" d="M76.47,44.76A12.45,12.45,0,1,1,88.92,32.31,12.47,12.47,0,0,1,76.47,44.76Zm0-21.7a9.25,9.25,0,1,0,9.25,9.25A9.26,9.26,0,0,0,76.47,23.06Z"/><circle class="cls-1" cx="120.81" cy="32.31" r="16.08"/><path class="cls-2" d="M120.81,44.76a12.45,12.45,0,1,1,12.45-12.45A12.47,12.47,0,0,1,120.81,44.76Zm0-21.7a9.25,9.25,0,1,0,9.25,9.25A9.26,9.26,0,0,0,120.81,23.06Z"/><circle class="cls-1" cx="165.15" cy="32.31" r="16.08"/><path class="cls-2" d="M165.16,44.76a12.45,12.45,0,1,1,12.45-12.45A12.46,12.46,0,0,1,165.16,44.76Zm0-21.7a9.25,9.25,0,1,0,9.24,9.25A9.26,9.26,0,0,0,165.16,23.06Z"/><circle class="cls-1" cx="32.13" cy="76.77" r="16.08"/><path class="cls-2" d="M32.13,89.22A12.45,12.45,0,1,1,44.58,76.77,12.46,12.46,0,0,1,32.13,89.22Zm0-21.69a9.25,9.25,0,1,0,9.25,9.24A9.25,9.25,0,0,0,32.13,67.53Z"/><circle class="cls-1" cx="76.47" cy="76.77" r="16.08"/><path class="cls-2" d="M76.47,89.22A12.45,12.45,0,1,1,88.92,76.77,12.46,12.46,0,0,1,76.47,89.22Zm0-21.69a9.25,9.25,0,1,0,9.25,9.24A9.25,9.25,0,0,0,76.47,67.53Z"/><circle class="cls-1" cx="120.81" cy="76.77" r="16.08"/><path class="cls-2" d="M120.81,89.22a12.45,12.45,0,1,1,12.45-12.45A12.46,12.46,0,0,1,120.81,89.22Zm0-21.69a9.25,9.25,0,1,0,9.25,9.24A9.25,9.25,0,0,0,120.81,67.53Z"/><circle class="cls-1" cx="165.15" cy="76.77" r="16.08"/><path class="cls-2" d="M165.16,89.22a12.45,12.45,0,1,1,12.45-12.45A12.46,12.46,0,0,1,165.16,89.22Zm0-21.69a9.25,9.25,0,1,0,9.24,9.24A9.25,9.25,0,0,0,165.16,67.53Z"/><circle class="cls-1" cx="76.47" cy="119.94" r="16.08"/><path class="cls-2" d="M76.47,132.39a12.45,12.45,0,1,1,12.45-12.45A12.47,12.47,0,0,1,76.47,132.39Zm0-21.7a9.25,9.25,0,1,0,9.25,9.25A9.26,9.26,0,0,0,76.47,110.69Z"/><circle class="cls-1" cx="120.81" cy="119.94" r="16.08"/><path class="cls-2" d="M120.81,132.39a12.45,12.45,0,1,1,12.45-12.45A12.47,12.47,0,0,1,120.81,132.39Zm0-21.7a9.25,9.25,0,1,0,9.25,9.25A9.26,9.26,0,0,0,120.81,110.69Z"/></svg>