<svg id="Livello_1" data-name="Livello 1" xmlns="http://www.w3.org/2000/svg" viewBox="0 0 219.21 219.21"><defs><style>.cls-1,.cls-4{fill:#fff;}.cls-2,.cls-4{stroke:#000;stroke-miterlimit:10;}.cls-2{stroke-width:0.32px;}.cls-3{opacity:0.8;}.cls-4{stroke-width:2.62px;}</style></defs><title>icon_audio_play</title><path class="cls-1" d="M119,83.47l-3.15-8.56-4.47,2h0l-13,5.82,7.9,8.13a.47.47,0,0,0,.59.11l11.8-6.55A.8.8,0,0,0,119,83.47Z"/><polygon class="cls-1" points="101.05 114.05 122.12 114.05 122.12 111.02 121.01 111.02 121.01 111.06 121.02 111.11 102.24 111.11 102.24 111.06 102.25 111.02 101.05 111.02 101.05 114.05"/><path class="cls-1" d="M111.28,71.44a14.06,14.06,0,0,1,1.83-1.87l.55-.5-1.39-3.79a.68.68,0,0,0-.36-.4.48.48,0,0,0-.18,0,.39.39,0,0,0-.2,0L95.71,72.55a3.72,3.72,0,0,0-2,2.78A4.25,4.25,0,0,0,94.79,79l2.53,2.6h0l13-5.84A7.08,7.08,0,0,1,111.28,71.44Z"/><path class="cls-1" d="M115.92,104.62c-.13-.13-.29-.27-.46-.42-1.67-1.48-2.41-3.67-4.91-3.94-.49-.06-2-.11-2.35.38s-.74.94-1.1,1.37a12.38,12.38,0,0,0-1.83,2.63,17,17,0,0,0-1.45,4.92h15.54A14.17,14.17,0,0,0,115.92,104.62Z"/><path class="cls-1" d="M119.19,85.8l-9.69,5.38a2.67,2.67,0,0,0,1.55.49.73.73,0,1,1,0,1.45,4.12,4.12,0,0,1-2.91-1.19l-.43.24a3.86,3.86,0,0,1,2,2.86,11.72,11.72,0,0,1-.58,3.86,6.14,6.14,0,0,1,5.1,1.48c.11-.48.24-1,.36-1.39s.16-.57.22-.79c.36-1.58,1.2-1.6,2.18-1.47l.62.07.28,0c.92.07,3.36.25,3.75-.49a4.69,4.69,0,0,0,.14-1.9c0-.35,0-.69,0-1s0-.28.94-1.31l.44-.49a3.46,3.46,0,0,0-.37-.21C121.35,90.69,119.79,87.22,119.19,85.8Z"/><path class="cls-1" d="M112.43,72.32a4.91,4.91,0,0,0-.65,2.8l3.53-1.58-1.11-3a1.14,1.14,0,0,0-.11.11A12.45,12.45,0,0,0,112.43,72.32Z"/><polygon class="cls-1" points="102.24 111.11 121.02 111.11 121.01 111.06 102.24 111.06 102.24 111.11"/><polygon class="cls-1" points="121.01 111.06 121.01 111.02 102.25 111.02 102.24 111.06 121.01 111.06"/><path class="cls-2" d="M123.4,90.12c-1.19-.63-1.77-2.12-2.26-3.29a9.26,9.26,0,0,1-.8-2c-.08-.66.24-1.2,0-1.89-1.9-5.16-3.81-10.34-5.7-15.49l-1-2.71a2.12,2.12,0,0,0-1.18-1.24,1.86,1.86,0,0,0-1.55,0L95.07,71.24a5.16,5.16,0,0,0-2.78,3.84,5.66,5.66,0,0,0,1.46,5l.15.16q2.94,3,5.86,6l3.55,3.65a29.86,29.86,0,0,0,3.39,3.36c.6.44,1.48,1,1.51,1.83a9,9,0,0,1-1.09,4.58c-.36.5-.75,1-1.14,1.43a13.32,13.32,0,0,0-2,3,18.48,18.48,0,0,0-1.6,5.53h1.46a17,17,0,0,1,1.45-4.92A12.38,12.38,0,0,1,107.1,102c.36-.43.74-.88,1.1-1.37s1.86-.44,2.35-.38c2.5.27,3.24,2.46,4.91,3.94.17.15.33.29.46.42a14.17,14.17,0,0,1,3.44,4.94h1.51a14.67,14.67,0,0,0-3.91-6c-.17-.18-.36-.34-.54-.5-.46-.41-.9-.8-1-1.23a8.42,8.42,0,0,1,.47-2.5c.09-.31.17-.61.23-.86a1.46,1.46,0,0,1,.13-.4l.45,0c.2,0,.43.06.71.08l.27,0c1.62.12,4.32.32,5.15-1.27a5.28,5.28,0,0,0,.3-2.64c0-.22,0-.44,0-.63l1.28-1.43a.9.9,0,0,0,.33-.67C124.78,91,124.09,90.49,123.4,90.12Zm-9.2-19.58,1.11,3-3.53,1.58a4.91,4.91,0,0,1,.65-2.8,12.45,12.45,0,0,1,1.66-1.67A1.14,1.14,0,0,1,114.2,70.54ZM97.32,81.62,94.79,79a4.25,4.25,0,0,1-1.07-3.69,3.72,3.72,0,0,1,2-2.78l15.82-7.66a.39.39,0,0,1,.2,0,.48.48,0,0,1,.18,0,.68.68,0,0,1,.36.4l1.39,3.79-.55.5a14.06,14.06,0,0,0-1.83,1.87,7.08,7.08,0,0,0-1,4.34l-13,5.84ZM106.88,91a.47.47,0,0,1-.59-.11l-7.9-8.13,13-5.82h0l4.47-2L119,83.47a.8.8,0,0,1-.28,1Zm15.77,1.14c-.92,1-.94,1-.94,1.31s0,.65,0,1a4.69,4.69,0,0,1-.14,1.9c-.39.74-2.83.56-3.75.49l-.28,0-.62-.07c-1-.13-1.82-.11-2.18,1.47-.06.22-.13.5-.22.79s-.25.91-.36,1.39a6.14,6.14,0,0,0-5.1-1.48,11.72,11.72,0,0,0,.58-3.86,3.86,3.86,0,0,0-2-2.86l.43-.24a4.12,4.12,0,0,0,2.91,1.19.73.73,0,1,0,0-1.45,2.67,2.67,0,0,1-1.55-.49l9.69-5.38c.6,1.42,2.16,4.89,3.53,5.61a3.46,3.46,0,0,1,.37.21Z"/><path class="cls-2" d="M121,111h1.11v3H101.05v-3h1.2l.09-1.3a.78.78,0,0,1,0-.16h-1.55a1.23,1.23,0,0,0-1.23,1.22v3.51a1.23,1.23,0,0,0,1.23,1.23h21.55a1.23,1.23,0,0,0,1.23-1.23v-3.51a1.23,1.23,0,0,0-1.23-1.22h-1.49a1.42,1.42,0,0,0,0,.16Z"/><path class="cls-2" d="M103.82,109.56h-1.46a.78.78,0,0,0,0,.16l-.09,1.3H121l-.09-1.3a1.42,1.42,0,0,1,0-.16H103.82Z"/><g class="cls-3"><path d="M45.42,148.47a.91.91,0,0,0,.66-.28l.32-.31a.94.94,0,0,0,0-1.27,10.37,10.37,0,0,1-.08-13.41.94.94,0,0,0,0-1.26l-.32-.31a.94.94,0,0,0-.66-.27h0a.92.92,0,0,0-.67.33,12.65,12.65,0,0,0,.1,16.45.91.91,0,0,0,.67.33h0"/><path d="M41.34,152.55a1,1,0,0,0,.66-.27l.31-.31a.93.93,0,0,0,0-1.29,16.12,16.12,0,0,1-.09-21.54.93.93,0,0,0,0-1.28l-.31-.31a.94.94,0,0,0-.66-.28h0a.91.91,0,0,0-.67.32,18.39,18.39,0,0,0,.1,24.65.94.94,0,0,0,.67.31h0"/></g><g class="cls-3"><path d="M173.79,131.36a.91.91,0,0,0-.66.27l-.31.31a.93.93,0,0,0,0,1.27,10.34,10.34,0,0,1,.08,13.41.94.94,0,0,0,.06,1.26l.31.31a.91.91,0,0,0,.66.27h0a1,1,0,0,0,.68-.33,12.68,12.68,0,0,0-.1-16.45.91.91,0,0,0-.67-.32h0"/><path d="M177.88,127.27a1,1,0,0,0-.67.28l-.31.31a.93.93,0,0,0,0,1.28,16.11,16.11,0,0,1,.09,21.55.93.93,0,0,0,0,1.28l.31.31a.94.94,0,0,0,.66.27h0a.94.94,0,0,0,.67-.31,18.42,18.42,0,0,0-.09-24.66,1,1,0,0,0-.67-.31h0"/></g><path class="cls-4" d="M156.59,155.83h-94c-4.2,0-7.62-2.28-7.62-5.09V129.08c0-2.81,3.42-5.09,7.62-5.09h94c4.21,0,7.62,2.28,7.62,5.09v21.66C164.21,153.55,160.8,155.83,156.59,155.83Z"/></svg>