<svg id="Livello_1" data-name="Livello 1" xmlns="http://www.w3.org/2000/svg" viewBox="0 0 220 220"><defs><style>.cls-1,.cls-2{fill:#fff;}.cls-1,.cls-3{stroke:#000;stroke-miterlimit:10;}.cls-1{stroke-width:2.32px;}.cls-3{stroke-width:0.4px;}.cls-4{fill:none;stroke:#1c1c1b;stroke-linecap:round;stroke-linejoin:round;stroke-width:1.86px;}</style></defs><title>icon_audiofiles</title><path class="cls-1" d="M85.71,125.37V84.84a3.16,3.16,0,0,0-3.19-3.12H48.89a3.16,3.16,0,0,0-3.19,3.12V98.76l-5,8a.89.89,0,0,0-.15.5v8.78H43v7l-2.44,1.83v13.13A2.41,2.41,0,0,0,43,140.43H82.52a3.16,3.16,0,0,0,3.19-3.12V125.37Z"/><rect x="50.44" y="87.39" width="4.23" height="7.72" rx="0.13"/><rect x="56.75" y="87.39" width="4.23" height="7.72" rx="0.13"/><rect x="63.07" y="87.39" width="4.23" height="7.72" rx="0.13"/><rect x="69.39" y="87.39" width="4.23" height="7.72" rx="0.13"/><rect x="75.71" y="87.39" width="4.23" height="7.72" rx="0.13"/><rect x="50.44" y="111.3" width="29.5" height="22.23" rx="0.42"/><path class="cls-2" d="M162.82,102.56,158.9,91.9l-5.56,2.5h0l-16.12,7.23,9.83,10.12a.6.6,0,0,0,.74.14l14.68-8.15A1,1,0,0,0,162.82,102.56Z"/><polygon class="cls-2" points="140.53 140.62 166.76 140.62 166.76 136.85 165.37 136.85 165.38 136.89 165.38 136.95 142.01 136.95 142.02 136.89 142.02 136.85 140.53 136.85 140.53 140.62"/><path class="cls-2" d="M153.26,87.58a18.57,18.57,0,0,1,2.28-2.33l.69-.62-1.74-4.72a.83.83,0,0,0-.45-.5.67.67,0,0,0-.22,0,.6.6,0,0,0-.24.06L133.88,89a4.63,4.63,0,0,0-2.47,3.47A5.27,5.27,0,0,0,132.75,97l3.13,3.23h0L152.08,93C152.07,91.21,152.11,89.08,153.26,87.58Z"/><path class="cls-2" d="M159,128.88c-.17-.17-.36-.34-.57-.53-2.09-1.83-3-4.56-6.12-4.9-.6-.07-2.49-.13-2.93.47s-.91,1.17-1.36,1.71a14.65,14.65,0,0,0-2.27,3.28A21.32,21.32,0,0,0,144,135h19.34A17.43,17.43,0,0,0,159,128.88Z"/><path class="cls-2" d="M163.11,105.45,151,112.15a3.43,3.43,0,0,0,1.94.61.91.91,0,1,1,0,1.81,5.18,5.18,0,0,1-3.63-1.48l-.53.3c1.17.85,2.38,1.92,2.43,3.55a14.61,14.61,0,0,1-.73,4.8,7.68,7.68,0,0,1,6.36,1.85c.12-.6.29-1.19.44-1.73.11-.37.21-.72.27-1,.46-2,1.5-2,2.72-1.82.23,0,.48.06.77.08l.35,0c1.15.08,4.18.31,4.67-.61a5.82,5.82,0,0,0,.17-2.36c0-.44,0-.86,0-1.25s0-.35,1.18-1.63l.54-.61a5,5,0,0,0-.46-.26C165.8,111.54,163.85,107.23,163.11,105.45Z"/><path class="cls-2" d="M154.7,88.67a6.17,6.17,0,0,0-.81,3.49l4.38-2-1.37-3.74-.14.13A16.8,16.8,0,0,0,154.7,88.67Z"/><polygon class="cls-2" points="142.01 136.95 165.38 136.95 165.38 136.89 142.02 136.89 142.01 136.95"/><polygon class="cls-2" points="165.38 136.89 165.37 136.85 142.02 136.85 142.02 136.89 165.38 136.89"/><path class="cls-3" d="M168.35,110.84c-1.49-.79-2.21-2.65-2.82-4.1a11.4,11.4,0,0,1-1-2.45c-.11-.82.28-1.5,0-2.36-2.36-6.43-4.75-12.86-7.1-19.27l-1.23-3.37a2.62,2.62,0,0,0-1.47-1.55,2.32,2.32,0,0,0-1.93.06l-19.7,9.54a6.42,6.42,0,0,0-3.47,4.77,7.08,7.08,0,0,0,1.83,6.17l.18.19q3.66,3.75,7.3,7.51l4.41,4.55a37,37,0,0,0,4.22,4.18c.74.55,1.85,1.25,1.88,2.29a11.2,11.2,0,0,1-1.36,5.69c-.44.63-.93,1.21-1.41,1.78a16.83,16.83,0,0,0-2.52,3.67,23,23,0,0,0-2,6.88H144a21.32,21.32,0,0,1,1.82-6.11,14.65,14.65,0,0,1,2.27-3.28c.45-.54.92-1.1,1.36-1.71s2.33-.54,2.93-.47c3.11.34,4,3.07,6.12,4.9.21.19.4.36.57.53a17.43,17.43,0,0,1,4.27,6.14h1.88c-.81-3-3-5.49-4.86-7.4-.21-.22-.44-.43-.67-.63-.57-.5-1.12-1-1.18-1.52a10.67,10.67,0,0,1,.58-3.12c.11-.39.22-.75.29-1.06a2.14,2.14,0,0,1,.17-.51,4.55,4.55,0,0,1,.55.06l.88.1.35,0c2,.15,5.37.4,6.4-1.58a6.65,6.65,0,0,0,.38-3.28c0-.28,0-.55,0-.78l1.6-1.79a1.12,1.12,0,0,0,.4-.83C170.07,111.86,169.2,111.29,168.35,110.84ZM156.9,86.46l1.37,3.74-4.38,2a6.17,6.17,0,0,1,.81-3.49,16.8,16.8,0,0,1,2.06-2.08Zm-21,13.79L132.75,97a5.27,5.27,0,0,1-1.34-4.59A4.63,4.63,0,0,1,133.88,89l19.7-9.53a.6.6,0,0,1,.24-.06.67.67,0,0,1,.22,0,.83.83,0,0,1,.45.5l1.74,4.72-.69.62a18.57,18.57,0,0,0-2.28,2.33c-1.15,1.5-1.19,3.63-1.18,5.4l-16.19,7.27Zm11.91,11.64a.6.6,0,0,1-.74-.14l-9.83-10.12,16.12-7.23h0l5.56-2.5,3.92,10.66a1,1,0,0,1-.35,1.18Zm19.63,1.42c-1.15,1.28-1.17,1.31-1.18,1.63s0,.81,0,1.25a5.82,5.82,0,0,1-.17,2.36c-.49.92-3.52.69-4.67.61l-.35,0c-.29,0-.54,0-.77-.08-1.22-.17-2.26-.14-2.72,1.82-.06.27-.16.62-.27,1-.15.54-.32,1.13-.44,1.73a7.68,7.68,0,0,0-6.36-1.85,14.61,14.61,0,0,0,.73-4.8c-.05-1.63-1.26-2.7-2.43-3.55l.53-.3a5.18,5.18,0,0,0,3.63,1.48.91.91,0,1,0,0-1.81,3.43,3.43,0,0,1-1.94-.61l12.07-6.7c.74,1.78,2.69,6.09,4.39,7a5,5,0,0,1,.46.26Z"/><path class="cls-3" d="M165.37,136.85h1.39v3.77H140.53v-3.77H142l.11-1.63a1.2,1.2,0,0,0,0-.2h-1.93a1.53,1.53,0,0,0-1.52,1.53v4.37a1.52,1.52,0,0,0,1.52,1.52h26.83a1.52,1.52,0,0,0,1.52-1.52v-4.37a1.53,1.53,0,0,0-1.52-1.53h-1.87c0,.07.05.13.07.2Z"/><path class="cls-3" d="M144,135h-1.81a1.2,1.2,0,0,1,0,.2l-.11,1.63h23.35l-.11-1.63c0-.07,0-.13-.07-.2H144Z"/><line class="cls-4" x1="109.85" y1="83.84" x2="109.85" y2="142.44"/></svg>