<svg id="Livello_1" data-name="Livello 1" xmlns="http://www.w3.org/2000/svg" viewBox="0 0 77 112"><defs><style>.cls-1{fill:#fff;}.cls-2{stroke:#000;stroke-miterlimit:10;stroke-width:0.61px;}</style></defs><title>icon_nefertiti</title><path class="cls-1" d="M53.12,44.78l-5.89-16-8.35,3.75h0L14.69,43.39,29.44,58.58a.9.9,0,0,0,1.11.21l22-12.24A1.46,1.46,0,0,0,53.12,44.78Z"/><polygon class="cls-1" points="19.66 101.91 59.02 101.91 59.02 96.25 56.95 96.25 56.95 96.32 56.96 96.41 21.88 96.41 21.89 96.32 21.89 96.25 19.66 96.25 19.66 101.91"/><path class="cls-1" d="M38.76,22.3a27.65,27.65,0,0,1,3.43-3.5l1-.93-2.6-7.08a1.26,1.26,0,0,0-.67-.75.81.81,0,0,0-.33-.07.91.91,0,0,0-.37.09L9.68,24.38A6.92,6.92,0,0,0,6,29.57a7.9,7.9,0,0,0,2,6.89l4.71,4.86h0L37,30.4C37,27.75,37,24.56,38.76,22.3Z"/><path class="cls-1" d="M47.44,84.29c-.25-.25-.55-.51-.86-.79-3.13-2.76-4.51-6.85-9.18-7.36-.9-.1-3.74-.2-4.39.71s-1.37,1.76-2,2.57a22.2,22.2,0,0,0-3.41,4.91,32.18,32.18,0,0,0-2.73,9.19h29C52.65,90,49.85,86.76,47.44,84.29Z"/><path class="cls-1" d="M53.55,49.13l-18.11,10a5,5,0,0,0,2.91.91,1.36,1.36,0,0,1,0,2.72,7.78,7.78,0,0,1-5.46-2.22l-.8.45c1.76,1.28,3.58,2.89,3.66,5.33a21.83,21.83,0,0,1-1.1,7.21,11.49,11.49,0,0,1,9.54,2.77c.19-.89.44-1.78.67-2.59.16-.56.31-1.08.4-1.48.69-3,2.26-3,4.09-2.75.34,0,.72.1,1.15.13l.53,0c1.72.13,6.28.47,7-.92a8.52,8.52,0,0,0,.26-3.54c0-.66-.06-1.29,0-1.87s0-.52,1.77-2.45l.81-.92q-.26-.16-.69-.39C57.59,58.26,54.66,51.79,53.55,49.13Z"/><path class="cls-1" d="M40.92,23.94c-1,1.28-1.17,3.27-1.21,5.24l6.58-2.95-2.06-5.61-.22.2A25.22,25.22,0,0,0,40.92,23.94Z"/><polygon class="cls-1" points="21.88 96.41 56.96 96.41 56.95 96.32 21.89 96.32 21.88 96.41"/><polygon class="cls-1" points="56.95 96.32 56.95 96.25 21.89 96.25 21.89 96.32 56.95 96.32"/><path class="cls-2" d="M61.41,57.21c-2.22-1.18-3.31-4-4.22-6.15a17.11,17.11,0,0,1-1.49-3.68c-.16-1.23.44-2.25,0-3.54C52.12,34.19,48.54,24.53,45,14.91L43.16,9.85A4,4,0,0,0,41,7.52a3.51,3.51,0,0,0-2.89.1L8.49,21.93A9.65,9.65,0,0,0,3.28,29.1,10.64,10.64,0,0,0,6,38.35l.28.29,11,11.29,6.62,6.81c2,2.1,4,4.57,6.34,6.29,1.11.82,2.78,1.87,2.82,3.43.08,2.6-.68,6.61-2,8.54-.66.94-1.4,1.83-2.11,2.68a25,25,0,0,0-3.8,5.5,34.63,34.63,0,0,0-3,10.34h2.71a32.18,32.18,0,0,1,2.73-9.19A22.2,22.2,0,0,1,31,79.42c.68-.81,1.38-1.65,2-2.57s3.49-.81,4.39-.71c4.67.51,6.05,4.6,9.18,7.36.31.28.61.54.86.79,2.41,2.47,5.21,5.66,6.42,9.23h2.82c-1.22-4.45-4.49-8.26-7.3-11.12-.32-.33-.67-.64-1-.94-.86-.76-1.68-1.48-1.77-2.29a16,16,0,0,1,.87-4.67c.17-.59.33-1.14.43-1.61a4,4,0,0,1,.25-.75c.2,0,.55,0,.84.08s.81.11,1.32.15l.52,0c3,.22,8.06.6,9.61-2.37.73-1.41.64-3.28.56-4.93,0-.42,0-.82,0-1.18l2.4-2.68A1.62,1.62,0,0,0,64,60C64,58.75,62.69,57.88,61.41,57.21ZM44.23,20.62l2.06,5.61-6.58,2.95c0-2,.24-4,1.21-5.24A25.22,25.22,0,0,1,44,20.82ZM12.68,41.32,8,36.46a7.9,7.9,0,0,1-2-6.89,6.92,6.92,0,0,1,3.72-5.19L39.24,10.06a.91.91,0,0,1,.37-.09.81.81,0,0,1,.33.07,1.26,1.26,0,0,1,.67.75l2.6,7.08-1,.93a27.65,27.65,0,0,0-3.43,3.5C37,24.56,37,27.75,37,30.4L12.69,41.31ZM30.55,58.79a.9.9,0,0,1-1.11-.21L14.69,43.39,38.88,32.53h0l8.35-3.75,5.89,16a1.46,1.46,0,0,1-.54,1.77ZM60,60.92c-1.73,1.93-1.76,2-1.77,2.45s0,1.21,0,1.87A8.52,8.52,0,0,1,58,68.78c-.72,1.39-5.28,1-7,.92l-.53,0c-.43,0-.81-.08-1.15-.13-1.83-.24-3.4-.2-4.09,2.75-.09.4-.24.92-.4,1.48-.23.81-.48,1.7-.67,2.59a11.49,11.49,0,0,0-9.54-2.77,21.83,21.83,0,0,0,1.1-7.21c-.08-2.44-1.9-4.05-3.66-5.33l.8-.45a7.78,7.78,0,0,0,5.46,2.22,1.36,1.36,0,0,0,0-2.72,5,5,0,0,1-2.91-.91l18.11-10c1.11,2.66,4,9.13,6.59,10.48q.44.22.69.39Z"/><path class="cls-2" d="M57,96.25H59v5.66H19.66V96.25h2.23l.17-2.44a2.5,2.5,0,0,1,.05-.29h-2.9a2.28,2.28,0,0,0-2.29,2.28v6.56a2.29,2.29,0,0,0,2.29,2.29H59.47a2.29,2.29,0,0,0,2.29-2.29V95.8a2.28,2.28,0,0,0-2.29-2.28H56.68c0,.1.06.19.09.29Z"/><path class="cls-2" d="M24.82,93.52H22.11a2.5,2.5,0,0,0-.05.29l-.17,2.44H57l-.18-2.44c0-.1-.07-.19-.09-.29H24.82Z"/></svg>