<svg id="Livello_1" data-name="Livello 1" xmlns="http://www.w3.org/2000/svg" viewBox="0 0 64 75"><defs><style>.cls-1{fill:#fff;stroke:#000;stroke-miterlimit:10;stroke-width:2.04px;}</style></defs><title>icon_sd_card</title><path class="cls-1" d="M50,50.53V15a2.77,2.77,0,0,0-2.8-2.74H17.67A2.77,2.77,0,0,0,14.87,15V27.17l-4.35,7a.9.9,0,0,0-.13.44v7.71h2.14v6.18l-2.14,1.61V61.67a2.11,2.11,0,0,0,2.14,2.08H47.19A2.76,2.76,0,0,0,50,61V50.53Z"/><rect x="19.03" y="17.19" width="3.71" height="6.77" rx="0.13"/><rect x="24.57" y="17.19" width="3.71" height="6.77" rx="0.13"/><rect x="30.12" y="17.19" width="3.71" height="6.77" rx="0.13"/><rect x="35.66" y="17.19" width="3.71" height="6.77" rx="0.13"/><rect x="41.21" y="17.19" width="3.71" height="6.77" rx="0.13"/><rect x="19.03" y="38.18" width="25.9" height="19.52" rx="0.42"/></svg>