<svg id="Livello_1" data-name="Livello 1" xmlns="http://www.w3.org/2000/svg" viewBox="0 0 856 744"><defs><style>.cls-1,.cls-11,.cls-14,.cls-15,.cls-16,.cls-2,.cls-21,.cls-22,.cls-25,.cls-3{fill:#fff;}.cls-1,.cls-10,.cls-11,.cls-12,.cls-14,.cls-15,.cls-16,.cls-2,.cls-20,.cls-21,.cls-22,.cls-23,.cls-24,.cls-25,.cls-26,.cls-4,.cls-5,.cls-9{stroke:#000;stroke-miterlimit:10;}.cls-1{stroke-width:4.29px;}.cls-2{stroke-width:4.51px;}.cls-18,.cls-2,.cls-4,.cls-8{opacity:0.8;}.cls-4{stroke-width:1.43px;}.cls-5{fill:#00acdd;stroke-width:1.11px;}.cls-20,.cls-23,.cls-6{fill:none;}.cls-7{opacity:0.4;}.cls-9{stroke-width:1.7px;}.cls-10{stroke-width:0.87px;}.cls-11{stroke-width:1.23px;}.cls-12{stroke-width:1.39px;}.cls-13,.cls-17{opacity:0.7;}.cls-14{stroke-width:2.05px;}.cls-15{stroke-width:2.04px;}.cls-16{stroke-width:1.55px;}.cls-19{opacity:0.9;}.cls-20{stroke-width:1.5px;}.cls-21{stroke-width:3.76px;}.cls-22{stroke-width:3.32px;}.cls-23{stroke-linecap:round;stroke-width:2.54px;}.cls-24{stroke-width:0.61px;}.cls-25{stroke-width:1.84px;}.cls-26{stroke-width:0.67px;}</style></defs><title>kit_contents</title><circle class="cls-1" cx="143.85" cy="394.03" r="47.62"/><circle class="cls-2" cx="143.85" cy="394.03" r="38.58"/><path d="M143.85,410A15.94,15.94,0,1,1,159.79,394,16,16,0,0,1,143.85,410Zm0-28.2A12.26,12.26,0,1,0,156.11,394,12.27,12.27,0,0,0,143.85,381.77Z"/><circle cx="143.85" cy="394.03" r="9.78"/><path class="cls-3" d="M124.85,541.74a.5.5,0,0,0,.5.5h2.51a.5.5,0,0,0,.5-.5V524.57h-3.51Z"/><rect class="cls-3" x="120.27" y="520.43" width="12.68" height="2.62" rx="0.3"/><path d="M132.65,518.91H120.57a1.84,1.84,0,0,0-1.83,1.82v2a1.82,1.82,0,0,0,1.83,1.82h2.68v17.17a2.11,2.11,0,0,0,2.1,2.11h2.51a2.12,2.12,0,0,0,2.11-2.11V524.57h2.68a1.83,1.83,0,0,0,1.82-1.82v-2A1.83,1.83,0,0,0,132.65,518.91Zm-4.29,22.83a.5.5,0,0,1-.5.5h-2.51a.5.5,0,0,1-.5-.5V524.57h3.51Zm4.59-19a.3.3,0,0,1-.3.3H120.57a.29.29,0,0,1-.3-.3v-2a.3.3,0,0,1,.3-.3h12.08a.31.31,0,0,1,.3.3Z"/><path d="M129.88,540.81h-6.55a.54.54,0,0,1,0-1.07h6.55a.54.54,0,0,1,0,1.07Z"/><path d="M129.88,538.91h-6.55a.49.49,0,0,1-.46-.53.5.5,0,0,1,.46-.54h6.55a.51.51,0,0,1,.47.54A.5.5,0,0,1,129.88,538.91Z"/><path d="M129.88,537h-6.55a.54.54,0,0,1,0-1.07h6.55a.54.54,0,0,1,0,1.07Z"/><path d="M129.88,535.13h-6.55a.54.54,0,0,1,0-1.07h6.55a.54.54,0,0,1,0,1.07Z"/><path d="M129.88,533.24h-6.55a.54.54,0,0,1,0-1.07h6.55a.54.54,0,0,1,0,1.07Z"/><path d="M129.88,531.35h-6.55a.54.54,0,0,1,0-1.07h6.55a.54.54,0,0,1,0,1.07Z"/><path class="cls-3" d="M159.34,541.74a.5.5,0,0,0,.5.5h2.51a.5.5,0,0,0,.5-.5V524.57h-3.51Z"/><rect class="cls-3" x="154.75" y="520.43" width="12.68" height="2.62" rx="0.3"/><path d="M167.13,518.91H155.06a1.83,1.83,0,0,0-1.83,1.82v2a1.82,1.82,0,0,0,1.83,1.82h2.68v17.17a2.11,2.11,0,0,0,2.1,2.11h2.51a2.11,2.11,0,0,0,2.1-2.11V524.57h2.68a1.83,1.83,0,0,0,1.83-1.82v-2A1.83,1.83,0,0,0,167.13,518.91Zm-4.28,22.83a.5.5,0,0,1-.5.5h-2.51a.5.5,0,0,1-.5-.5V524.57h3.51Zm4.59-19a.3.3,0,0,1-.31.3H155.06a.3.3,0,0,1-.31-.3v-2a.31.31,0,0,1,.31-.3h12.07a.31.31,0,0,1,.31.3Z"/><path d="M164.37,540.81h-6.55a.54.54,0,0,1,0-1.07h6.55a.54.54,0,0,1,0,1.07Z"/><path d="M164.37,538.91h-6.55a.5.5,0,0,1-.47-.53.51.51,0,0,1,.47-.54h6.55a.51.51,0,0,1,.47.54A.5.5,0,0,1,164.37,538.91Z"/><path d="M164.37,537h-6.55a.54.54,0,0,1,0-1.07h6.55a.54.54,0,0,1,0,1.07Z"/><path d="M164.37,535.13h-6.55a.54.54,0,0,1,0-1.07h6.55a.54.54,0,0,1,0,1.07Z"/><path d="M164.37,533.24h-6.55a.54.54,0,0,1,0-1.07h6.55a.54.54,0,0,1,0,1.07Z"/><path d="M164.37,531.35h-6.55a.54.54,0,0,1,0-1.07h6.55a.54.54,0,0,1,0,1.07Z"/><path class="cls-3" d="M124.85,582.9a.51.51,0,0,0,.5.51h2.51a.5.5,0,0,0,.5-.51V565.74h-3.51Z"/><rect class="cls-3" x="120.27" y="561.59" width="12.68" height="2.62" rx="0.3"/><path d="M132.65,560.07H120.57a1.84,1.84,0,0,0-1.83,1.83v2a1.83,1.83,0,0,0,1.83,1.83h2.68V582.9a2.11,2.11,0,0,0,2.1,2.11h2.51A2.12,2.12,0,0,0,130,582.9V565.74h2.68a1.83,1.83,0,0,0,1.82-1.83v-2A1.83,1.83,0,0,0,132.65,560.07Zm-4.29,22.83a.5.5,0,0,1-.5.51h-2.51a.51.51,0,0,1-.5-.51V565.74h3.51Zm4.59-19a.3.3,0,0,1-.3.3H120.57a.29.29,0,0,1-.3-.3v-2a.3.3,0,0,1,.3-.31h12.08a.31.31,0,0,1,.3.31Z"/><path d="M129.88,582h-6.55a.54.54,0,0,1,0-1.07h6.55a.54.54,0,0,1,0,1.07Z"/><path d="M129.88,580.08h-6.55a.54.54,0,0,1,0-1.07h6.55a.54.54,0,0,1,0,1.07Z"/><path d="M129.88,578.19h-6.55a.54.54,0,0,1,0-1.07h6.55a.54.54,0,0,1,0,1.07Z"/><path d="M129.88,576.29h-6.55a.54.54,0,0,1,0-1.06h6.55a.53.53,0,0,1,0,1.06Z"/><path d="M129.88,574.4h-6.55a.54.54,0,0,1,0-1.07h6.55a.54.54,0,0,1,0,1.07Z"/><path d="M129.88,572.51h-6.55a.54.54,0,0,1,0-1.07h6.55a.54.54,0,0,1,0,1.07Z"/><path class="cls-3" d="M159.34,582.9a.51.51,0,0,0,.5.51h2.51a.5.5,0,0,0,.5-.51V565.74h-3.51Z"/><rect class="cls-3" x="154.75" y="561.59" width="12.68" height="2.62" rx="0.3"/><path d="M167.13,560.07H155.06a1.83,1.83,0,0,0-1.83,1.83v2a1.83,1.83,0,0,0,1.83,1.83h2.68V582.9a2.11,2.11,0,0,0,2.1,2.11h2.51a2.11,2.11,0,0,0,2.1-2.11V565.74h2.68a1.83,1.83,0,0,0,1.83-1.83v-2A1.83,1.83,0,0,0,167.13,560.07Zm-4.28,22.83a.5.5,0,0,1-.5.51h-2.51a.51.51,0,0,1-.5-.51V565.74h3.51Zm4.59-19a.3.3,0,0,1-.31.3H155.06a.3.3,0,0,1-.31-.3v-2a.31.31,0,0,1,.31-.31h12.07a.31.31,0,0,1,.31.31Z"/><path d="M164.37,582h-6.55a.54.54,0,0,1,0-1.07h6.55a.54.54,0,0,1,0,1.07Z"/><path d="M164.37,580.08h-6.55a.54.54,0,0,1,0-1.07h6.55a.54.54,0,0,1,0,1.07Z"/><path d="M164.37,578.19h-6.55a.54.54,0,0,1,0-1.07h6.55a.54.54,0,0,1,0,1.07Z"/><path d="M164.37,576.29h-6.55a.53.53,0,0,1,0-1.06h6.55a.53.53,0,0,1,0,1.06Z"/><path d="M164.37,574.4h-6.55a.54.54,0,0,1,0-1.07h6.55a.54.54,0,0,1,0,1.07Z"/><path d="M164.37,572.51h-6.55a.54.54,0,0,1,0-1.07h6.55a.54.54,0,0,1,0,1.07Z"/><path class="cls-3" d="M124.85,624.07a.51.51,0,0,0,.5.5h2.51a.5.5,0,0,0,.5-.5V606.9h-3.51Z"/><rect class="cls-3" x="120.27" y="602.76" width="12.68" height="2.62" rx="0.3"/><path d="M132.65,601.23H120.57a1.84,1.84,0,0,0-1.83,1.83v2a1.83,1.83,0,0,0,1.83,1.82h2.68v17.17a2.1,2.1,0,0,0,2.1,2.1h2.51a2.11,2.11,0,0,0,2.11-2.1V606.9h2.68a1.83,1.83,0,0,0,1.82-1.83v-2A1.83,1.83,0,0,0,132.65,601.23Zm-4.29,22.84a.5.5,0,0,1-.5.5h-2.51a.51.51,0,0,1-.5-.5V606.9h3.51Zm4.59-19a.31.31,0,0,1-.3.3H120.57a.3.3,0,0,1-.3-.31v-2a.29.29,0,0,1,.3-.3h12.08a.3.3,0,0,1,.3.3Z"/><path d="M129.88,623.13h-6.55a.54.54,0,0,1,0-1.07h6.55a.54.54,0,0,1,0,1.07Z"/><path d="M129.88,621.24h-6.55a.54.54,0,0,1,0-1.07h6.55a.54.54,0,0,1,0,1.07Z"/><path d="M129.88,619.35h-6.55a.54.54,0,0,1,0-1.07h6.55a.54.54,0,0,1,0,1.07Z"/><path d="M129.88,617.46h-6.55a.54.54,0,0,1,0-1.07h6.55a.54.54,0,0,1,0,1.07Z"/><path d="M129.88,615.57h-6.55a.54.54,0,0,1,0-1.07h6.55a.54.54,0,0,1,0,1.07Z"/><path d="M129.88,613.68h-6.55a.5.5,0,0,1-.46-.54.49.49,0,0,1,.46-.53h6.55a.5.5,0,0,1,.47.53A.51.51,0,0,1,129.88,613.68Z"/><path class="cls-3" d="M159.34,624.07a.51.51,0,0,0,.5.5h2.51a.5.5,0,0,0,.5-.5V606.9h-3.51Z"/><rect class="cls-3" x="154.75" y="602.76" width="12.68" height="2.62" rx="0.3"/><path d="M167.13,601.23H155.06a1.84,1.84,0,0,0-1.83,1.83v2a1.83,1.83,0,0,0,1.83,1.82h2.68v17.17a2.1,2.1,0,0,0,2.1,2.1h2.51a2.1,2.1,0,0,0,2.1-2.1V606.9h2.68a1.83,1.83,0,0,0,1.83-1.83v-2A1.83,1.83,0,0,0,167.13,601.23Zm-4.28,22.84a.5.5,0,0,1-.5.5h-2.51a.51.51,0,0,1-.5-.5V606.9h3.51Zm4.59-19a.31.31,0,0,1-.31.3H155.06a.31.31,0,0,1-.31-.31v-2a.3.3,0,0,1,.31-.3h12.07a.3.3,0,0,1,.31.3Z"/><path d="M164.37,623.13h-6.55a.54.54,0,0,1,0-1.07h6.55a.54.54,0,0,1,0,1.07Z"/><path d="M164.37,621.24h-6.55a.54.54,0,0,1,0-1.07h6.55a.54.54,0,0,1,0,1.07Z"/><path d="M164.37,619.35h-6.55a.54.54,0,0,1,0-1.07h6.55a.54.54,0,0,1,0,1.07Z"/><path d="M164.37,617.46h-6.55a.54.54,0,0,1,0-1.07h6.55a.54.54,0,0,1,0,1.07Z"/><path d="M164.37,615.57h-6.55a.54.54,0,0,1,0-1.07h6.55a.54.54,0,0,1,0,1.07Z"/><path d="M164.37,613.68h-6.55a.51.51,0,0,1-.47-.54.5.5,0,0,1,.47-.53h6.55a.5.5,0,0,1,.47.53A.51.51,0,0,1,164.37,613.68Z"/><path class="cls-3" d="M124.85,665.23a.5.5,0,0,0,.5.5h2.51a.5.5,0,0,0,.5-.5V648.06h-3.51Z"/><rect class="cls-3" x="120.27" y="643.92" width="12.68" height="2.62" rx="0.3"/><path d="M132.65,642.4H120.57a1.84,1.84,0,0,0-1.83,1.82v2a1.82,1.82,0,0,0,1.83,1.82h2.68v17.17a2.1,2.1,0,0,0,2.1,2.1h2.51a2.11,2.11,0,0,0,2.11-2.1V648.06h2.68a1.83,1.83,0,0,0,1.82-1.82v-2A1.82,1.82,0,0,0,132.65,642.4Zm-4.29,22.83a.5.5,0,0,1-.5.5h-2.51a.5.5,0,0,1-.5-.5V648.06h3.51Zm4.59-19a.31.31,0,0,1-.3.3H120.57a.3.3,0,0,1-.3-.3v-2a.29.29,0,0,1,.3-.3h12.08a.31.31,0,0,1,.3.3Z"/><path d="M129.88,664.29h-6.55a.54.54,0,0,1,0-1.07h6.55a.54.54,0,0,1,0,1.07Z"/><path d="M129.88,662.4h-6.55a.54.54,0,0,1,0-1.07h6.55a.54.54,0,0,1,0,1.07Z"/><path d="M129.88,660.51h-6.55a.54.54,0,0,1,0-1.07h6.55a.54.54,0,0,1,0,1.07Z"/><path d="M129.88,658.62h-6.55a.54.54,0,0,1,0-1.07h6.55a.54.54,0,0,1,0,1.07Z"/><path d="M129.88,656.73h-6.55a.54.54,0,0,1,0-1.07h6.55a.54.54,0,0,1,0,1.07Z"/><path d="M129.88,654.84h-6.55a.54.54,0,0,1,0-1.07h6.55a.54.54,0,0,1,0,1.07Z"/><path class="cls-3" d="M159.34,665.23a.5.5,0,0,0,.5.5h2.51a.5.5,0,0,0,.5-.5V648.06h-3.51Z"/><rect class="cls-3" x="154.75" y="643.92" width="12.68" height="2.62" rx="0.3"/><path d="M167.13,642.4H155.06a1.83,1.83,0,0,0-1.83,1.82v2a1.82,1.82,0,0,0,1.83,1.82h2.68v17.17a2.1,2.1,0,0,0,2.1,2.1h2.51a2.1,2.1,0,0,0,2.1-2.1V648.06h2.68a1.83,1.83,0,0,0,1.83-1.82v-2A1.82,1.82,0,0,0,167.13,642.4Zm-4.28,22.83a.5.5,0,0,1-.5.5h-2.51a.5.5,0,0,1-.5-.5V648.06h3.51Zm4.59-19a.31.31,0,0,1-.31.3H155.06a.31.31,0,0,1-.31-.3v-2a.3.3,0,0,1,.31-.3h12.07a.31.31,0,0,1,.31.3Z"/><path d="M164.37,664.29h-6.55a.54.54,0,0,1,0-1.07h6.55a.54.54,0,0,1,0,1.07Z"/><path d="M164.37,662.4h-6.55a.54.54,0,0,1,0-1.07h6.55a.54.54,0,0,1,0,1.07Z"/><path d="M164.37,660.51h-6.55a.54.54,0,0,1,0-1.07h6.55a.54.54,0,0,1,0,1.07Z"/><path d="M164.37,658.62h-6.55a.54.54,0,0,1,0-1.07h6.55a.54.54,0,0,1,0,1.07Z"/><path d="M164.37,656.73h-6.55a.54.54,0,0,1,0-1.07h6.55a.54.54,0,0,1,0,1.07Z"/><path d="M164.37,654.84h-6.55a.54.54,0,0,1,0-1.07h6.55a.54.54,0,0,1,0,1.07Z"/><path class="cls-3" d="M347.73,245.17A80.11,80.11,0,0,0,324.16,302V353.6A80.47,80.47,0,0,0,404.54,434H533.09a80.47,80.47,0,0,0,80.37-80.37V302a80.47,80.47,0,0,0-80.37-80.37H404.54A80.12,80.12,0,0,0,347.73,245.17Zm121.08,176a6.5,6.5,0,1,1,6.5-6.5A6.5,6.5,0,0,1,468.81,421.17ZM447.39,276.11h42.84a43.12,43.12,0,0,1,43.08,43.08v17.2a43.13,43.13,0,0,1-43.08,43.08H447.39a43.13,43.13,0,0,1-43.08-43.08v-17.2A43.13,43.13,0,0,1,447.39,276.11Z"/><path class="cls-3" d="M515.25,294.17a35.27,35.27,0,0,0-25-10.38H447.39a35.46,35.46,0,0,0-35.4,35.4v17.2a35.46,35.46,0,0,0,35.4,35.39h42.84a35.44,35.44,0,0,0,35.4-35.39v-17.2A35.27,35.27,0,0,0,515.25,294.17Zm3,42.22a28.1,28.1,0,0,1-28.07,28.06H447.39a28.09,28.09,0,0,1-28.06-28.06V319.18a28.09,28.09,0,0,1,28.06-28.06h42.84a28.1,28.1,0,0,1,28.07,28.06Z"/><rect class="cls-3" x="419.33" y="291.12" width="98.97" height="73.33" rx="28.06"/><rect x="419.33" y="291.12" width="98.97" height="73.33" rx="28.06"/><path class="cls-3" d="M468.81,408.17a6.5,6.5,0,1,0,6.5,6.5A6.5,6.5,0,0,0,468.81,408.17Z"/><path class="cls-4" d="M468.81,408.17a6.5,6.5,0,1,0,6.5,6.5A6.5,6.5,0,0,0,468.81,408.17Z"/><path d="M533.09,213.92H404.54A88.15,88.15,0,0,0,316.48,302V353.6a88.15,88.15,0,0,0,88.06,88H533.09a88.14,88.14,0,0,0,88-88V302A88.14,88.14,0,0,0,533.09,213.92ZM613.46,353.6A80.47,80.47,0,0,1,533.09,434H404.54a80.47,80.47,0,0,1-80.38-80.37V302a80.47,80.47,0,0,1,80.38-80.37H533.09A80.47,80.47,0,0,1,613.46,302Z"/><path d="M404.31,336.39a43.13,43.13,0,0,0,43.08,43.08h42.84a43.13,43.13,0,0,0,43.08-43.08h-7.68a35.44,35.44,0,0,1-35.4,35.39H447.39A35.46,35.46,0,0,1,412,336.39v-17.2a35.46,35.46,0,0,1,35.4-35.4h42.84a35.44,35.44,0,0,1,35.4,35.4v17.2h7.68v-17.2a43.12,43.12,0,0,0-43.08-43.08H447.39a43.13,43.13,0,0,0-43.08,43.08Z"/><circle class="cls-5" cx="776.19" cy="110.83" r="23.95"/><circle cx="776.19" cy="110.83" r="22.81"/><rect class="cls-3" x="764.17" y="98.81" width="24.04" height="24.04" rx="1.01"/><path class="cls-6" d="M782.28,88.9c-1.18,3.22-3.45,5.42-6.09,5.42s-4.9-2.2-6.09-5.42a22.91,22.91,0,0,0-15.69,15.16c3.43,1.14,5.81,3.49,5.81,6.23s-2.5,5.24-6.09,6.34a22.9,22.9,0,0,0,15.61,16.13c1-3.81,3.53-6.5,6.45-6.5s5.43,2.69,6.46,6.5a22.9,22.9,0,0,0,15.61-16.13c-3.59-1.1-6.1-3.52-6.1-6.34s2.39-5.09,5.82-6.23A22.93,22.93,0,0,0,782.28,88.9Z"/><path class="cls-6" d="M792.16,110.25c0-2.75,2.39-5.1,5.82-6.24a22.91,22.91,0,0,0-15.7-15.15c-1.18,3.21-3.45,5.42-6.09,5.42s-4.9-2.21-6.09-5.42A22.9,22.9,0,0,0,754.41,104c3.43,1.14,5.81,3.49,5.81,6.24s-2.5,5.23-6.09,6.33a22.9,22.9,0,0,0,15.61,16.13c1-3.8,3.53-6.49,6.45-6.49s5.43,2.69,6.46,6.49a22.9,22.9,0,0,0,15.61-16.13C794.67,115.48,792.16,113.07,792.16,110.25Z"/><path class="cls-3" d="M798.71,103.78a23.67,23.67,0,0,0-16.16-15.65,23.58,23.58,0,0,0-13,45.34A23.56,23.56,0,0,0,799,116.77a23.26,23.26,0,0,0,.79-5.94A23.51,23.51,0,0,0,798.71,103.78Zm-16.06,28.93c-1-3.8-3.53-6.49-6.46-6.49s-5.42,2.69-6.45,6.49a22.9,22.9,0,0,1-15.61-16.13c3.59-1.1,6.09-3.51,6.09-6.33s-2.38-5.1-5.81-6.24A22.9,22.9,0,0,1,770.1,88.86c1.19,3.21,3.46,5.42,6.09,5.42s4.91-2.21,6.09-5.42A22.91,22.91,0,0,1,798,104c-3.43,1.14-5.82,3.49-5.82,6.24s2.51,5.23,6.1,6.33A22.9,22.9,0,0,1,782.65,132.71Z"/><circle cx="776.19" cy="130.61" r="1.9"/><circle cx="776.19" cy="91.05" r="1.9"/><circle cx="756.41" cy="110.83" r="1.9"/><circle cx="795.98" cy="110.83" r="1.9"/><circle class="cls-7" cx="776.19" cy="110.83" r="10.46"/><rect class="cls-3" x="546.06" y="577.74" width="29.05" height="35.45" rx="1.24"/><path class="cls-3" d="M637.92,552.28a4,4,0,0,0-4.16-3.93h-33a4.05,4.05,0,0,0-4.16,3.93V575h41.29Z"/><path class="cls-3" d="M555.89,620.58c0,1.2.69,2.21,1.52,2.21h6.35c.82,0,1.52-1,1.52-2.21V615h-9.39Z"/><path class="cls-3" d="M637.92,577.17H596.54a2.78,2.78,0,0,0-2.09,1,2.82,2.82,0,0,0-.76,1.9v37.35a2.86,2.86,0,0,0,2.85,2.86H638a2.86,2.86,0,0,0,2.85-2.86V580a2.91,2.91,0,0,0-2.85-2.85Z"/><path class="cls-3" d="M570.88,564.63a1.73,1.73,0,0,0-1.69-1.76h-.3v7.58a.07.07,0,0,1-.07.07h-1.46a.08.08,0,0,1-.08-.07v-7.58h-13.4v7.59a.06.06,0,0,1-.06.06h-1.48a.07.07,0,0,1-.07-.06v-7.59H552a1.72,1.72,0,0,0-1.68,1.76V575.9h20.59Z"/><path class="cls-3" d="M558.5,652.38a.3.3,0,0,0,.3.3h3.57a.31.31,0,0,0,.3-.3V624.61H558.5Z"/><path class="cls-8" d="M558.5,652.38a.3.3,0,0,0,.3.3h3.57a.31.31,0,0,0,.3-.3V624.61H558.5Z"/><path d="M573.87,575.91h-1.21V564.63a3.51,3.51,0,0,0-3.47-3.54H552a3.5,3.5,0,0,0-3.46,3.54v11.28H547.3a3.08,3.08,0,0,0-3.07,3.07v33A3.08,3.08,0,0,0,547.3,615h6.77v5.56c0,2.22,1.5,4,3.34,4h1.09v-1.16a.29.29,0,0,1,.3-.3h3.57a.3.3,0,0,1,.3.3v1.16h1.09c1.84,0,3.34-1.81,3.34-4V615h6.77a3.08,3.08,0,0,0,3.07-3.07V579A3.08,3.08,0,0,0,573.87,575.91Zm-23.58-11.28a1.72,1.72,0,0,1,1.68-1.76h.3v7.59a.07.07,0,0,0,.07.06h1.48a.06.06,0,0,0,.06-.06v-7.59h13.4v7.58a.08.08,0,0,0,.08.07h1.46a.07.07,0,0,0,.07-.07v-7.58h.3a1.73,1.73,0,0,1,1.69,1.76V575.9H550.29Zm15,56c0,1.2-.7,2.21-1.52,2.21h-6.35c-.83,0-1.52-1-1.52-2.21V615h9.39Zm9.83-8.63a1.24,1.24,0,0,1-1.24,1.24H547.3a1.23,1.23,0,0,1-1.24-1.24V579a1.24,1.24,0,0,1,1.24-1.24h26.57a1.25,1.25,0,0,1,1.24,1.24Z"/><path d="M562.37,623.15H558.8a.29.29,0,0,0-.3.3v1.16h4.17v-1.16A.3.3,0,0,0,562.37,623.15Z"/><path class="cls-3" d="M614.79,656.25a.3.3,0,0,0,.3.31h4.37a.31.31,0,0,0,.31-.31V622.41h-5Z"/><path class="cls-8" d="M614.79,656.25a.3.3,0,0,0,.3.31h4.37a.31.31,0,0,0,.31-.31V622.41h-5Z"/><path d="M596.63,575v-22.7a4.05,4.05,0,0,1,4.16-3.93h33a4,4,0,0,1,4.16,3.93V575h.1a5.07,5.07,0,0,1,2.09.47V552.28a6.24,6.24,0,0,0-6.35-6.11h-33a6.23,6.23,0,0,0-6.34,6.11v23.17a5,5,0,0,1,2.09-.47Z"/><path d="M640.11,575.45v2.67a2.82,2.82,0,0,1,.76,1.9v37.35a2.86,2.86,0,0,1-2.85,2.86H596.54a2.86,2.86,0,0,1-2.85-2.86V580a2.82,2.82,0,0,1,.76-1.9v-2.67a5,5,0,0,0-3,4.57v37.35a5,5,0,0,0,5,5h18.25v-.79a.29.29,0,0,1,.3-.3h4.37a.3.3,0,0,1,.31.3v.79H638a5,5,0,0,0,5-5V580A5,5,0,0,0,640.11,575.45Z"/><path d="M619.46,621.32h-4.37a.29.29,0,0,0-.3.3v.79h5v-.79A.3.3,0,0,0,619.46,621.32Z"/><rect x="596.63" y="574.98" width="41.29" height="2.19"/><path d="M637.92,575v2.19h.1a2.8,2.8,0,0,1,2.09,1v-2.67A5.07,5.07,0,0,0,638,575Z"/><path d="M596.54,577.17h.09V575h-.09a5,5,0,0,0-2.09.47v2.67A2.78,2.78,0,0,1,596.54,577.17Z"/><path class="cls-9" d="M612.51,532a2.06,2.06,0,1,0-4.09,0L608,546.17h4.47Z"/><path class="cls-9" d="M626.51,532a2.06,2.06,0,1,0-4.09,0L622,546.17h4.47Z"/><rect class="cls-3" x="24.46" y="34.66" width="238.79" height="99.11" rx="6.18"/><path class="cls-10" d="M257.06,33.64H30.64a7.21,7.21,0,0,0-7.2,7.2v86.74a7.21,7.21,0,0,0,7.2,7.2H257.06a7.21,7.21,0,0,0,7.2-7.2V40.84A7.21,7.21,0,0,0,257.06,33.64Zm6.19,93.94a6.2,6.2,0,0,1-6.19,6.19H30.64a6.19,6.19,0,0,1-6.18-6.19V40.84a6.18,6.18,0,0,1,6.18-6.18H257.06a6.19,6.19,0,0,1,6.19,6.18Z"/><path class="cls-7" d="M250.21,127a6.83,6.83,0,0,1,7-6.63,7.34,7.34,0,0,1,2.06.33v-72a7.77,7.77,0,0,1-2.06.31,7.21,7.21,0,0,1-7.41-7,6.75,6.75,0,0,1,2.1-4.87h-87.7a4.39,4.39,0,0,0-4.51,4.27V127a4.39,4.39,0,0,0,4.51,4.27h87.65A6.33,6.33,0,0,1,250.21,127Z"/><circle class="cls-11" cx="31.36" cy="42.01" r="4.19"/><circle class="cls-11" cx="31.36" cy="127.01" r="4.19"/><circle class="cls-11" cx="256.25" cy="42.01" r="4.19"/><circle class="cls-11" cx="256.25" cy="127.01" r="4.19"/><path class="cls-12" d="M134.13,49.46H60a5,5,0,0,0-4.9,5v57.65a5,5,0,0,0,4.9,5h74.09a5,5,0,0,0,4.9-5V54.49A5,5,0,0,0,134.13,49.46Zm4.5,62.68a4.57,4.57,0,0,1-4.5,4.63H60a4.57,4.57,0,0,1-4.5-4.63V54.49A4.57,4.57,0,0,1,60,49.86h74.09a4.57,4.57,0,0,1,4.5,4.63Z"/><path class="cls-12" d="M146.76,38.71H47.41A5.48,5.48,0,0,0,42,44.27v78.09a5.48,5.48,0,0,0,5.39,5.56h99.35a5.48,5.48,0,0,0,5.39-5.56V44.27A5.48,5.48,0,0,0,146.76,38.71Zm5,83.65a5,5,0,0,1-5,5.11H47.41a5,5,0,0,1-4.95-5.11V44.27a5,5,0,0,1,4.95-5.11h99.35a5,5,0,0,1,5,5.11Z"/><path class="cls-12" d="M140.49,43.69H53.68a5.09,5.09,0,0,0-5,5.2v68.86a5.09,5.09,0,0,0,5,5.19h86.81a5.09,5.09,0,0,0,5-5.19V48.89A5.09,5.09,0,0,0,140.49,43.69Zm4.57,74.06a4.68,4.68,0,0,1-4.57,4.77H53.68a4.68,4.68,0,0,1-4.57-4.77V48.89a4.68,4.68,0,0,1,4.57-4.78h86.81a4.68,4.68,0,0,1,4.57,4.78Z"/><path class="cls-12" d="M128.29,55.6H65.88a4.13,4.13,0,0,0-4.13,4.12v47.19A4.13,4.13,0,0,0,65.88,111h62.41a4.13,4.13,0,0,0,4.13-4.13V59.72A4.13,4.13,0,0,0,128.29,55.6Zm3.79,51.31a3.79,3.79,0,0,1-3.79,3.79H65.88a3.8,3.8,0,0,1-3.8-3.79V59.72a3.8,3.8,0,0,1,3.8-3.79h62.41a3.79,3.79,0,0,1,3.79,3.79Z"/><rect class="cls-13" x="207.25" y="76.02" width="16.38" height="16.38" rx="0.74"/><circle class="cls-13" cx="175.38" cy="127.92" r="1.86"/><circle class="cls-13" cx="180.69" cy="127.92" r="1.86"/><circle class="cls-13" cx="186" cy="127.92" r="1.86"/><circle class="cls-13" cx="191.31" cy="127.92" r="1.86"/><circle class="cls-13" cx="196.62" cy="127.92" r="1.86"/><circle class="cls-13" cx="201.93" cy="127.92" r="1.86"/><circle class="cls-13" cx="216.53" cy="39.83" r="1.86"/><circle class="cls-13" cx="221.84" cy="39.83" r="1.86"/><circle class="cls-13" cx="227.15" cy="39.83" r="1.86"/><circle class="cls-13" cx="232.46" cy="39.83" r="1.86"/><circle class="cls-13" cx="237.78" cy="39.83" r="1.86"/><circle class="cls-13" cx="243.09" cy="39.83" r="1.86"/><circle class="cls-13" cx="184.72" cy="39.83" r="1.86"/><circle class="cls-13" cx="190.03" cy="39.83" r="1.86"/><circle class="cls-13" cx="195.34" cy="39.83" r="1.86"/><circle class="cls-13" cx="200.66" cy="39.83" r="1.86"/><circle class="cls-13" cx="205.97" cy="39.83" r="1.86"/><circle class="cls-13" cx="211.28" cy="39.83" r="1.86"/><circle class="cls-13" cx="255.38" cy="97.13" r="1.86"/><circle class="cls-13" cx="255.38" cy="102.44" r="1.86"/><circle class="cls-13" cx="255.38" cy="107.75" r="1.86"/><circle class="cls-13" cx="255.38" cy="65.32" r="1.86"/><circle class="cls-13" cx="255.38" cy="70.63" r="1.86"/><circle class="cls-13" cx="255.38" cy="75.94" r="1.86"/><circle class="cls-13" cx="255.38" cy="81.25" r="1.86"/><circle class="cls-13" cx="255.38" cy="86.57" r="1.86"/><circle class="cls-13" cx="255.38" cy="91.88" r="1.86"/><rect class="cls-13" x="171.02" y="42.82" width="7.81" height="3.92" rx="0.31"/><rect class="cls-13" x="171.02" y="47.23" width="7.81" height="3.92" rx="0.31"/><path class="cls-14" d="M115.46,266.22h1.24v5.6a.35.35,0,0,0,.35.35h1.32a.36.36,0,0,0,.36-.35v-5.6h3.94v5.6a.35.35,0,0,0,.35.35h1.32a.35.35,0,0,0,.35-.35v-5.6h3.94v5.6a.35.35,0,0,0,.35.35h1.32a.35.35,0,0,0,.35-.35v-5.6h3.94v5.6a.35.35,0,0,0,.35.35h1.32a.35.35,0,0,0,.35-.35v-5.6h3.94v5.6a.36.36,0,0,0,.36.35h1.32a.35.35,0,0,0,.34-.35v-5.6h4v5.6a.35.35,0,0,0,.35.35h1.32a.35.35,0,0,0,.35-.35v-5.6h3.94v5.6a.35.35,0,0,0,.35.35h1.32a.35.35,0,0,0,.35-.35v-5.6h3.94v5.6a.35.35,0,0,0,.35.35h1.32a.35.35,0,0,0,.35-.35v-5.6h3.94v5.6a.35.35,0,0,0,.35.35h1.32a.35.35,0,0,0,.35-.35v-5.6h2a2,2,0,0,0,2-2V247.17a2,2,0,0,0-2-2H115.46a2,2,0,0,0-2,2v17.05A2,2,0,0,0,115.46,266.22Z"/><path class="cls-14" d="M92.9,229.59h2.25l0,0v6a.35.35,0,0,0,.35.35H96.8a.36.36,0,0,0,.36-.35v-6l0,0h4v6a.35.35,0,0,0,.35.35h1.32a.35.35,0,0,0,.35-.35v-6l0,0h4v6a.35.35,0,0,0,.35.35h1.32a.35.35,0,0,0,.35-.35v-6h4l0,0v6a.35.35,0,0,0,.35.35h1.32a.35.35,0,0,0,.35-.35v-6h4l0,0v6a.35.35,0,0,0,.35.35h1.32a.36.36,0,0,0,.36-.35v-6l0,0h4v6a.35.35,0,0,0,.34.35h1.32a.35.35,0,0,0,.35-.35v-6h4v6a.35.35,0,0,0,.35.35h1.32a.35.35,0,0,0,.35-.35v-6l0,0h4v6a.35.35,0,0,0,.35.35h1.32a.35.35,0,0,0,.35-.35v-6h4v6a.35.35,0,0,0,.35.35h1.32a.35.35,0,0,0,.35-.35v-6h4l0,0v6a.36.36,0,0,0,.36.35h1.32a.35.35,0,0,0,.35-.35v-6l0,0h4v6a.35.35,0,0,0,.35.35h1.32a.35.35,0,0,0,.35-.35v-6h4v6a.35.35,0,0,0,.35.35h1.32a.35.35,0,0,0,.35-.35v-6h4l0,0v6a.35.35,0,0,0,.35.35h1.32a.35.35,0,0,0,.35-.35v-6h2.24a1.37,1.37,0,0,0,1.38-1.37v-18.3a1.37,1.37,0,0,0-1.38-1.37h-78a1.37,1.37,0,0,0-1.37,1.37v18.3A1.37,1.37,0,0,0,92.9,229.59Z"/><path class="cls-15" d="M796,259.53V224a2.77,2.77,0,0,0-2.8-2.74H763.67a2.77,2.77,0,0,0-2.8,2.74v12.22l-4.35,7a.9.9,0,0,0-.13.44v7.71h2.14v6.18l-2.14,1.61v11.53a2.11,2.11,0,0,0,2.14,2.08h34.66A2.76,2.76,0,0,0,796,270V259.53Z"/><rect x="765.03" y="226.19" width="3.71" height="6.77" rx="0.13"/><rect x="770.57" y="226.19" width="3.71" height="6.77" rx="0.13"/><rect x="776.12" y="226.19" width="3.71" height="6.77" rx="0.13"/><rect x="781.66" y="226.19" width="3.71" height="6.77" rx="0.13"/><rect x="787.21" y="226.19" width="3.71" height="6.77" rx="0.13"/><rect x="765.03" y="247.18" width="25.9" height="19.52" rx="0.42"/><path class="cls-16" d="M446.72,73.06H327.13A10.07,10.07,0,0,0,317,83v40.51a10.07,10.07,0,0,0,10.17,9.93H446.72a10.07,10.07,0,0,0,10.17-9.93V83A10.07,10.07,0,0,0,446.72,73.06Z"/><path d="M446.72,71.72H327.13A11.43,11.43,0,0,0,315.58,83v40.51a11.43,11.43,0,0,0,11.55,11.27H446.72a11.43,11.43,0,0,0,11.55-11.27V83A11.43,11.43,0,0,0,446.72,71.72Zm10.17,51.79a10.07,10.07,0,0,1-10.17,9.93H327.13A10.07,10.07,0,0,1,317,123.51V83a10.07,10.07,0,0,1,10.17-9.94H446.72A10.07,10.07,0,0,1,456.89,83Z"/><path d="M326.05,84a4.53,4.53,0,1,1,4.53-4.53A4.53,4.53,0,0,1,326.05,84Zm0-7.69a3.17,3.17,0,1,0,3.17,3.16A3.17,3.17,0,0,0,326.05,76.31Z"/><path d="M326.05,131.56a4.53,4.53,0,1,1,4.53-4.53A4.53,4.53,0,0,1,326.05,131.56Zm0-7.7a3.17,3.17,0,1,0,3.17,3.17A3.17,3.17,0,0,0,326.05,123.86Z"/><path d="M447.8,84a4.53,4.53,0,1,1,4.53-4.53A4.53,4.53,0,0,1,447.8,84Zm0-7.69A3.17,3.17,0,1,0,451,79.47,3.17,3.17,0,0,0,447.8,76.31Z"/><path d="M447.8,131.56a4.53,4.53,0,1,1,4.53-4.53A4.53,4.53,0,0,1,447.8,131.56Zm0-7.7A3.17,3.17,0,1,0,451,127,3.17,3.17,0,0,0,447.8,123.86Z"/><circle class="cls-13" cx="335.97" cy="121.93" r="2.37"/><circle class="cls-13" cx="342.77" cy="121.93" r="2.37"/><circle class="cls-13" cx="349.56" cy="121.93" r="2.37"/><circle class="cls-13" cx="356.35" cy="121.93" r="2.37"/><circle class="cls-13" cx="363.15" cy="121.93" r="2.37"/><circle class="cls-13" cx="376.74" cy="121.93" r="2.37"/><circle class="cls-13" cx="383.53" cy="121.93" r="2.37"/><circle class="cls-13" cx="390.32" cy="121.93" r="2.37"/><circle class="cls-13" cx="397.12" cy="121.93" r="2.37"/><circle class="cls-13" cx="403.91" cy="121.93" r="2.37"/><circle class="cls-13" cx="410.7" cy="121.93" r="2.37"/><circle class="cls-13" cx="417.5" cy="121.93" r="2.37"/><circle class="cls-13" cx="424.29" cy="121.93" r="2.37"/><circle class="cls-13" cx="431.09" cy="121.93" r="2.37"/><circle class="cls-13" cx="437.88" cy="121.93" r="2.37"/><circle class="cls-13" cx="335.97" cy="128.55" r="2.37"/><circle class="cls-13" cx="342.77" cy="128.55" r="2.37"/><circle class="cls-13" cx="349.56" cy="128.55" r="2.37"/><circle class="cls-13" cx="356.35" cy="128.55" r="2.37"/><circle class="cls-13" cx="363.15" cy="128.55" r="2.37"/><circle class="cls-13" cx="376.74" cy="128.55" r="2.37"/><circle class="cls-13" cx="369.94" cy="121.93" r="2.37"/><circle class="cls-13" cx="369.94" cy="128.55" r="2.37"/><circle class="cls-13" cx="383.53" cy="128.55" r="2.37"/><circle class="cls-13" cx="390.32" cy="128.55" r="2.37"/><circle class="cls-13" cx="397.12" cy="128.55" r="2.37"/><circle class="cls-13" cx="403.91" cy="128.55" r="2.37"/><circle class="cls-13" cx="410.7" cy="128.55" r="2.37"/><circle class="cls-13" cx="417.5" cy="128.55" r="2.37"/><circle class="cls-13" cx="424.29" cy="128.55" r="2.37"/><circle class="cls-13" cx="431.09" cy="128.55" r="2.37"/><circle class="cls-13" cx="437.88" cy="128.55" r="2.37"/><circle class="cls-13" cx="356.35" cy="77.09" r="2.37"/><circle class="cls-13" cx="363.15" cy="77.09" r="2.37"/><circle class="cls-13" cx="369.94" cy="77.09" r="2.37"/><circle class="cls-13" cx="376.74" cy="77.09" r="2.37"/><circle class="cls-13" cx="383.53" cy="77.09" r="2.37"/><circle class="cls-13" cx="390.32" cy="77.09" r="2.37"/><circle class="cls-13" cx="397.12" cy="77.09" r="2.37"/><circle class="cls-13" cx="403.91" cy="77.09" r="2.37"/><circle class="cls-13" cx="410.7" cy="77.09" r="2.37"/><circle class="cls-13" cx="417.5" cy="77.09" r="2.37"/><circle class="cls-13" cx="424.29" cy="77.09" r="2.37"/><circle class="cls-13" cx="431.09" cy="77.09" r="2.37"/><circle class="cls-13" cx="437.88" cy="77.09" r="2.37"/><circle class="cls-13" cx="356.35" cy="83.7" r="2.37"/><circle class="cls-13" cx="363.15" cy="83.7" r="2.37"/><circle class="cls-13" cx="376.74" cy="83.7" r="2.37"/><circle class="cls-13" cx="383.53" cy="83.7" r="2.37"/><circle class="cls-13" cx="390.32" cy="83.7" r="2.37"/><circle class="cls-13" cx="397.12" cy="83.7" r="2.37"/><circle class="cls-13" cx="403.91" cy="83.7" r="2.37"/><circle class="cls-13" cx="410.7" cy="83.7" r="2.37"/><circle class="cls-13" cx="417.5" cy="83.7" r="2.37"/><circle class="cls-13" cx="424.29" cy="83.7" r="2.37"/><circle class="cls-13" cx="431.09" cy="83.7" r="2.37"/><circle class="cls-13" cx="437.88" cy="83.7" r="2.37"/><circle class="cls-13" cx="369.94" cy="83.7" r="2.37"/><g class="cls-17"><path d="M453.72,116.28a.49.49,0,0,0,0-.21.61.61,0,0,0-.33-.56l-.14-.11a12.2,12.2,0,0,1-4.44-9.61,12.84,12.84,0,0,1,1.36-5.8,11.49,11.49,0,0,1,2.53-3.34c.48-.43,1-.53,1.06-1.2s0-1.2,0-1.8v-3A1.72,1.72,0,0,0,452,89H424a1.71,1.71,0,0,0-1.78,1.64v25.18a1.72,1.72,0,0,0,1.78,1.65h28a1.78,1.78,0,0,0,1.64-1"/><rect x="366.59" y="92.57" width="21.36" height="21.36" rx="0.37"/><rect x="317.34" y="86.94" width="15.1" height="32.63" rx="0.51"/></g><path class="cls-13" d="M452,115.49l-.12-.09"/><rect class="cls-13" x="333.6" y="74.81" width="6.1" height="7.44" rx="0.2" transform="translate(415.18 -258.11) rotate(90)"/><circle cx="336.65" cy="78.54" r="1.7"/><rect class="cls-13" x="343.44" y="75.49" width="7.5" height="9.85" rx="0.22" transform="translate(694.38 160.82) rotate(180)"/><circle cx="385.9" cy="94.6" r="0.77"/><circle cx="324.89" cy="93.21" r="2.14"/><circle cx="324.89" cy="100.07" r="2.14"/><circle cx="324.89" cy="106.92" r="2.14"/><circle cx="324.89" cy="113.77" r="2.14"/><path d="M452.25,116.38a.22.22,0,0,1-.05.08"/><rect x="442.41" y="103.75" width="2.29" height="4.62" rx="0.09"/><rect x="442.41" y="109.89" width="2.29" height="4.62" rx="0.09"/><rect x="432.32" y="92.35" width="14.03" height="2.56" rx="0.1"/><path class="cls-16" d="M661.39,73.06H541.8A10.07,10.07,0,0,0,531.63,83v40.51a10.07,10.07,0,0,0,10.17,9.93H661.39a10.07,10.07,0,0,0,10.17-9.93V83A10.07,10.07,0,0,0,661.39,73.06Z"/><path d="M661.39,71.72H541.8A11.43,11.43,0,0,0,530.25,83v40.51a11.43,11.43,0,0,0,11.55,11.27H661.39a11.43,11.43,0,0,0,11.55-11.27V83A11.43,11.43,0,0,0,661.39,71.72Zm10.17,51.79a10.07,10.07,0,0,1-10.17,9.93H541.8a10.07,10.07,0,0,1-10.17-9.93V83a10.07,10.07,0,0,1,10.17-9.94H661.39A10.07,10.07,0,0,1,671.56,83Z"/><g class="cls-18"><ellipse cx="550.28" cy="122.93" rx="2.39" ry="2.33"/><ellipse cx="557.12" cy="122.93" rx="2.39" ry="2.33"/><ellipse cx="563.96" cy="122.93" rx="2.39" ry="2.33"/><ellipse cx="570.8" cy="122.93" rx="2.39" ry="2.33"/><ellipse cx="577.65" cy="122.93" rx="2.39" ry="2.33"/><ellipse cx="591.33" cy="122.93" rx="2.39" ry="2.33"/><ellipse cx="598.17" cy="122.93" rx="2.39" ry="2.33"/><ellipse cx="605.02" cy="122.93" rx="2.39" ry="2.33"/><ellipse cx="611.86" cy="122.93" rx="2.39" ry="2.33"/><ellipse cx="618.7" cy="122.93" rx="2.39" ry="2.33"/><ellipse cx="625.54" cy="122.93" rx="2.39" ry="2.33"/><ellipse cx="632.39" cy="122.93" rx="2.39" ry="2.33"/><ellipse cx="639.23" cy="122.93" rx="2.39" ry="2.33"/><ellipse cx="550.28" cy="129.43" rx="2.39" ry="2.33"/><ellipse cx="557.12" cy="129.43" rx="2.39" ry="2.33"/><ellipse cx="563.96" cy="129.43" rx="2.39" ry="2.33"/><ellipse cx="570.8" cy="129.43" rx="2.39" ry="2.33"/><ellipse cx="577.65" cy="129.43" rx="2.39" ry="2.33"/><ellipse cx="591.33" cy="129.43" rx="2.39" ry="2.33"/><ellipse cx="584.49" cy="122.93" rx="2.39" ry="2.33"/><ellipse cx="584.49" cy="129.43" rx="2.39" ry="2.33"/><ellipse cx="598.17" cy="129.43" rx="2.39" ry="2.33"/><ellipse cx="605.02" cy="129.43" rx="2.39" ry="2.33"/><ellipse cx="611.86" cy="129.43" rx="2.39" ry="2.33"/><ellipse cx="618.7" cy="129.43" rx="2.39" ry="2.33"/><ellipse cx="625.54" cy="129.43" rx="2.39" ry="2.33"/><ellipse cx="632.39" cy="129.43" rx="2.39" ry="2.33"/><ellipse cx="639.23" cy="129.43" rx="2.39" ry="2.33"/><ellipse cx="550.28" cy="77.55" rx="2.39" ry="2.33"/><ellipse cx="557.12" cy="77.55" rx="2.39" ry="2.33"/><ellipse cx="563.96" cy="77.55" rx="2.39" ry="2.33"/><ellipse cx="570.8" cy="77.55" rx="2.39" ry="2.33"/><ellipse cx="577.65" cy="77.55" rx="2.39" ry="2.33"/><ellipse cx="584.49" cy="77.55" rx="2.39" ry="2.33"/><ellipse cx="591.33" cy="77.55" rx="2.39" ry="2.33"/><ellipse cx="598.17" cy="77.55" rx="2.39" ry="2.33"/><ellipse cx="605.02" cy="77.55" rx="2.39" ry="2.33"/><ellipse cx="611.86" cy="77.55" rx="2.39" ry="2.33"/><ellipse cx="618.7" cy="77.55" rx="2.39" ry="2.33"/><ellipse cx="625.54" cy="77.55" rx="2.39" ry="2.33"/><ellipse cx="632.39" cy="77.55" rx="2.39" ry="2.33"/><ellipse cx="639.23" cy="77.55" rx="2.39" ry="2.33"/><ellipse cx="646.07" cy="77.55" rx="2.39" ry="2.33"/><ellipse cx="652.92" cy="77.55" rx="2.39" ry="2.33"/><ellipse cx="550.28" cy="84.05" rx="2.39" ry="2.33"/><ellipse cx="557.12" cy="84.05" rx="2.39" ry="2.33"/><ellipse cx="563.96" cy="84.05" rx="2.39" ry="2.33"/><ellipse cx="570.8" cy="84.05" rx="2.39" ry="2.33"/><ellipse cx="577.65" cy="84.05" rx="2.39" ry="2.33"/><ellipse cx="591.33" cy="84.05" rx="2.39" ry="2.33"/><ellipse cx="598.17" cy="84.05" rx="2.39" ry="2.33"/><ellipse cx="605.02" cy="84.05" rx="2.39" ry="2.33"/><ellipse cx="611.86" cy="84.05" rx="2.39" ry="2.33"/><ellipse cx="618.7" cy="84.05" rx="2.39" ry="2.33"/><ellipse cx="625.54" cy="84.05" rx="2.39" ry="2.33"/><ellipse cx="632.39" cy="84.05" rx="2.39" ry="2.33"/><ellipse cx="639.23" cy="84.05" rx="2.39" ry="2.33"/><ellipse cx="646.07" cy="84.05" rx="2.39" ry="2.33"/><ellipse cx="652.92" cy="84.05" rx="2.39" ry="2.33"/><ellipse cx="584.49" cy="84.05" rx="2.39" ry="2.33"/></g><rect class="cls-13" x="597.61" y="89.48" width="8.73" height="8.53" rx="0.31"/><rect class="cls-13" x="643.69" y="121.13" width="12.28" height="10.63" rx="0.27"/><rect class="cls-13" x="660.35" y="96.83" width="11.21" height="13.78" rx="0.18"/><rect class="cls-13" x="550.28" y="89.89" width="27.37" height="26.72" rx="0.37"/><g class="cls-19"><rect class="cls-13" x="636.84" y="89.46" width="6.14" height="7.32" rx="0.2"/></g><rect x="665.96" y="98.6" width="3.59" height="1.11" rx="0.05"/><rect x="665.96" y="107.73" width="3.59" height="1.11" rx="0.05"/><rect x="649.8" y="123" width="6.14" height="1.32" rx="0.05" transform="translate(776.53 -529.2) rotate(90)"/><rect x="643.72" y="123" width="6.14" height="1.32" rx="0.05" transform="translate(770.45 -523.13) rotate(90)"/><ellipse cx="574.92" cy="113.89" rx="1.55" ry="1.51"/><ellipse class="cls-20" cx="540.28" cy="79.87" rx="3.88" ry="3.78"/><ellipse class="cls-20" cx="540.28" cy="126.63" rx="3.88" ry="3.78"/><ellipse class="cls-20" cx="662.91" cy="79.87" rx="3.88" ry="3.78"/><ellipse class="cls-20" cx="662.91" cy="126.63" rx="3.88" ry="3.78"/><rect class="cls-21" x="753.08" y="552.25" width="76.94" height="104.59" rx="1.48"/><rect class="cls-21" x="722.37" y="529.41" width="76.94" height="104.59" rx="1.48"/><line class="cls-21" x1="757.49" y1="656.84" x2="794.9" y2="634"/><rect class="cls-22" x="739.86" y="543.43" width="26.05" height="20.04" rx="1.14"/><line class="cls-23" x1="740.66" y1="575.75" x2="779.93" y2="575.75"/><line class="cls-23" x1="740.66" y1="585.06" x2="779.93" y2="585.06"/><line class="cls-23" x1="740.66" y1="594.36" x2="779.93" y2="594.36"/><line class="cls-23" x1="740.66" y1="603.67" x2="779.93" y2="603.67"/><line class="cls-23" x1="740.66" y1="612.97" x2="779.93" y2="612.97"/><path class="cls-3" d="M793.12,381.78l-5.89-16-8.35,3.75h0l-24.19,10.86,14.75,15.19a.9.9,0,0,0,1.11.21l22-12.24A1.46,1.46,0,0,0,793.12,381.78Z"/><polygon class="cls-3" points="759.66 438.91 799.02 438.91 799.02 433.25 796.95 433.25 796.95 433.32 796.96 433.41 761.88 433.41 761.89 433.32 761.89 433.25 759.66 433.25 759.66 438.91"/><path class="cls-3" d="M778.76,359.3a27.65,27.65,0,0,1,3.43-3.5l1-.93-2.6-7.08a1.26,1.26,0,0,0-.67-.75.81.81,0,0,0-.33-.07.91.91,0,0,0-.37.09l-29.56,14.32a6.92,6.92,0,0,0-3.72,5.19,7.9,7.9,0,0,0,2,6.89l4.71,4.86h0L777,367.4C777,364.75,777,361.56,778.76,359.3Z"/><path class="cls-3" d="M787.44,421.29c-.25-.25-.55-.51-.86-.79-3.13-2.76-4.51-6.85-9.18-7.36-.9-.1-3.74-.2-4.39.71s-1.37,1.76-2,2.57a22.2,22.2,0,0,0-3.41,4.91,32.18,32.18,0,0,0-2.73,9.19h29C792.65,427,789.85,423.76,787.44,421.29Z"/><path class="cls-3" d="M793.55,386.13l-18.11,10.05a5,5,0,0,0,2.91.91,1.36,1.36,0,0,1,0,2.72,7.78,7.78,0,0,1-5.46-2.22l-.8.45c1.76,1.28,3.58,2.89,3.66,5.33a21.83,21.83,0,0,1-1.1,7.21,11.49,11.49,0,0,1,9.54,2.77c.19-.89.44-1.78.67-2.59.16-.56.31-1.08.4-1.48.69-2.95,2.26-3,4.09-2.75.34.05.72.1,1.15.13l.53,0c1.72.13,6.28.47,7-.92a8.52,8.52,0,0,0,.26-3.54c0-.66-.06-1.29,0-1.87s0-.52,1.77-2.45l.81-.92q-.26-.17-.69-.39C797.59,395.26,794.66,388.79,793.55,386.13Z"/><path class="cls-3" d="M780.92,360.94c-1,1.28-1.17,3.27-1.21,5.24l6.58-2.95-2.06-5.61-.22.2A25.22,25.22,0,0,0,780.92,360.94Z"/><polygon class="cls-3" points="761.88 433.41 796.96 433.41 796.95 433.32 761.89 433.32 761.88 433.41"/><polygon class="cls-3" points="796.95 433.32 796.95 433.25 761.89 433.25 761.89 433.32 796.95 433.32"/><path class="cls-24" d="M801.41,394.21c-2.22-1.18-3.31-4-4.22-6.15a17.11,17.11,0,0,1-1.49-3.68c-.16-1.23.44-2.25,0-3.54-3.54-9.65-7.12-19.31-10.65-28.93l-1.85-5.06a4,4,0,0,0-2.21-2.33,3.51,3.51,0,0,0-2.89.1l-29.57,14.31a9.65,9.65,0,0,0-5.21,7.17,10.64,10.64,0,0,0,2.74,9.25l.28.29,11,11.29,6.62,6.81c2,2.1,4,4.57,6.34,6.29,1.11.82,2.78,1.87,2.82,3.43.08,2.6-.68,6.61-2,8.54-.66.94-1.4,1.83-2.11,2.68a25,25,0,0,0-3.8,5.5,34.63,34.63,0,0,0-3,10.34h2.71a32.18,32.18,0,0,1,2.73-9.19,22.2,22.2,0,0,1,3.41-4.91c.68-.81,1.38-1.65,2-2.57s3.49-.81,4.39-.71c4.67.51,6.05,4.6,9.18,7.36.31.28.61.54.86.79,2.41,2.47,5.21,5.66,6.42,9.23h2.82c-1.22-4.45-4.49-8.26-7.3-11.12-.32-.33-.67-.64-1-.94-.86-.76-1.68-1.48-1.77-2.29a16,16,0,0,1,.87-4.67c.17-.59.33-1.14.43-1.61a4,4,0,0,1,.25-.75c.2,0,.55.05.84.08s.81.11,1.32.15l.52,0c3,.22,8.06.6,9.61-2.37.73-1.41.64-3.28.56-4.93,0-.42,0-.82,0-1.18l2.4-2.68A1.62,1.62,0,0,0,804,397C804,395.75,802.69,394.88,801.41,394.21Zm-17.18-36.59,2.06,5.61-6.58,2.95c0-2,.24-4,1.21-5.24a25.22,25.22,0,0,1,3.09-3.12Zm-31.55,20.7L748,373.46a7.9,7.9,0,0,1-2-6.89,6.92,6.92,0,0,1,3.72-5.19l29.56-14.32a.91.91,0,0,1,.37-.09.81.81,0,0,1,.33.07,1.26,1.26,0,0,1,.67.75l2.6,7.08-1,.93a27.65,27.65,0,0,0-3.43,3.5c-1.72,2.26-1.78,5.45-1.77,8.1l-24.3,10.91Zm17.87,17.47a.9.9,0,0,1-1.11-.21l-14.75-15.19,24.19-10.86h0l8.35-3.75,5.89,16a1.46,1.46,0,0,1-.54,1.77ZM800,397.92c-1.73,1.93-1.76,2-1.77,2.45s0,1.21,0,1.87a8.52,8.52,0,0,1-.26,3.54c-.72,1.39-5.28,1.05-7,.92l-.53,0c-.43,0-.81-.08-1.15-.13-1.83-.24-3.4-.2-4.09,2.75-.09.4-.24.92-.4,1.48-.23.81-.48,1.7-.67,2.59a11.49,11.49,0,0,0-9.54-2.77,21.83,21.83,0,0,0,1.1-7.21c-.08-2.44-1.9-4.05-3.66-5.33l.8-.45a7.78,7.78,0,0,0,5.46,2.22,1.36,1.36,0,0,0,0-2.72,5,5,0,0,1-2.91-.91l18.11-10.05c1.11,2.66,4,9.13,6.59,10.48q.43.22.69.39Z"/><path class="cls-24" d="M797,433.25H799v5.66H759.66v-5.66h2.23l.17-2.44a2.5,2.5,0,0,1,.05-.29h-2.9a2.28,2.28,0,0,0-2.29,2.28v6.56a2.29,2.29,0,0,0,2.29,2.29h40.26a2.29,2.29,0,0,0,2.29-2.29V432.8a2.28,2.28,0,0,0-2.29-2.28h-2.79c0,.1.06.19.09.29Z"/><path class="cls-24" d="M764.82,430.52h-2.71a2.5,2.5,0,0,0-.05.29l-.17,2.44H797l-.18-2.44c0-.1-.07-.19-.09-.29H764.82Z"/><circle class="cls-25" cx="311.13" cy="549.31" r="16.08"/><path class="cls-8" d="M311.13,561.76a12.45,12.45,0,1,1,12.45-12.45A12.47,12.47,0,0,1,311.13,561.76Zm0-21.7a9.25,9.25,0,1,0,9.25,9.25A9.26,9.26,0,0,0,311.13,540.06Z"/><circle class="cls-25" cx="355.47" cy="549.31" r="16.08"/><path class="cls-8" d="M355.47,561.76a12.45,12.45,0,1,1,12.45-12.45A12.47,12.47,0,0,1,355.47,561.76Zm0-21.7a9.25,9.25,0,1,0,9.25,9.25A9.26,9.26,0,0,0,355.47,540.06Z"/><circle class="cls-25" cx="399.81" cy="549.31" r="16.08"/><path class="cls-8" d="M399.81,561.76a12.45,12.45,0,1,1,12.45-12.45A12.47,12.47,0,0,1,399.81,561.76Zm0-21.7a9.25,9.25,0,1,0,9.25,9.25A9.26,9.26,0,0,0,399.81,540.06Z"/><circle class="cls-25" cx="444.15" cy="549.31" r="16.08"/><path class="cls-8" d="M444.16,561.76a12.45,12.45,0,1,1,12.45-12.45A12.46,12.46,0,0,1,444.16,561.76Zm0-21.7a9.25,9.25,0,1,0,9.24,9.25A9.26,9.26,0,0,0,444.16,540.06Z"/><circle class="cls-25" cx="311.13" cy="593.77" r="16.08"/><path class="cls-8" d="M311.13,606.22a12.45,12.45,0,1,1,12.45-12.45A12.46,12.46,0,0,1,311.13,606.22Zm0-21.69a9.25,9.25,0,1,0,9.25,9.24A9.25,9.25,0,0,0,311.13,584.53Z"/><circle class="cls-25" cx="355.47" cy="593.77" r="16.08"/><path class="cls-8" d="M355.47,606.22a12.45,12.45,0,1,1,12.45-12.45A12.46,12.46,0,0,1,355.47,606.22Zm0-21.69a9.25,9.25,0,1,0,9.25,9.24A9.25,9.25,0,0,0,355.47,584.53Z"/><circle class="cls-25" cx="399.81" cy="593.77" r="16.08"/><path class="cls-8" d="M399.81,606.22a12.45,12.45,0,1,1,12.45-12.45A12.46,12.46,0,0,1,399.81,606.22Zm0-21.69a9.25,9.25,0,1,0,9.25,9.24A9.25,9.25,0,0,0,399.81,584.53Z"/><circle class="cls-25" cx="444.15" cy="593.77" r="16.08"/><path class="cls-8" d="M444.16,606.22a12.45,12.45,0,1,1,12.45-12.45A12.46,12.46,0,0,1,444.16,606.22Zm0-21.69a9.25,9.25,0,1,0,9.24,9.24A9.25,9.25,0,0,0,444.16,584.53Z"/><circle class="cls-25" cx="355.47" cy="636.94" r="16.08"/><path class="cls-8" d="M355.47,649.39a12.45,12.45,0,1,1,12.45-12.45A12.47,12.47,0,0,1,355.47,649.39Zm0-21.7a9.25,9.25,0,1,0,9.25,9.25A9.26,9.26,0,0,0,355.47,627.69Z"/><circle class="cls-25" cx="399.81" cy="636.94" r="16.08"/><path class="cls-8" d="M399.81,649.39a12.45,12.45,0,1,1,12.45-12.45A12.47,12.47,0,0,1,399.81,649.39Zm0-21.7a9.25,9.25,0,1,0,9.25,9.25A9.26,9.26,0,0,0,399.81,627.69Z"/><circle class="cls-26" cx="379.96" cy="166.37" r="14.1"/><circle class="cls-26" cx="777.06" cy="166.37" r="14.1"/><circle class="cls-26" cx="467.55" cy="470.44" r="14.1"/><circle class="cls-26" cx="777.06" cy="470.44" r="14.1"/><circle class="cls-26" cx="145.82" cy="166.37" r="14.1"/><circle class="cls-26" cx="145.82" cy="307.53" r="14.1"/><circle class="cls-26" cx="145.82" cy="470.44" r="14.1"/><circle class="cls-26" cx="145.82" cy="695.32" r="14.1"/><circle class="cls-26" cx="379.96" cy="695.32" r="14.1"/><circle class="cls-26" cx="777.06" cy="695.32" r="14.1"/><circle class="cls-26" cx="777.06" cy="307.53" r="14.1"/><path class="cls-3" d="M379.23,168a29.69,29.69,0,0,0,1.76-3,4.31,4.31,0,0,0,.47-1.88,1.87,1.87,0,0,0-2-2,4,4,0,0,0-2,.51,8.62,8.62,0,0,0-1.77,1.37l-.35-2.86a7.62,7.62,0,0,1,2.17-1.26,7.13,7.13,0,0,1,2.5-.42,4.54,4.54,0,0,1,2.31.56,3.73,3.73,0,0,1,1.43,1.52,4.77,4.77,0,0,1,.47,2.11,7.16,7.16,0,0,1-.56,2.68,21.87,21.87,0,0,1-2,3.52l-1.81,2.77h4.92v2.66h-9.62Z"/><path class="cls-3" d="M782.23,168.28v2.3h-2v3.55h-2.73v-3.55h-7.73l8.53-12h1.93v9.66Zm-4.72,0v-4.77l-3.34,4.77Z"/><path class="cls-3" d="M472.38,471.4a4.4,4.4,0,0,1,.62,2.34,4.7,4.7,0,0,1-.66,2.49,4.48,4.48,0,0,1-1.91,1.68,7.24,7.24,0,0,1-5.77,0,4.51,4.51,0,0,1-1.9-1.68,4.7,4.7,0,0,1-.66-2.49,4.36,4.36,0,0,1,2.39-4,3.94,3.94,0,0,1-1.24-1.39,3.84,3.84,0,0,1-.44-1.81,4.22,4.22,0,0,1,.51-2,3.78,3.78,0,0,1,1.57-1.55,5.37,5.37,0,0,1,2.66-.6,5.26,5.26,0,0,1,2.64.6,3.74,3.74,0,0,1,1.53,1.55,4.43,4.43,0,0,1,.48,2,4.15,4.15,0,0,1-.39,1.82,3.67,3.67,0,0,1-1.16,1.38A4.28,4.28,0,0,1,472.38,471.4Zm-2.75,4a2.31,2.31,0,0,0,.76-1.83,2.29,2.29,0,0,0-.77-1.78,3.49,3.49,0,0,0-4.14,0,2.28,2.28,0,0,0-.76,1.78,2.34,2.34,0,0,0,.75,1.83,3.56,3.56,0,0,0,4.16,0Zm-3.74-10.26a1.85,1.85,0,0,0-.6,1.45,1.9,1.9,0,0,0,.61,1.44,2.33,2.33,0,0,0,1.65.57,2.17,2.17,0,0,0,1.61-.57,2,2,0,0,0,.56-1.44,1.93,1.93,0,0,0-.56-1.45,2.2,2.2,0,0,0-1.61-.55A2.34,2.34,0,0,0,465.89,465.14Z"/><path class="cls-3" d="M779.74,463.25a4.82,4.82,0,0,1,1.89,2,6.64,6.64,0,0,1,.66,3,9.17,9.17,0,0,1-1,4.26,12.34,12.34,0,0,1-2.6,3.47,14.31,14.31,0,0,1-3.24,2.3l-2-1.55a15.48,15.48,0,0,0,3.2-2.17,9.28,9.28,0,0,0,2.5-3.19,4.93,4.93,0,0,1-2.77.73,4.57,4.57,0,0,1-2.33-.6,4.26,4.26,0,0,1-1.63-1.66,4.92,4.92,0,0,1-.59-2.41,5.37,5.37,0,0,1,.62-2.6,4.41,4.41,0,0,1,1.78-1.75,5.64,5.64,0,0,1,2.7-.62A5.42,5.42,0,0,1,779.74,463.25Zm-1.1,5.82a2.27,2.27,0,0,0,.68-1.68,2.38,2.38,0,0,0-.68-1.72,2.53,2.53,0,0,0-3.49,0,2.31,2.31,0,0,0-.7,1.72,2.21,2.21,0,0,0,.7,1.68,2.64,2.64,0,0,0,3.49,0Z"/><path class="cls-3" d="M145.5,162.63a5,5,0,0,1-1.95.79L143.3,161a4.93,4.93,0,0,0,2.86-2.41h2.17v15.51H145.5Z"/><path class="cls-3" d="M149.29,306.71a4.75,4.75,0,0,1,1.38,3.6A5.08,5.08,0,0,1,150,313a4.62,4.62,0,0,1-1.93,1.78,6.19,6.19,0,0,1-2.82.62,7.32,7.32,0,0,1-4.25-1.25l.66-2.57a9,9,0,0,0,1.73.86,5.33,5.33,0,0,0,1.81.3,2.86,2.86,0,0,0,2-.67,2.26,2.26,0,0,0,.74-1.79,2.32,2.32,0,0,0-.85-1.91,3.78,3.78,0,0,0-2.43-.69,16.8,16.8,0,0,0-2.9.31l1-8.39h7.31l-.18,2.74h-5l-.37,3.08a10.26,10.26,0,0,1,1.15-.06A5.08,5.08,0,0,1,149.29,306.71Z"/><path class="cls-3" d="M150.91,462.69l-6.47,15.51h-3l5.37-12.85h-6.12v-2.66Z"/><path class="cls-3" d="M137.77,691.58a5.14,5.14,0,0,1-2,.8l-.24-2.4a4,4,0,0,0,1.64-.9,3.87,3.87,0,0,0,1.21-1.51h2.18v15.51h-2.84Z"/><path class="cls-3" d="M146.1,702.37a6.64,6.64,0,0,1-2.29-2.88,10.54,10.54,0,0,1-.82-4.3,9.82,9.82,0,0,1,.82-4.13,6.49,6.49,0,0,1,2.3-2.81,6.39,6.39,0,0,1,6.85,0,6.59,6.59,0,0,1,2.29,2.81,9.9,9.9,0,0,1,.81,4.12,10.71,10.71,0,0,1-.81,4.3,6.56,6.56,0,0,1-2.29,2.88,5.93,5.93,0,0,1-3.44,1A5.85,5.85,0,0,1,146.1,702.37Zm6.12-2.93a7.28,7.28,0,0,0,1-4.25,6.75,6.75,0,0,0-1-4,3.28,3.28,0,0,0-5.36,0,6.75,6.75,0,0,0-1,4,7.3,7.3,0,0,0,1,4.24,3.29,3.29,0,0,0,5.39,0Z"/><path class="cls-3" d="M376.08,691.58a5.27,5.27,0,0,1-1.95.8l-.25-2.4a4.93,4.93,0,0,0,2.86-2.41h2.17v15.51h-2.83Z"/><path class="cls-3" d="M383.2,691.58a5.14,5.14,0,0,1-1.95.8L381,690a3.92,3.92,0,0,0,1.64-.9,3.82,3.82,0,0,0,1.22-1.51H386v15.51H383.2Z"/><circle class="cls-26" cx="597.61" cy="166.37" r="14.1"/><circle class="cls-26" cx="597.61" cy="695.32" r="14.1"/><path class="cls-3" d="M601.81,168.29a3.87,3.87,0,0,1,.74,2.39,4.27,4.27,0,0,1-1.5,3.48,6.06,6.06,0,0,1-4,1.24,9.5,9.5,0,0,1-2.42-.29,8.22,8.22,0,0,1-1.94-.71l.68-2.39a8.21,8.21,0,0,0,3.68,1,3.07,3.07,0,0,0,2-.58,2.06,2.06,0,0,0,.72-1.71c0-1.56-1-2.35-2.85-2.35h-1.58v-2.66h1.55a2.74,2.74,0,0,0,1.83-.54,1.91,1.91,0,0,0,.63-1.54,1.71,1.71,0,0,0-.58-1.37,2.5,2.5,0,0,0-1.68-.51,5.76,5.76,0,0,0-1.71.26,8.93,8.93,0,0,0-1.72.78l-.42-2.51a8.9,8.9,0,0,1,4.14-1,5,5,0,0,1,3.45,1.1,3.66,3.66,0,0,1,1.23,2.87,4.17,4.17,0,0,1-.58,2.2,3.75,3.75,0,0,1-1.64,1.45A4.08,4.08,0,0,1,601.81,168.29Z"/><path class="cls-3" d="M591.44,691.73a5,5,0,0,1-2,.8l-.24-2.39a4.23,4.23,0,0,0,1.64-.9,3.93,3.93,0,0,0,1.22-1.52h2.17v15.51h-2.84Z"/><path class="cls-3" d="M600.43,697a29.69,29.69,0,0,0,1.76-3,4.33,4.33,0,0,0,.48-1.88,2,2,0,0,0-.55-1.5,2,2,0,0,0-1.49-.54,4,4,0,0,0-2,.51,8.62,8.62,0,0,0-1.77,1.37l-.35-2.86a7.62,7.62,0,0,1,2.17-1.26,7.13,7.13,0,0,1,2.5-.42,4.45,4.45,0,0,1,2.31.57,3.65,3.65,0,0,1,1.43,1.51,4.77,4.77,0,0,1,.47,2.11,6.93,6.93,0,0,1-.56,2.68,21.87,21.87,0,0,1-2,3.52l-1.81,2.77H606v2.66h-9.62Z"/><path class="cls-3" d="M770.35,691.58a5.14,5.14,0,0,1-2,.8l-.25-2.4a3.92,3.92,0,0,0,1.64-.9,3.82,3.82,0,0,0,1.22-1.51h2.17v15.51h-2.83Z"/><path class="cls-3" d="M785.23,696.27a3.9,3.9,0,0,1,.74,2.4,4.3,4.3,0,0,1-1.49,3.48,6.1,6.1,0,0,1-4,1.24,10,10,0,0,1-2.42-.29,8.69,8.69,0,0,1-1.94-.71l.69-2.39a8.25,8.25,0,0,0,3.67,1,3.12,3.12,0,0,0,2-.57,2.1,2.1,0,0,0,.71-1.71c0-1.57-1-2.35-2.85-2.35H778.7v-2.66h1.55a2.74,2.74,0,0,0,1.83-.54,1.93,1.93,0,0,0,.63-1.54,1.73,1.73,0,0,0-.58-1.38,2.5,2.5,0,0,0-1.68-.51,5.46,5.46,0,0,0-1.71.27,9.51,9.51,0,0,0-1.72.77l-.42-2.5a8.78,8.78,0,0,1,4.14-1,5,5,0,0,1,3.45,1.09,3.66,3.66,0,0,1,1.23,2.87,4.09,4.09,0,0,1-.58,2.21,3.75,3.75,0,0,1-1.64,1.45A4.12,4.12,0,0,1,785.23,696.27Z"/><path class="cls-3" d="M780.08,306.55a4.33,4.33,0,0,1,1.63,1.66,5,5,0,0,1,.58,2.42,5.22,5.22,0,0,1-.62,2.59A4.27,4.27,0,0,1,779.9,315a5.55,5.55,0,0,1-2.7.62,5.43,5.43,0,0,1-2.82-.72,4.83,4.83,0,0,1-1.88-2,6.58,6.58,0,0,1-.67-3,9.45,9.45,0,0,1,1.07-4.41,12.9,12.9,0,0,1,2.69-3.57,15.29,15.29,0,0,1,3.33-2.37l2,1.55a16.77,16.77,0,0,0-3.37,2.29,9.25,9.25,0,0,0-2.57,3.41,4.94,4.94,0,0,1,2.79-.76A4.6,4.6,0,0,1,780.08,306.55Zm-1.07,6a2.4,2.4,0,0,0,.71-1.78A2.33,2.33,0,0,0,779,309a2.6,2.6,0,0,0-3.55,0,2.36,2.36,0,0,0-.7,1.74,2.4,2.4,0,0,0,.71,1.78,2.54,2.54,0,0,0,3.54,0Z"/></svg>