<svg id="Livello_1" data-name="Livello 1" xmlns="http://www.w3.org/2000/svg" viewBox="0 0 131 109"><title>micromuseum_symbol_black</title><path d="M96.13,31.66a26.43,26.43,0,0,0-18.78-7.83l-26.61-.06A26.63,26.63,0,0,0,24.15,50.3l0,10.66A26.63,26.63,0,0,0,50.65,87.61l26.62.06a26.63,26.63,0,0,0,26.59-26.53l0-10.66A26.4,26.4,0,0,0,96.13,31.66ZM50.68,76.14A15.14,15.14,0,0,1,35.59,61l0-10.67A15.14,15.14,0,0,1,50.77,35.24h0l26.56.06A15.13,15.13,0,0,1,92.41,50.45l0,10.66A15.15,15.15,0,0,1,77.27,76.2Z"/></svg>