<svg height="512pt" viewBox="0 0 512 512" width="512pt" xmlns="http://www.w3.org/2000/svg"><path d="m463 256c0 114.324219-92.675781 207-207 207s-207-92.675781-207-207 92.675781-207 207-207 207 92.675781 207 207zm0 0" fill="#f0c48a"/><path d="m6.847656 74.480469h499.214844v32.992187h-499.214844zm0 0" fill="#fd919e"/><path d="m476.222656 75.675781h29.679688v35.617188h-29.679688zm0 0" fill="#e8677d"/><path d="m449.113281 507.527344h-383.09375c-34.09375 0-61.734375-27.640625-61.734375-61.734375v-70.710938h506.5625v70.710938c0 34.09375-27.636718 61.734375-61.734375 61.734375zm0 0" fill="#fff"/><path d="m473.273438 505.722656c14.597656-6.449218 26.265624-18.304687 32.445312-33.042968v-95.789063h-32.445312zm0 0" fill="#d3e6f8"/><path d="m500.023438 380.398438h-488.1875c-3.28125 0-5.9375-2.660157-5.9375-5.9375 0-3.277344 2.65625-5.9375 5.9375-5.9375h488.1875c3.277343 0 5.933593 2.660156 5.933593 5.9375 0 3.277343-2.65625 5.9375-5.933593 5.9375zm0 0" fill="#4c4372"/><path d="m506.0625 81.691406h-499.214844c-3.28125 0-5.9375-2.65625-5.9375-5.933594 0-3.28125 2.65625-5.9375 5.9375-5.9375h499.214844c3.28125 0 5.9375 2.65625 5.9375 5.9375 0 3.277344-2.65625 5.933594-5.9375 5.933594zm0 0" fill="#4c4372"/><path d="m506.0625 113.410156h-499.214844c-3.28125 0-5.9375-2.660156-5.9375-5.9375s2.65625-5.9375 5.9375-5.9375h499.214844c3.28125 0 5.9375 2.660156 5.9375 5.9375s-2.65625 5.9375-5.9375 5.9375zm0 0" fill="#4c4372"/><path d="m305.984375 169.972656h-99.96875v-110.648437c0-12.136719 9.839844-21.976563 21.972656-21.976563h56.019531c12.136719 0 21.976563 9.839844 21.976563 21.976563zm0 0" fill="#d3e6f8"/><path d="m308.339844 170.925781h-30.085938v-138.214843c16.617188 0 30.085938 13.472656 30.085938 30.089843zm0 0" fill="#a4cff2"/><path d="m258.714844 234.097656h-5.429688l-19.539062-21.058594v-43.066406h44.507812v43.066406zm0 0" fill="#7babf1"/><path d="m158.359375 426.910156 97.640625 56.371094v-112.746094l-95.425781-54.039062zm0 0" fill="#fd919e"/><path d="m353.640625 426.910156-97.640625 56.371094v-112.746094l95.425781-54.039062zm0 0" fill="#a4cff2"/><path d="m339.378906 322.398438v111.265624l14.261719-9.71875-2.214844-107.449218zm0 0" fill="#7babf1"/><path d="m161.480469 310.867188s.890625 5.609374 4.398437 7.636718c3.507813 2.023438 85.175782 49.570313 85.175782 49.570313h11.960937l85.046875-51.578125 2.910156-5.628906-90.765625-50.648438h-8.417969zm0 0" fill="#d3e6f8"/><path d="m242.863281 265.371094 96.515625 57.027344 11.59375-11.53125-90.761718-50.648438s-12.316407 2.25-17.347657 5.152344zm0 0" fill="#a4cff2"/><g fill="#4c4372"><path d="m256 489.21875c-1.023438 0-2.050781-.265625-2.96875-.792969l-97.640625-56.375c-1.835937-1.0625-2.96875-3.019531-2.96875-5.140625v-112.75c0-2.121094 1.132813-4.078125 2.96875-5.140625l97.640625-56.375c1.835938-1.058593 4.101562-1.058593 5.9375 0l97.640625 56.375c1.835937 1.0625 2.96875 3.019531 2.96875 5.140625v112.75c0 2.121094-1.132813 4.078125-2.96875 5.140625l-97.640625 56.375c-.917969.527344-1.945312.792969-2.96875.792969zm-91.707031-65.738281 91.707031 52.949219 91.703125-52.949219v-105.890625l-91.703125-52.949219-91.707031 52.949219zm0 0"/><path d="m256.003906 376.472656c-2.050781 0-4.046875-1.066406-5.144531-2.96875-1.640625-2.839844-.667969-6.472656 2.171875-8.109375l97.644531-56.375c2.839844-1.636719 6.46875-.664062 8.105469 2.171875 1.640625 2.839844.667969 6.472656-2.171875 8.109375l-97.640625 56.375c-.9375.539063-1.957031.796875-2.964844.796875zm0 0"/><path d="m256 489.21875c-3.277344 0-5.9375-2.65625-5.9375-5.9375v-109.320312l-94.671875-54.660157c-2.839844-1.640625-3.8125-5.269531-2.171875-8.109375 1.636719-2.839844 5.269531-3.8125 8.105469-2.171875l97.644531 56.375c1.835938 1.058594 2.96875 3.019531 2.96875 5.140625v112.746094c0 3.28125-2.660156 5.9375-5.9375 5.9375zm0 0"/><path d="m305.984375 175.910156h-99.96875c-3.277344 0-5.9375-2.660156-5.9375-5.9375v-110.648437c0-15.390625 12.523437-27.914063 27.910156-27.914063h56.023438c15.390625 0 27.910156 12.523438 27.910156 27.914063v110.648437c0 3.277344-2.660156 5.9375-5.9375 5.9375zm-94.035156-11.875h88.101562v-104.710937c0-8.84375-7.195312-16.039063-16.039062-16.039063h-56.023438c-8.84375 0-16.039062 7.195313-16.039062 16.039063zm0 0"/><path d="m258.714844 240.035156h-5.429688c-1.652344 0-3.230468-.6875-4.351562-1.898437l-19.539063-21.0625c-1.015625-1.097657-1.582031-2.539063-1.582031-4.035157v-43.066406c0-3.277344 2.65625-5.9375 5.933594-5.9375h44.503906c3.277344 0 5.9375 2.660156 5.9375 5.9375v43.066406c0 1.496094-.566406 2.9375-1.585938 4.035157l-19.535156 21.0625c-1.121094 1.210937-2.699218 1.898437-4.351562 1.898437zm-2.839844-11.871094h.25l16.191406-17.453124v-34.800782h-32.632812v34.800782zm0 0"/><path d="m305.984375 125.34375h-98.347656c-3.277344 0-5.933594-2.65625-5.933594-5.933594s2.65625-5.9375 5.933594-5.9375h98.347656c3.277344 0 5.9375 2.660156 5.9375 5.9375s-2.660156 5.933594-5.9375 5.933594zm0 0"/><path d="m458.367188 512h-404.734376c-29.574218 0-53.632812-24.058594-53.632812-53.632812v-404.734376c0-29.574218 24.058594-53.632812 53.632812-53.632812h404.734376c29.574218 0 53.632812 24.058594 53.632812 53.632812v404.734376c0 29.574218-24.058594 53.632812-53.632812 53.632812zm-404.734376-500.128906c-23.027343 0-41.761718 18.734375-41.761718 41.761718v404.734376c0 23.027343 18.734375 41.761718 41.761718 41.761718h404.734376c23.027343 0 41.761718-18.734375 41.761718-41.761718v-404.734376c0-23.027343-18.734375-41.761718-41.761718-41.761718zm0 0"/></g></svg>