<svg height="512pt" viewBox="0 -2 512 511" width="512pt" xmlns="http://www.w3.org/2000/svg"><path d="m512 384.84375v-238.347656h-512v326.621094c0 9.753906 7.90625 17.65625 17.65625 17.65625h238.34375zm0 0" fill="#c03a2b"/><path d="m379.585938 261.257812v211.859376c-43.523438-10.414063-88.890626-10.414063-132.414063 0v-203.03125c.167969-5.144532 3.742187-9.546876 8.738281-10.769532 40.867188-8.453125 83.09375-7.789062 123.675782 1.941406zm0 0" fill="#bdc3c7"/><path d="m512 270.085938v203.03125c-43.523438-10.414063-88.890625-10.414063-132.414062 0v-211.859376c40.582031-9.730468 82.808593-10.394531 123.675781-1.941406 4.996093 1.222656 8.570312 5.625 8.738281 10.769532zm0 0" fill="#e6e7e8"/><path d="m379.585938 473.117188v35.3125c-38.300782-9.195313-78.09375-10.3125-116.851563-3.277344-3.734375.945312-7.53125-1.300782-8.5-5.03125-2.355469-9.027344-4.707031-18.027344-7.0625-27.003906 41.675781-20.847657 90.738281-20.847657 132.414063 0zm0 0" fill="#95a5a5"/><path d="m512 473.117188c-2.355469 8.96875-4.707031 17.972656-7.0625 27.003906-.96875 3.730468-4.765625 5.976562-8.5 5.03125-38.753906-7.035156-78.550781-5.917969-116.851562 3.277344v-35.3125c41.675781-20.847657 90.738281-20.847657 132.414062 0zm0 0" fill="#bdc3c7"/><g fill="#5e5f62"><path d="m353.101562 287.738281c0 4.875-3.949218 8.828125-8.824218 8.828125s-8.828125-3.953125-8.828125-8.828125 3.953125-8.828125 8.828125-8.828125 8.824218 3.953125 8.824218 8.828125zm0 0"/><path d="m308.964844 296.566406c-.695313 0-1.390625-.082031-2.066406-.246094-7.351563-1.75-15.015626-1.75-22.367188 0-4.671875.96875-9.269531-1.945312-10.378906-6.585937-1.113282-4.640625 1.660156-9.324219 6.265625-10.574219 10.054687-2.410156 20.539062-2.410156 30.59375 0 4.34375 1.046875 7.214843 5.175782 6.695312 9.609375-.523437 4.4375-4.273437 7.785157-8.742187 7.796875zm0 0"/><path d="m353.101562 323.050781c0 4.875-3.949218 8.828125-8.824218 8.828125s-8.828125-3.953125-8.828125-8.828125 3.953125-8.828125 8.828125-8.828125 8.824218 3.953125 8.824218 8.828125zm0 0"/><path d="m308.964844 331.878906c-.695313 0-1.390625-.082031-2.066406-.25-7.351563-1.746094-15.015626-1.746094-22.367188 0-4.671875.972656-9.269531-1.945312-10.378906-6.585937-1.113282-4.636719 1.660156-9.320313 6.265625-10.574219 10.054687-2.410156 20.539062-2.410156 30.59375 0 4.34375 1.050781 7.214843 5.175781 6.695312 9.613281-.523437 4.433594-4.273437 7.78125-8.742187 7.796875zm0 0"/><path d="m353.101562 358.359375c0 4.875-3.949218 8.828125-8.824218 8.828125s-8.828125-3.953125-8.828125-8.828125 3.953125-8.828125 8.828125-8.828125 8.824218 3.953125 8.824218 8.828125zm0 0"/><path d="m308.964844 367.1875c-.695313 0-1.390625-.082031-2.066406-.246094-7.351563-1.75-15.015626-1.75-22.367188 0-4.671875.96875-9.269531-1.945312-10.378906-6.585937-1.113282-4.640625 1.660156-9.324219 6.265625-10.574219 10.054687-2.410156 20.539062-2.410156 30.59375 0 4.34375 1.046875 7.214843 5.175781 6.695312 9.609375-.523437 4.4375-4.273437 7.785156-8.742187 7.796875zm0 0"/><path d="m353.101562 393.671875c0 4.875-3.949218 8.824219-8.824218 8.824219s-8.828125-3.949219-8.828125-8.824219 3.953125-8.828125 8.828125-8.828125 8.824218 3.953125 8.824218 8.828125zm0 0"/><path d="m308.964844 402.496094c-.695313.003906-1.390625-.082032-2.066406-.246094-7.351563-1.746094-15.015626-1.746094-22.367188 0-4.671875.972656-9.269531-1.945312-10.378906-6.585938-1.113282-4.636718 1.660156-9.320312 6.265625-10.574218 10.054687-2.410156 20.539062-2.410156 30.59375 0 4.34375 1.050781 7.214843 5.175781 6.695312 9.613281-.523437 4.433594-4.273437 7.78125-8.742187 7.792969zm0 0"/><path d="m353.101562 428.980469c0 4.875-3.949218 8.828125-8.824218 8.828125s-8.828125-3.953125-8.828125-8.828125 3.953125-8.828125 8.828125-8.828125 8.824218 3.953125 8.824218 8.828125zm0 0"/><path d="m308.964844 437.808594c-.695313 0-1.390625-.082032-2.066406-.246094-7.351563-1.75-15.015626-1.75-22.367188 0-4.671875.96875-9.269531-1.949219-10.378906-6.585938-1.113282-4.640624 1.660156-9.324218 6.265625-10.578124 10.054687-2.40625 20.539062-2.40625 30.59375 0 4.34375 1.050781 7.214843 5.179687 6.695312 9.613281-.523437 4.4375-4.273437 7.785156-8.742187 7.796875zm0 0"/><path d="m423.722656 287.738281c0 4.875-3.949218 8.828125-8.824218 8.828125-4.878907 0-8.828126-3.953125-8.828126-8.828125s3.949219-8.828125 8.828126-8.828125c4.875 0 8.824218 3.953125 8.824218 8.828125zm0 0"/><path d="m476.691406 296.566406c-.699218 0-1.390625-.082031-2.066406-.246094-7.355469-1.75-15.015625-1.75-22.371094 0-3.105468.84375-6.421875-.066406-8.660156-2.378906s-3.039062-5.660156-2.09375-8.734375c.945312-3.078125 3.492188-5.394531 6.640625-6.046875 10.058594-2.410156 20.539063-2.410156 30.597656 0 4.339844 1.046875 7.214844 5.175782 6.691407 9.609375-.519532 4.4375-4.273438 7.785157-8.738282 7.796875zm0 0"/><path d="m423.722656 323.050781c0 4.875-3.949218 8.828125-8.824218 8.828125-4.878907 0-8.828126-3.953125-8.828126-8.828125s3.949219-8.828125 8.828126-8.828125c4.875 0 8.824218 3.953125 8.824218 8.828125zm0 0"/><path d="m476.691406 331.878906c-.699218 0-1.390625-.085937-2.066406-.25-7.355469-1.746094-15.015625-1.746094-22.371094 0-3.105468.847656-6.421875-.066406-8.660156-2.378906s-3.039062-5.65625-2.09375-8.734375c.945312-3.074219 3.492188-5.390625 6.640625-6.046875 10.058594-2.410156 20.539063-2.410156 30.597656 0 4.339844 1.050781 7.214844 5.175781 6.691407 9.613281-.519532 4.433594-4.273438 7.78125-8.738282 7.796875zm0 0"/><path d="m423.722656 358.359375c0 4.875-3.949218 8.828125-8.824218 8.828125-4.878907 0-8.828126-3.953125-8.828126-8.828125s3.949219-8.828125 8.828126-8.828125c4.875 0 8.824218 3.953125 8.824218 8.828125zm0 0"/><path d="m476.691406 367.1875c-.699218 0-1.390625-.082031-2.066406-.246094-7.355469-1.75-15.015625-1.75-22.371094 0-3.105468.84375-6.421875-.066406-8.660156-2.378906s-3.039062-5.660156-2.09375-8.734375c.945312-3.078125 3.492188-5.394531 6.640625-6.046875 10.058594-2.410156 20.539063-2.410156 30.597656 0 4.339844 1.046875 7.214844 5.175781 6.691407 9.609375-.519532 4.4375-4.273438 7.785156-8.738282 7.796875zm0 0"/><path d="m423.722656 393.671875c0 4.875-3.949218 8.824219-8.824218 8.824219-4.878907 0-8.828126-3.949219-8.828126-8.824219s3.949219-8.828125 8.828126-8.828125c4.875 0 8.824218 3.953125 8.824218 8.828125zm0 0"/><path d="m476.691406 402.496094c-.699218.003906-1.390625-.082032-2.066406-.246094-7.355469-1.746094-15.015625-1.746094-22.371094 0-3.105468.847656-6.421875-.066406-8.660156-2.378906s-3.039062-5.660156-2.09375-8.734375 3.492188-5.390625 6.640625-6.046875c10.058594-2.410156 20.539063-2.410156 30.597656 0 4.339844 1.050781 7.214844 5.175781 6.691407 9.613281-.519532 4.433594-4.273438 7.78125-8.738282 7.792969zm0 0"/><path d="m423.722656 428.980469c0 4.875-3.949218 8.828125-8.824218 8.828125-4.878907 0-8.828126-3.953125-8.828126-8.828125s3.949219-8.828125 8.828126-8.828125c4.875 0 8.824218 3.953125 8.824218 8.828125zm0 0"/><path d="m476.691406 437.808594c-.699218 0-1.390625-.082032-2.066406-.246094-7.355469-1.75-15.015625-1.75-22.371094 0-3.105468.84375-6.421875-.066406-8.660156-2.378906s-3.039062-5.660156-2.09375-8.734375c.945312-3.078125 3.492188-5.394531 6.640625-6.050781 10.058594-2.40625 20.539063-2.40625 30.597656 0 4.339844 1.050781 7.214844 5.179687 6.691407 9.613281-.519532 4.4375-4.273438 7.785156-8.738282 7.796875zm0 0"/></g><path d="m79.449219 376.015625h52.964843v114.757813h-61.792968v-105.929688c0-4.875 3.953125-8.828125 8.828125-8.828125zm0 0" fill="#804537"/><path d="m132.414062 376.015625h52.964844c4.875 0 8.828125 3.953125 8.828125 8.828125v105.929688h-61.792969zm0 0" fill="#cc6f56"/><path d="m0 146.496094h264.828125v-69.691406c0-6.585938-3.667969-12.621094-9.507813-15.660157l-110.679687-57.652343c-7.664063-3.988282-16.789063-3.988282-24.453125 0l-110.679688 57.652343c-5.84375 3.039063-9.507812 9.074219-9.507812 15.660157zm0 0" fill="#e64c3c"/><path d="m512 146.496094h-247.171875v-35.308594h229.515625c9.75 0 17.65625 7.90625 17.65625 17.65625zm0 0" fill="#cbb292"/><path d="m167.722656 75.878906c0 19.5-15.808594 35.308594-35.308594 35.308594s-35.3125-15.808594-35.3125-35.308594c0-19.503906 15.8125-35.3125 35.3125-35.3125s35.308594 15.808594 35.308594 35.3125zm0 0" fill="#9bc8c2"/><path d="m167.722656 437.808594c0 4.875-3.949218 8.828125-8.824218 8.828125-4.878907 0-8.828126-3.953125-8.828126-8.828125s3.949219-8.828125 8.828126-8.828125c4.875 0 8.824218 3.953125 8.824218 8.828125zm0 0" fill="#d1d4d1"/><path d="m114.757812 437.808594c0 4.875-3.953124 8.828125-8.828124 8.828125s-8.828126-3.953125-8.828126-8.828125 3.953126-8.828125 8.828126-8.828125 8.828124 3.953125 8.828124 8.828125zm0 0" fill="#d1d4d1"/><path d="m203.035156 340.703125h-44.136718c-4.878907 0-8.828126-3.949219-8.828126-8.824219v-70.621094c0-4.875 3.949219-8.828124 8.828126-8.828124h44.136718c4.875 0 8.828125 3.953124 8.828125 8.828124v70.621094c0 4.875-3.953125 8.824219-8.828125 8.824219zm0 0" fill="#9bc8c2"/><path d="m105.929688 340.703125h-44.136719c-4.875 0-8.828125-3.949219-8.828125-8.824219v-70.621094c0-4.875 3.953125-8.828124 8.828125-8.828124h44.136719c4.875 0 8.828124 3.953124 8.828124 8.828124v70.621094c0 4.875-3.953124 8.824219-8.828124 8.824219zm0 0" fill="#9bc8c2"/><path d="m203.035156 217.117188h-44.136718c-4.878907 0-8.828126-3.949219-8.828126-8.824219v-17.65625c0-4.875 3.949219-8.828125 8.828126-8.828125h44.136718c4.875 0 8.828125 3.953125 8.828125 8.828125v17.65625c0 4.875-3.953125 8.824219-8.828125 8.824219zm0 0" fill="#9bc8c2"/><path d="m353.101562 217.117188h-44.136718c-4.875 0-8.828125-3.949219-8.828125-8.824219v-17.65625c0-4.875 3.953125-8.828125 8.828125-8.828125h44.136718c4.878907 0 8.828126 3.953125 8.828126 8.828125v17.65625c0 4.875-3.949219 8.824219-8.828126 8.824219zm0 0" fill="#9bc8c2"/><path d="m450.207031 217.117188h-44.136719c-4.875 0-8.828124-3.949219-8.828124-8.824219v-17.65625c0-4.875 3.953124-8.828125 8.828124-8.828125h44.136719c4.875 0 8.828125 3.953125 8.828125 8.828125v17.65625c0 4.875-3.953125 8.824219-8.828125 8.824219zm0 0" fill="#9bc8c2"/><path d="m105.929688 217.117188h-44.136719c-4.875 0-8.828125-3.949219-8.828125-8.824219v-17.65625c0-4.875 3.953125-8.828125 8.828125-8.828125h44.136719c4.875 0 8.828124 3.953125 8.828124 8.828125v17.65625c0 4.875-3.953124 8.824219-8.828124 8.824219zm0 0" fill="#9bc8c2"/></svg>