<svg height="512pt" viewBox="0 0 512 512" width="512pt" xmlns="http://www.w3.org/2000/svg"><path d="m84.988281 0c-4.265625 0-7.726562 3.460938-7.726562 7.726562v69.535157l15.453125-15.449219v-54.085938c0-4.265624-3.457032-7.726562-7.726563-7.726562zm0 0" fill="#bde8ff"/><path d="m38.632812 0c-4.269531 0-7.726562 3.460938-7.726562 7.726562v54.085938l15.453125 15.449219v-69.535157c0-4.265624-3.460937-7.726562-7.726563-7.726562zm0 0" fill="#def3ff"/><path d="m473.367188 0c-4.265626 0-7.726563 3.460938-7.726563 7.726562v69.535157l15.453125-15.449219v-54.085938c0-4.265624-3.457031-7.726562-7.726562-7.726562zm0 0" fill="#bde8ff"/><path d="m427.011719 0c-4.269531 0-7.726563 3.460938-7.726563 7.726562v54.085938l15.453125 15.449219v-69.535157c0-4.265624-3.460937-7.726562-7.726562-7.726562zm0 0" fill="#def3ff"/><path d="m434.738281 92.714844h38.628907v-61.808594h-23.179688zm0 0" fill="#bde8ff"/><path d="m427.011719 30.90625h23.175781v61.808594h-23.175781zm0 0" fill="#def3ff"/><path d="m419.285156 434.738281-30.90625 77.261719h-30.90625l-30.90625-77.261719zm0 0" fill="#ffe1a3"/><path d="m185.433594 434.738281-30.90625 77.261719h-30.90625l-30.90625-77.261719zm0 0" fill="#fff0d1"/><path d="m311.113281 293.601562 46.359375 172.039063h61.8125v-172.039063zm0 0" fill="#ff8c46"/><path d="m108.167969 293.601562h249.304687v172.039063h-249.304687zm0 0" fill="#ffa747"/><path d="m419.285156 231.789062v92.71875h-61.8125l-30.90625-123.621093zm0 0" fill="#ff6a2e"/><path d="m92.714844 200.886719v123.621093h108.171875l55.113281-73.488281 55.113281 73.488281h46.359375v-123.621093zm0 0" fill="#ff8c46"/><path d="m311.113281 200.886719v123.621093h-30.902343l-48.421876-123.621093zm0 0" fill="#fff0d1"/><path d="m200.886719 200.886719h79.324219v123.621093h-79.324219zm0 0" fill="#fff"/><path d="m419.285156 169.980469v61.808593h-61.8125l-30.90625-30.902343 30.90625-30.90625zm0 0" fill="#4e76e8"/><path d="m92.714844 169.980469h264.757812v61.808593h-264.757812zm0 0" fill="#6a90ff"/><path d="m177.707031 402.800781c-12.804687 0-23.179687 10.375-23.179687 23.179688v86.019531h46.359375l30.902343-43.011719-30.902343-43.007812c0-12.804688-10.375-23.179688-23.179688-23.179688zm0 0" fill="#6b3400"/><path d="m334.292969 402.800781c-12.804688 0-23.179688 10.375-23.179688 23.179688l-30.902343 43.007812 30.902343 43.011719h46.359375v-86.019531c0-12.804688-10.375-23.179688-23.179687-23.179688zm0 0" fill="#6b3400"/><path d="m256 355.414062 24.210938 156.585938h30.902343v-101.472656c0-30.441406-24.671875-55.113282-55.113281-55.113282zm0 0" fill="#90420c"/><path d="m256 355.414062c-30.441406 0-55.113281 24.671876-55.113281 55.113282v101.472656h79.324219v-101.472656c0-30.441406-10.839844-55.113282-24.210938-55.113282zm0 0" fill="#b54f17"/><path d="m481.09375 61.8125 30.90625 108.167969-61.8125 46.359375v-154.527344zm0 0" fill="#4e76e8"/><path d="m450.1875 61.8125 30.90625 108.167969-30.90625 46.359375-61.808594-46.359375 30.90625-108.167969zm0 0" fill="#6a90ff"/><path d="m512 169.980469v342.019531h-30.90625l-46.355469-171.011719 46.355469-171.007812zm0 0" fill="#b54f17"/><path d="m388.378906 169.980469v342.019531h92.714844v-187.492188l-46.355469-46.359374 46.355469-46.359376v-61.808593zm0 0" fill="#da5d23"/><path d="m481.09375 231.789062-46.355469 15.453126 15.449219-46.355469c17.070312 0 30.90625 13.832031 30.90625 30.902343zm0 0" fill="#ffd175"/><path d="m450.1875 200.886719v46.355469l-30.902344-15.453126c0-17.070312 13.832032-30.902343 30.902344-30.902343zm0 0" fill="#ffe1a3"/><path d="m481.09375 231.789062v92.71875h-30.90625l-15.449219-46.359374 15.449219-46.359376zm0 0" fill="#def3ff"/><path d="m419.285156 231.789062h30.902344v92.71875h-30.902344zm0 0" fill="#fff"/><path d="m46.359375 92.714844h38.628906v-61.808594h-23.175781zm0 0" fill="#bde8ff"/><path d="m38.632812 30.90625h23.179688v61.808594h-23.179688zm0 0" fill="#def3ff"/><path d="m92.714844 61.8125 30.90625 108.167969-61.808594 46.359375v-154.527344zm0 0" fill="#4e76e8"/><path d="m61.8125 61.8125 30.902344 108.167969-30.902344 46.359375-61.8125-46.359375 30.90625-108.167969zm0 0" fill="#6a90ff"/><path d="m92.714844 169.980469-61.808594 171.007812 61.808594 171.011719h30.90625v-342.019531zm0 0" fill="#b54f17"/><path d="m0 169.980469v342.019531h92.714844v-187.492188l-46.355469-46.359374 46.355469-46.359376v-61.808593zm0 0" fill="#da5d23"/><path d="m92.714844 231.789062-46.355469 15.453126 15.453125-46.355469c17.070312 0 30.902344 13.832031 30.902344 30.902343zm0 0" fill="#ffd175"/><path d="m61.8125 200.886719v46.355469l-30.90625-15.453126c0-17.070312 13.835938-30.902343 30.90625-30.902343zm0 0" fill="#ffe1a3"/><path d="m92.714844 231.789062v92.71875h-30.902344l-15.453125-46.359374 15.453125-46.359376zm0 0" fill="#def3ff"/><path d="m30.90625 231.789062h30.90625v92.71875h-30.90625zm0 0" fill="#fff"/><g fill="#6b3400"><path d="m30.90625 394.042969c-4.269531 0-7.726562-3.457031-7.726562-7.726563v-30.902344c0-4.269531 3.457031-7.726562 7.726562-7.726562 4.265625 0 7.726562 3.457031 7.726562 7.726562v30.902344c0 4.269532-3.460937 7.726563-7.726562 7.726563zm0 0"/><path d="m92.714844 424.949219c-4.265625 0-7.726563-3.457031-7.726563-7.726563v-30.90625c0-4.265625 3.460938-7.726562 7.726563-7.726562 4.269531 0 7.726562 3.460937 7.726562 7.726562v30.90625c0 4.269532-3.457031 7.726563-7.726562 7.726563zm0 0"/><path d="m61.8125 409.496094c-4.269531 0-7.726562-3.457032-7.726562-7.726563v-30.90625c0-4.265625 3.457031-7.722656 7.726562-7.722656 4.265625 0 7.726562 3.457031 7.726562 7.722656v30.90625c0 4.269531-3.460937 7.726563-7.726562 7.726563zm0 0"/><path d="m481.09375 394.042969c-4.265625 0-7.726562-3.457031-7.726562-7.726563v-30.902344c0-4.269531 3.460937-7.726562 7.726562-7.726562 4.269531 0 7.726562 3.457031 7.726562 7.726562v30.902344c0 4.269532-3.457031 7.726563-7.726562 7.726563zm0 0"/><path d="m419.285156 424.949219c-4.269531 0-7.726562-3.457031-7.726562-7.726563v-30.90625c0-4.265625 3.457031-7.726562 7.726562-7.726562 4.265625 0 7.726563 3.460937 7.726563 7.726562v30.90625c0 4.269532-3.460938 7.726563-7.726563 7.726563zm0 0"/><path d="m450.1875 409.496094c-4.265625 0-7.726562-3.457032-7.726562-7.726563v-30.90625c0-4.265625 3.460937-7.722656 7.726562-7.722656 4.269531 0 7.726562 3.457031 7.726562 7.722656v30.90625c0 4.269531-3.457031 7.726563-7.726562 7.726563zm0 0"/></g></svg>