<svg height="512pt" viewBox="0 0 512 512.02192" width="512pt" xmlns="http://www.w3.org/2000/svg"><path d="m26.492188 150.089844h-15.183594c-2.710938 0-5.273438-1.25-6.945313-3.386719s-2.265625-4.925781-1.617187-7.558594l22.070312-88.277343c.972656-3.9375 4.507813-6.703126 8.5625-6.707032h445.265625c4.054688.003906 7.585938 2.769532 8.5625 6.707032l22.066407 88.277343c.652343 2.632813.054687 5.421875-1.617188 7.558594s-4.230469 3.386719-6.945312 3.386719zm0 0" fill="#3f5c6c"/><path d="m488.839844 150.089844v300.140625h-459.035156v-300.140625h68.589843c4.703125 0 9.214844-1.875 12.535157-5.207032l33.632812-33.722656 75.828125-75.828125 32.664063-32.75c3.46875-3.441406 9.066406-3.441406 12.535156 0l32.660156 32.75 75.828125 75.828125 33.636719 33.722656c3.320312 3.332032 7.828125 5.207032 12.535156 5.207032zm0 0" fill="#f3d55b"/><path d="m256.011719 317.816406c-19.503907 0-35.3125 15.808594-35.3125 35.308594v95.179688h70.621093v-95.179688c0-19.5-15.808593-35.308594-35.308593-35.308594zm0 0" fill="#e64c3c"/><path d="m220.699219 353.152344h70.621093v95.152344h-70.621093zm0 0" fill="#cbb292"/><path d="m97.113281 194.230469h-26.480469c-4.875 0-8.828124 3.949219-8.828124 8.824219v70.621093c0 4.875 3.953124 8.828125 8.828124 8.828125h26.480469c4.875 0 8.828125-3.953125 8.828125-8.828125v-70.621093c0-4.875-3.953125-8.824219-8.828125-8.824219zm0 0" fill="#8697cb"/><path d="m176.5625 194.230469h-26.484375c-4.875 0-8.824219 3.949219-8.824219 8.824219v70.621093c0 4.875 3.949219 8.828125 8.824219 8.828125h26.484375c4.875 0 8.828125-3.953125 8.828125-8.828125v-70.621093c0-4.875-3.953125-8.824219-8.828125-8.824219zm0 0" fill="#90bae1"/><path d="m97.113281 317.816406h-26.480469c-4.875 0-8.828124 3.949219-8.828124 8.828125v70.617188c0 4.875 3.953124 8.828125 8.828124 8.828125h26.480469c4.875 0 8.828125-3.953125 8.828125-8.828125v-70.617188c0-4.878906-3.953125-8.828125-8.828125-8.828125zm0 0" fill="#90bae1"/><path d="m176.5625 317.816406h-26.484375c-4.875 0-8.824219 3.949219-8.824219 8.828125v70.617188c0 4.875 3.949219 8.828125 8.824219 8.828125h26.484375c4.875 0 8.828125-3.953125 8.828125-8.828125v-70.617188c0-4.878906-3.953125-8.828125-8.828125-8.828125zm0 0" fill="#8697cb"/><path d="m361.941406 194.230469h-26.480468c-4.878907 0-8.828126 3.949219-8.828126 8.824219v70.621093c0 4.875 3.949219 8.828125 8.828126 8.828125h26.480468c4.875 0 8.828125-3.953125 8.828125-8.828125v-70.621093c0-4.875-3.953125-8.824219-8.828125-8.824219zm0 0" fill="#90bae1"/><path d="m441.390625 194.230469h-26.484375c-4.875 0-8.828125 3.949219-8.828125 8.824219v70.621093c0 4.875 3.953125 8.828125 8.828125 8.828125h26.484375c4.875 0 8.828125-3.953125 8.828125-8.828125v-70.621093c0-4.875-3.953125-8.824219-8.828125-8.824219zm0 0" fill="#8697cb"/><path d="m361.941406 317.816406h-26.480468c-4.878907 0-8.828126 3.949219-8.828126 8.828125v70.617188c0 4.875 3.949219 8.828125 8.828126 8.828125h26.480468c4.875 0 8.828125-3.953125 8.828125-8.828125v-70.617188c0-4.878906-3.953125-8.828125-8.828125-8.828125zm0 0" fill="#8697cb"/><path d="m441.390625 317.816406h-26.484375c-4.875 0-8.828125 3.949219-8.828125 8.828125v70.617188c0 4.875 3.953125 8.828125 8.828125 8.828125h26.484375c4.875 0 8.828125-3.953125 8.828125-8.828125v-70.617188c0-4.878906-3.953125-8.828125-8.828125-8.828125zm0 0" fill="#90bae1"/><path d="m282.492188 211.882812h-52.964844c-4.875 0-8.828125 3.953126-8.828125 8.828126v52.964843c0 4.875 3.953125 8.828125 8.828125 8.828125h52.964844c4.875 0 8.828124-3.953125 8.828124-8.828125v-52.964843c0-4.875-3.953124-8.828126-8.828124-8.828126zm0 0" fill="#8697cb"/><path d="m17.667969 441.402344h476.6875c4.875 0 8.828125 3.949218 8.828125 8.828125v30.894531h-494.34375v-30.894531c0-4.878907 3.949218-8.828125 8.828125-8.828125zm0 0" fill="#d1d4d1"/><path d="m308.976562 123.632812c0 29.253907-23.714843 52.96875-52.964843 52.96875-29.253907 0-52.964844-23.714843-52.964844-52.96875 0-29.25 23.710937-52.964843 52.964844-52.964843 29.25 0 52.964843 23.714843 52.964843 52.964843zm0 0" fill="#fff"/><path d="m273.667969 132.4375h-17.65625c-4.875 0-8.828125-3.953125-8.828125-8.828125v-17.65625c0-4.875 3.953125-8.828125 8.828125-8.828125s8.828125 3.953125 8.828125 8.828125v8.828125h8.828125c4.875 0 8.824219 3.953125 8.824219 8.828125s-3.949219 8.828125-8.824219 8.828125zm0 0" fill="#2c2f38"/><g fill="#464f5d"><path d="m61.804688 247.195312h44.136718v26.480469c0 4.875-3.953125 8.828125-8.828125 8.828125h-26.480469c-4.875 0-8.828124-3.953125-8.828124-8.828125zm0 0"/><path d="m141.253906 247.195312h44.136719v26.480469c0 4.875-3.953125 8.828125-8.828125 8.828125h-26.484375c-4.875 0-8.824219-3.953125-8.824219-8.828125zm0 0"/><path d="m61.804688 370.78125h44.136718v26.480469c0 4.875-3.953125 8.828125-8.828125 8.828125h-26.480469c-4.875 0-8.828124-3.953125-8.828124-8.828125zm0 0"/><path d="m141.253906 370.78125h44.136719v26.480469c0 4.875-3.953125 8.828125-8.828125 8.828125h-26.484375c-4.875 0-8.824219-3.953125-8.824219-8.828125zm0 0"/><path d="m326.632812 247.195312h44.136719v26.480469c0 4.875-3.953125 8.828125-8.828125 8.828125h-26.480468c-4.878907 0-8.828126-3.953125-8.828126-8.828125zm0 0"/><path d="m406.078125 247.195312h44.140625v26.480469c0 4.875-3.953125 8.828125-8.828125 8.828125h-26.484375c-4.875 0-8.828125-3.953125-8.828125-8.828125zm0 0"/><path d="m326.632812 370.78125h44.136719v26.480469c0 4.875-3.953125 8.828125-8.828125 8.828125h-26.480468c-4.878907 0-8.828126-3.953125-8.828126-8.828125zm0 0"/><path d="m406.078125 370.78125h44.140625v26.480469c0 4.875-3.953125 8.828125-8.828125 8.828125h-26.484375c-4.875 0-8.828125-3.953125-8.828125-8.828125zm0 0"/></g><path d="m273.667969 397.289062c0 4.875-3.953125 8.828126-8.828125 8.828126s-8.828125-3.953126-8.828125-8.828126 3.953125-8.828124 8.828125-8.828124 8.828125 3.953124 8.828125 8.828124zm0 0" fill="#2c2f38"/><path d="m8.839844 476.710938h494.34375c4.875 0 8.828125 3.953124 8.828125 8.828124v17.65625c0 4.875-3.953125 8.828126-8.828125 8.828126h-494.34375c-4.875 0-8.8281252-3.953126-8.8281252-8.828126v-17.65625c0-4.875 3.9531252-8.828124 8.8281252-8.828124zm0 0" fill="#a5a5a4"/><path d="m220.699219 247.195312h70.621093v26.480469c0 4.875-3.953124 8.828125-8.828124 8.828125h-52.964844c-4.875 0-8.828125-3.953125-8.828125-8.828125zm0 0" fill="#464f5d"/><path d="m79.460938.0234375h8.824218c9.753906 0 17.65625 7.9023435 17.65625 17.6523435v61.792969c0 4.875-3.953125 8.828125-8.828125 8.828125h-26.480469c-4.875 0-8.828124-3.953125-8.828124-8.828125v-61.792969c0-9.75 7.902343-17.6523435 17.65625-17.6523435zm0 0" fill="#a5a5a4"/></svg>